<svg
   xmlns="http://www.w3.org/2000/svg"
   viewBox="0 0 1600 900"
   stroke="#1e1e1e"
   stroke-width="0"
   id="svgImage">
  <defs id="defs59">
     <clipPath id="clipArmaPG1">
        <rect x="210.5" y="100.5" width="32" height="32" rx="15" />
     </clipPath>
     <clipPath id="clipArmaturaPG1">
        <rect x="250.5" y="100.5" width="32" height="32" rx="15" />
     </clipPath>
     <clipPath id="clipArmaPG2">
        <rect x="1358.5" y="100.5" width="31" height="32" rx="15" />
     </clipPath>
     <clipPath id="clipArmaturaPG2">
        <rect x="1318.5" y="100.5" width="32" height="32" rx="15" />
     </clipPath>
  </defs>
  
  <!-- Cielo -->
  <path
     fill="#90e0ef"
     d="m 0,0 0.29839555,158.34489 c 0,0 532.90753445,-31.87002 799.70193445,-33.29061 266.70887,-1.42014 799.75447,24.76472 799.75447,24.76472 L 1600,0 Z"/>
  <!-- Nuvole -->
  <g
     fill="#caf0f8"
     fill-opacity="0.75">
    <path
       d="M 66.752595,118.22153 C 53.085026,91.822527 108.45043,75.437373 132.50972,57.977121 151.1113,44.477627 169.6368,25.811279 192.55555,24.083263 c 26.9267,-2.030207 50.08028,20.320359 75.71977,28.792996 28.29006,9.348525 88.90648,-5.388434 86.02689,24.266756 -5.0898,52.416805 -105.37665,5.09396 -157.46765,12.837037 C 152.94599,96.503877 87.152754,157.62458 66.752595,118.22153 Z"/>
    <path
       d="M 1018.585,85.567552 C 986.29095,69.377842 902.58098,55.070521 848.2174,42.154917 806.18589,32.169144 755.2422,18.841341 729.38301,16.193207 c -30.38133,-3.111222 -14.58861,9.82317 -25.41613,13.60158 -11.94686,4.169017 -98.02563,-9.420846 -43.56743,9.981965 96.25727,34.295279 113.93648,10.328666 179.34801,18.819205 55.11162,7.153601 227.03954,51.136303 178.83754,26.971595 z"/>
    <path
       d="m 1364.7798,17.208093 c 79.3275,-15.2685965 94.4736,3.063949 129.2683,7.381641 26.9016,3.338302 67.9418,4.820148 60.4197,14.192705 -8.8374,11.011574 -82.1836,28.983207 -118.9909,43.140375 -40.6125,15.620712 -32.7673,36.822016 -112.1445,46.032516 -140.3025,16.27991 42.3646,-44.099568 49.0503,-64.055532 5.6329,-16.813658 -126.0071,-23.901818 -7.6029,-46.691705 z"/>
  </g>
  <!-- Piani dell'arena (dal secondo in giù) -->
  <g
     fill="#cfdbd5">
    <path
       d="M 800,140.05469 C 533.20561,141.47655 0.29882812,173.3457 0.29882813,173.3457 L 0.21289063,297.57031 0.203125,313.26562 1599.8496,304.73828 1600,164.81836 c 0,0 -533.2095,-26.18551 -800,-24.76367 z"/>
    <path
       d="M 799.85156,290.08789 C 533.19441,291.50989 0.203125,313.26562 0.203125,313.26562 L 0.03515625,433.36719 0,458.26953 l 1600,-3.5332 -0.029,-29.69531 -0.1215,-120.30269 c 0,0 -533.2909,-16.07266 -799.99804,-14.65039 z"/>
    <path
       d="M 0.02545283,650 C 533.3334,652.23901 1066.6582,652.22223 1600,649.94966 V 454.73661 L 799.98664,454 0,458.26892 Z"/>
  </g>
  <!-- Portoni primo livello -->
  <g
     stroke="#f5cb5c"
     stroke-width="2"
     fill="#e8eddf">
    <path
       d="m 50,490.125 c -14.63358,0 -32.53175,1.71741 -50,5.29883 v 154.5039 H 169.875 V 543.39258 C 169.875,505.78523 94.67481,490.125 50,490.125 Z"/>
    <path
       d="m 230.12492,649.92697 h 239.75016 v -106.5347 c 0,-37.60735 -75.20027,-53.26735 -119.87508,-53.26735 -44.67481,0 -119.87508,15.66 -119.87508,53.26735 z"/>
    <path
       d="m 530.12492,649.92697 h 239.75016 v -106.5347 c 0,-37.60735 -75.20027,-53.26735 -119.87508,-53.26735 -44.67481,0 -119.87508,15.66 -119.87508,53.26735 z"/>
    <path
       d="M 830.12492,649.92702 H 1069.875 v -106.5347 c 0,-37.6074 -75.2002,-53.2674 -119.8751,-53.2674 -44.6748,0 -119.87498,15.66 -119.87498,53.2674 z"/>
    <path
       d="m 1550,490.125 c -44.6748,0 -119.875,15.66018 -119.875,53.26758 V 649.92773 H 1600 v -154.5039 c -17.4683,-3.58142 -35.3664,-5.29883 -50,-5.29883 z"/>
    <path
       d="m 1130.1249,649.92702 h 239.7501 v -106.5347 c 0,-37.6074 -75.2002,-53.2674 -119.8751,-53.2674 -44.6748,0 -119.875,15.66 -119.875,53.2674 z"/>
  </g>
  <!-- Sabbia e macchie-->
  <path
     fill="#ffe169"
     d="M 0,900 H 1600 V 650 L 800.00005,651.66667 0,650 Z"/>
  <g
     fill="#edc531"
     fill-opacity="0.9">
    <path
       d="m 907.48037,719.20464 c 69.96547,-5.98703 9.87371,-5.18992 11.1003,-12.03223 1.22667,-6.84231 135.58443,-28.92049 96.29953,-12.67 -39.28485,16.25049 102.0271,-1.17601 28.3075,11.09466 -47.23421,7.86215 -57.47253,-0.44913 -97.30651,14.09078 -39.83392,14.53992 -91.78216,11.34832 -114.0222,10.07114 -31.17772,-1.79044 -24.89471,0.0944 75.62138,-10.55435 z"/>
    <path
       d="m 1472.4383,842.31534 c 47.925,5.98703 -9.2323,5.18992 -33.1948,12.03223 -23.9624,6.84231 29.1174,28.92049 49.6566,12.67 20.5392,-16.25049 97.6978,1.17601 69.151,-11.09466 -18.2907,-7.86215 -59.1259,0.44913 -45.4331,-14.09078 13.6929,-14.53992 -50.0048,-11.34832 -76.9466,-10.07114 -37.769,1.79044 -24.5472,-0.0944 36.7669,10.55435 z"/>
    <path
       d="m 523.68975,701.48004 c 72.0231,6.03787 106.72665,7.97861 110.30482,14.87903 3.57827,6.90041 138.64809,19.40742 93.77827,3.01893 -44.86992,-16.38849 -41.48059,-17.89796 -79.13589,-17.89796 -37.6553,0 -92.36855,2.58766 -137.1997,-12.07573 -44.83106,-14.66339 -60.632,-13.5794 -82.43308,-12.29137 -30.56237,1.80565 -9.49028,13.62793 94.68558,24.3671 z"/>
    <path
       d="m 1546.9307,708.12357 c -49.1296,-2.85039 -76.361,-2.87434 -54.5488,-12.21241 21.812,-9.33806 -65.9742,-16.33297 -81.7639,3.03603 -15.7896,19.36898 -24.692,21.73388 12.5933,18.82583 37.2853,-2.90805 100.9691,-10.73886 91.4799,6.22952 -9.4892,16.96839 10.1395,14.23778 36.4591,10.7595 36.8968,-4.8761 59.472,-19.72081 -4.2196,-26.63847 z"/>
    <path
       d="M 0,791.466 C 71.278474,680.21169 299.31511,657.96113 507.3526,652.82632 L 0.05210454,650.05029 Z"/>
    <path
       d="m 751.60743,829.71734 c 47.925,-19.75439 -9.2323,10.1488 -33.19478,29.86181 -23.9624,19.71297 29.11738,13.28099 49.65658,-14.00151 20.5392,-27.2825 97.6978,-51.29938 69.151,-48.23704 -18.2907,1.96219 -59.1259,32.20677 -45.4331,10.31224 13.6929,-21.89464 -50.0048,15.51022 -76.94661,31.25837 -37.76899,22.0769 -24.54719,13.09037 36.76691,-9.19387 z"/>
    <path
       d="m 100.11358,852.27181 c -6.012142,-2.58337 -7.103208,11.76107 -42.322647,16.18252 -35.219357,4.42145 -16.949415,12.62712 30.325123,2.12615 47.274534,-10.50097 92.024844,0.5644 83.665784,-7.36484 -5.35596,-5.08044 -15.33781,-1.27395 -20.02598,-2.84872 -10.3665,-3.48212 64.26897,-16.71817 35.22594,-15.89286 -40.71463,1.15697 -58.54272,19.96893 -86.86822,7.79775 z"/>
  </g>
  <!-- Porte -->
  <g
     transform="translate(0,7.9152369)"
     fill="#363e41"
     stroke="#f5cb5c"
     stroke-width="1.5">
    <path
       d="m 61.877679,293.65707 c 0.07044,0.47274 0.110121,0.72376 0.110121,0.72376 h 75.72619 c 0,0 0.47652,-3.02333 1.06847,-7.84506 3.92139,-31.94115 -9.51344,-97.05561 -38.63731,-97.4297 -0.098,-10e-4 -0.196064,-0.002 -0.294253,-0.002 -29.243034,3.4e-4 -43.295588,68.85756 -37.973139,104.55289 z"/>
    <path
       d="m 161.87768,289.97296 c 0.0704,0.47274 0.11012,0.72376 0.11012,0.72376 h 75.72619 c 0,0 0.47652,-3.02333 1.06847,-7.84506 3.92139,-31.94115 -9.51344,-97.05561 -38.63731,-97.4297 -0.098,-0.001 -0.19606,-0.002 -0.29425,-0.002 -29.24304,3.4e-4 -43.29559,68.85756 -37.97314,104.55289 z"/>
    <path
       d="m 261.87768,286.49241 c 0.0704,0.47274 0.11012,0.72376 0.11012,0.72376 h 75.72619 c 0,0 0.47652,-3.02333 1.06847,-7.84506 3.92139,-31.94115 -9.51344,-97.05561 -38.63731,-97.4297 -0.098,-10e-4 -0.19606,-0.002 -0.29425,-0.002 -29.24304,3.4e-4 -43.29559,68.85756 -37.97314,104.55289 z"/>
    <path
       d="m 361.87768,283.24095 c 0.0704,0.47274 0.11012,0.72376 0.11012,0.72376 h 75.72619 c 0,0 0.47652,-3.02333 1.06847,-7.84506 3.92139,-31.94115 -9.51344,-97.05561 -38.63731,-97.4297 -0.098,-0.001 -0.19606,-0.002 -0.29425,-0.002 -29.24304,3.4e-4 -43.29559,68.85756 -37.97314,104.55289 z"/>
    <path
       d="m 461.87773,280.2681 c 0.0704,0.47274 0.11012,0.72376 0.11012,0.72376 h 75.72619 c 0,0 0.47652,-3.02333 1.06847,-7.84506 3.92139,-31.94115 -9.51344,-97.05561 -38.63731,-97.4297 -0.098,-10e-4 -0.19606,-0.002 -0.29425,-0.002 -29.24304,3.4e-4 -43.29559,68.85756 -37.97314,104.55289 z"/>
    <path
       d="m 561.87773,277.65963 c 0.0704,0.47274 0.11012,0.72376 0.11012,0.72376 h 75.72619 c 0,0 0.47652,-3.02333 1.06847,-7.84506 3.92139,-31.94115 -9.51344,-97.05561 -38.63731,-97.4297 -0.098,-0.001 -0.19606,-0.002 -0.29425,-0.002 -29.24304,3.4e-4 -43.29559,68.85756 -37.97314,104.55289 z"/>
    <path
       d="m 661.87773,274.89685 c 0.0704,0.47274 0.11012,0.72376 0.11012,0.72376 h 75.72619 c 0,0 0.47652,-3.02333 1.06847,-7.84506 3.92139,-31.94115 -9.51344,-97.05561 -38.63731,-97.4297 -0.098,-0.001 -0.19606,-0.002 -0.29425,-0.002 -29.24304,3.4e-4 -43.29559,68.85756 -37.97314,104.55289 z"/>
    <path
       d="m 761.87773,274.36448 c 0.0704,0.47274 0.11012,0.72376 0.11012,0.72376 h 75.72619 c 0,0 0.47652,-3.02333 1.06847,-7.84506 3.92139,-31.94115 -9.51344,-97.05561 -38.63731,-97.4297 -0.098,-0.001 -0.19606,-0.002 -0.29425,-0.002 -29.24304,3.4e-4 -43.29559,68.85756 -37.97314,104.55289 z"/>
    <path
       d="m 861.87773,273.83721 c 0.0704,0.47274 0.11012,0.72376 0.11012,0.72376 h 75.72619 c 0,0 0.47652,-3.02333 1.06847,-7.84506 3.92139,-31.94115 -9.51344,-97.05561 -38.63731,-97.4297 -0.098,-0.001 -0.19606,-0.002 -0.29425,-0.002 -29.24304,3.4e-4 -43.29559,68.85756 -37.97314,104.55289 z"/>
    <path
       d="m 961.87773,275.52583 c 0.0704,0.47274 0.11012,0.72376 0.11012,0.72376 h 75.72615 c 0,0 0.4766,-3.02333 1.0685,-7.84506 3.9214,-31.94115 -9.5134,-97.05561 -38.6373,-97.4297 -0.098,-0.001 -0.19606,-0.002 -0.29425,-0.002 -29.24304,3.4e-4 -43.29559,68.85756 -37.97314,104.55289 z"/>
    <path
       d="m 1061.8777,277.06696 c 0.071,0.47274 0.1102,0.72376 0.1102,0.72376 h 75.7261 c 0,0 0.4766,-3.02333 1.0685,-7.84506 3.9214,-31.94115 -9.5134,-97.05561 -38.6373,-97.4297 -0.098,-0.001 -0.1961,-0.002 -0.2943,-0.002 -29.243,3.4e-4 -43.2955,68.85756 -37.9731,104.55289 z"/>
    <path
       d="m 1161.8777,278.97225 c 0.071,0.47274 0.1102,0.72376 0.1102,0.72376 h 75.7261 c 0,0 0.4766,-3.02333 1.0685,-7.84506 3.9214,-31.94115 -9.5134,-97.05561 -38.6373,-97.4297 -0.098,-10e-4 -0.1961,-0.002 -0.2943,-0.002 -29.243,3.4e-4 -43.2955,68.85756 -37.9731,104.55289 z"/>
    <path
       d="m 1261.8777,281.15596 c 0.071,0.47274 0.1102,0.72376 0.1102,0.72376 h 75.7261 c 0,0 0.4766,-3.02333 1.0685,-7.84506 3.9214,-31.94115 -9.5134,-97.05561 -38.6373,-97.4297 -0.098,-0.001 -0.1961,-0.002 -0.2943,-0.002 -29.243,3.4e-4 -43.2955,68.85756 -37.9731,104.55289 z"/>
    <path
       d="m 1361.8777,283.56858 c 0.071,0.47274 0.1102,0.72376 0.1102,0.72376 h 75.7261 c 0,0 0.4766,-3.02333 1.0685,-7.84506 3.9214,-31.94115 -9.5134,-97.05561 -38.6373,-97.4297 -0.098,-0.001 -0.1961,-0.002 -0.2943,-0.002 -29.243,3.4e-4 -43.2955,68.85756 -37.9731,104.55289 z"/>
    <path
       d="m 1461.8777,286.18455 c 0.071,0.47274 0.1102,0.72376 0.1102,0.72376 h 75.7261 c 0,0 0.4766,-3.02333 1.0685,-7.84506 3.9214,-31.94115 -9.5134,-97.05561 -38.6373,-97.4297 -0.098,-0.001 -0.1961,-0.002 -0.2943,-0.002 -29.243,3.4e-4 -43.2955,68.85756 -37.9731,104.55289 z"/>
    <path
       d="m 1599.8515,191.96825 c -29.243,3.4e-4 -43.2971,68.85739 -37.9746,104.55274 0.071,0.47273 0.1113,0.72461 0.1113,0.72461 H 1600 c 0,-22.21484 -0.046,-89.46447 -0.1485,-105.27735 z"/>
    <path
       d="M 0.21289063,297.57031 H 37.712891 c 0,0 0.478412,-3.02397 1.070312,-7.8457 3.914869,-31.88795 -9.474831,-96.81972 -38.49804675,-97.4082 z"/>
    <path
       d="m -224.24075,397.98749 c 0.0268,0.17017 0.0419,0.26053 0.0419,0.26053 h 28.81308 c 0,0 0.18131,-1.0883 0.40654,-2.82396 1.49205,-11.49774 -3.61977,-34.93676 -14.70112,-35.07142 -0.0373,-4.5e-4 -0.0746,-6.8e-4 -0.11196,-6.8e-4 -11.12669,1.2e-4 -16.47355,24.78641 -14.44841,37.63553 z"
       transform="matrix(2.6281881,0,0,2.7780369,641.11529,-673.30661)"/>
    <path
       d="m -224.24075,397.98749 c 0.0268,0.17017 0.0419,0.26053 0.0419,0.26053 h 28.81308 c 0,0 0.18131,-1.0883 0.40654,-2.82396 1.49205,-11.49774 -3.61977,-34.93676 -14.70112,-35.07142 -0.0373,-4.5e-4 -0.0746,-6.8e-4 -0.11196,-6.8e-4 -11.12669,1.2e-4 -16.47355,24.78641 -14.44841,37.63553 z"
       transform="matrix(2.6281881,0,0,2.7780369,741.11529,-673.84389)"/>
    <path
       d="m -224.24075,397.98749 c 0.0268,0.17017 0.0419,0.26053 0.0419,0.26053 h 28.81308 c 0,0 0.18131,-1.0883 0.40654,-2.82396 1.49205,-11.49774 -3.61977,-34.93676 -14.70112,-35.07142 -0.0373,-4.5e-4 -0.0746,-6.8e-4 -0.11196,-6.8e-4 -11.12669,1.2e-4 -16.47355,24.78641 -14.44841,37.63553 z"
       transform="matrix(2.6281881,0,0,2.7780369,841.11529,-674.37626)"/>
    <path
       d="m -224.24075,397.98749 c 0.0268,0.17017 0.0419,0.26053 0.0419,0.26053 h 28.81308 c 0,0 0.18131,-1.0883 0.40654,-2.82396 1.49205,-11.49774 -3.61977,-34.93676 -14.70112,-35.07142 -0.0373,-4.5e-4 -0.0746,-6.8e-4 -0.11196,-6.8e-4 -11.12669,1.2e-4 -16.47355,24.78641 -14.44841,37.63553 z"
       transform="matrix(2.6281881,0,0,2.7780369,941.11529,-674.90863)"/>
    <path
       d="m -224.24075,397.98749 c 0.0268,0.17017 0.0419,0.26053 0.0419,0.26053 h 28.81308 c 0,0 0.18131,-1.0883 0.40654,-2.82396 1.49205,-11.49774 -3.61977,-34.93676 -14.70112,-35.07142 -0.0373,-4.5e-4 -0.0746,-6.8e-4 -0.11196,-6.8e-4 -11.12669,1.2e-4 -16.47355,24.78641 -14.44841,37.63553 z"
       transform="matrix(2.6281881,0,0,2.7780369,1041.1153,-675.441)"/>
    <path
       d="m -224.24075,397.98749 c 0.0268,0.17017 0.0419,0.26053 0.0419,0.26053 h 28.81308 c 0,0 0.18131,-1.0883 0.40654,-2.82396 1.49205,-11.49774 -3.61977,-34.93676 -14.70112,-35.07142 -0.0373,-4.5e-4 -0.0746,-6.8e-4 -0.11196,-6.8e-4 -11.12669,1.2e-4 -16.47355,24.78641 -14.44841,37.63553 z"
       transform="matrix(2.6281881,0,0,2.7780369,1141.1153,-675.97828)"/>
    <path
       d="m -224.24075,397.98749 c 0.0268,0.17017 0.0419,0.26053 0.0419,0.26053 h 28.81308 c 0,0 0.18131,-1.0883 0.40654,-2.82396 1.49205,-11.49774 -3.61977,-34.93676 -14.70112,-35.07142 -0.0373,-4.5e-4 -0.0746,-6.8e-4 -0.11196,-6.8e-4 -11.12669,1.2e-4 -16.47355,24.78641 -14.44841,37.63553 z"
       transform="matrix(2.6281881,0,0,2.7780369,1241.1153,-676.51065)"/>
    <path
       d="m -224.24075,397.98749 c 0.0268,0.17017 0.0419,0.26053 0.0419,0.26053 h 28.81308 c 0,0 0.18131,-1.0883 0.40654,-2.82396 1.49205,-11.49774 -3.61977,-34.93676 -14.70112,-35.07142 -0.0373,-4.5e-4 -0.0746,-6.8e-4 -0.11196,-6.8e-4 -11.12669,1.2e-4 -16.47355,24.78641 -14.44841,37.63553 z"
       transform="matrix(2.6281881,0,0,2.7780369,1341.1153,-677.04302)"/>
    <path
       d="m -224.24075,397.98749 c 0.0268,0.17017 0.0419,0.26053 0.0419,0.26053 h 28.81308 c 0,0 0.18131,-1.0883 0.40654,-2.82396 1.49205,-11.49774 -3.61977,-34.93676 -14.70112,-35.07142 -0.0373,-4.5e-4 -0.0746,-6.8e-4 -0.11196,-6.8e-4 -11.12669,1.2e-4 -16.47355,24.78641 -14.44841,37.63553 z"
       transform="matrix(2.6281881,0,0,2.7780369,1441.1153,-677.57029)"/>
    <path
       d="m -224.24075,397.98749 c 0.0268,0.17017 0.0419,0.26053 0.0419,0.26053 h 28.81308 c 0,0 0.18131,-1.0883 0.40654,-2.82396 1.49205,-11.49774 -3.61977,-34.93676 -14.70112,-35.07142 -0.0373,-4.5e-4 -0.0746,-6.8e-4 -0.11196,-6.8e-4 -11.12669,1.2e-4 -16.47355,24.78641 -14.44841,37.63553 z"
       transform="matrix(2.6281881,0,0,2.7780369,1541.1153,-678.10757)"/>
    <path
       d="m -224.24075,397.98749 c 0.0268,0.17017 0.0419,0.26053 0.0419,0.26053 h 28.81308 c 0,0 0.18131,-1.0883 0.40654,-2.82396 1.49205,-11.49774 -3.61977,-34.93676 -14.70112,-35.07142 -0.0373,-4.5e-4 -0.0746,-6.8e-4 -0.11196,-6.8e-4 -11.12669,1.2e-4 -16.47355,24.78641 -14.44841,37.63553 z"
       transform="matrix(2.6281881,0,0,2.7780369,1641.1153,-678.63994)"/>
    <path
       d="m -224.24075,397.98749 c 0.0268,0.17017 0.0419,0.26053 0.0419,0.26053 h 28.81308 c 0,0 0.18131,-1.0883 0.40654,-2.82396 1.49205,-11.49774 -3.61977,-34.93676 -14.70112,-35.07142 -0.0373,-4.5e-4 -0.0746,-6.8e-4 -0.11196,-6.8e-4 -11.12669,1.2e-4 -16.47355,24.78641 -14.44841,37.63553 z"
       transform="matrix(2.6281881,0,0,2.7780369,1741.1153,-679.17231)"/>
    <path
       d="m -224.24075,397.98749 c 0.0268,0.17017 0.0419,0.26053 0.0419,0.26053 h 28.81308 c 0,0 0.18131,-1.0883 0.40654,-2.82396 1.49205,-11.49774 -3.61977,-34.93676 -14.70112,-35.07142 -0.0373,-4.5e-4 -0.0746,-6.8e-4 -0.11196,-6.8e-4 -11.12669,1.2e-4 -16.47355,24.78641 -14.44841,37.63553 z"
       transform="matrix(2.6281881,0,0,2.7780369,1841.1153,-679.70468)"/>
    <path
       d="m -224.24075,397.98749 c 0.0268,0.17017 0.0419,0.26053 0.0419,0.26053 h 28.81308 c 0,0 0.18131,-1.0883 0.40654,-2.82396 1.49205,-11.49774 -3.61977,-34.93676 -14.70112,-35.07142 -0.0373,-4.5e-4 -0.0746,-6.8e-4 -0.11196,-6.8e-4 -11.12669,1.2e-4 -16.47355,24.78641 -14.44841,37.63553 z"
       transform="matrix(2.6281881,0,0,2.7780369,1941.1153,-680.24196)"/>
    <path
       d="m -224.24075,397.98749 c 0.0268,0.17017 0.0419,0.26053 0.0419,0.26053 h 28.81308 c 0,0 0.18131,-1.0883 0.40654,-2.82396 1.49205,-11.49774 -3.61977,-34.93676 -14.70112,-35.07142 -0.0373,-4.5e-4 -0.0746,-6.8e-4 -0.11196,-6.8e-4 -11.12669,1.2e-4 -16.47355,24.78641 -14.44841,37.63553 z"
       transform="matrix(2.6281881,0,0,2.7780369,2041.1153,-680.77433)"/>
    <path
       d="m 1599.8672,322.59375 c -3.0514,-1.75443 -6.322,-2.78304 -9.832,-2.82813 -0.098,-9.9e-4 -0.1948,-0.002 -0.293,-0.002 -29.243,3.4e-4 -43.2971,68.85739 -37.9746,104.55274 0.071,0.47273 0.1113,0.72461 0.1113,0.72461 h 48.0918 z"/>
    <path
       d="M 0.03515625,433.36719 H 27.605469 c 0,0 0.476402,-3.02398 1.068359,-7.84571 3.433242,-27.96509 -6.439939,-81.35224 -28.49609363,-94.46289 z"/>
  </g>
  <!-- Balaustre tra Piani -->
  <g
     fill="#9eaaae"
     stroke-width="2">
    <path
       d="m 0.20387835,298.26546 7e-8,15 c 0,0 532.98987158,-21.75522 799.64702158,-23.17722 266.7071,-1.42227 799.9985,14.65032 799.9985,14.65032 v -15 c 0,0 -533.2914,-16.07259 -799.99849,-14.65032 -266.65716,1.422 -799.64703165,23.17722 -799.64703165,23.17722 z"/>
    <path
       d="m 0.29839555,158.34489 10e-9,15 c 0,0 532.90751444,-31.86875 799.70190444,-33.29061 C 1066.7908,138.63244 1600,164.819 1600,164.819 l -0.2452,-15 c 0,0 -533.0456,-26.18486 -799.75447,-24.76472 -266.7944,1.42059 -799.70193445,33.29061 -799.70193445,33.29061 z"/>
    <path
       d="M 0,433.51393 6.0529356e-5,458.22587 1600,454.698 v -29.70027 l -800.15888,4.25809 z"/>
  </g>
  
  <g fill="#90ee9080" stroke="#408040" >
         <rect id="PF-box_pg1" x="200"  y="52" rx="15pt" width="400" height="40" stroke-width="2"/>
         <rect id="PF-box_pg2" x="1000" y="52" rx="15pt" width="400" height="40" stroke-width="2"/>
   </g>

   <!-- Barra vita PG1 -->
   <rect
     id="tmpPF_pg1"
     x="202"
     y="54"
     width="396"
     height="36"
     fill="#2ecc40"
     rx="15pt" />
   
   <!-- Testo PF PG1 -->
   <text
     id="pf_text_pg1"
     x="590"
     y="115"
     font-size="25"
     fill="#1f1f1f"
     text-anchor="end">100/100</text>
   
   <!-- Barra vita PG2 -->
   <rect
     id="tmpPF_pg2"
     x="1002"
     y="54"
     width="396"
     height="36"
     fill="#2ecc40"
     rx="15pt" />
   
   <!-- Testo PF PG2 -->
   <text
     id="pf_text_pg2"
     x="1010"
     y="115"
     font-size="25"
     fill="#1f1f1f"
     text-anchor="start">100/100</text>
   <g fill="rgb(255, 255, 224)">
      <rect
         id="arma_pg1"
         rx="15pt" class="item-slot not-clickable"
         width="32"
         height="32"
         x="210.5"
         y="100.5" />
      <rect
         id="armatura_pg1"
         rx="15pt" class="item-slot not-clickable"
         width="32"
         height="32"
         x="250.5"
         y="100.5" />
      <rect
         id="armatura_pg2"
         rx="15pt" class="item-slot not-clickable"
         width="32"
         height="32"
         x="1318.5"
         y="100.5" />
      <rect
         id="arma_pg2"
         rx="15pt" class="item-slot not-clickable"
         width="32"
         height="32"
         x="1358.5"
         y="100.5" />
  </g>
  <text
     xml:space="preserve"
     font-size="34px"
     
     style="text-align:start;writing-mode:lr-tb;direction:ltr;text-anchor:start;fill:#000000;"
     x="234.46355"
     y="40.323013"
     id="nome_pg1"
     transform="scale(1,1)">Nome Personaggio 1</text>
  <text
     xml:space="preserve"
     font-size="34px"
     style="text-align:start;writing-mode:lr-tb;direction:ltr;text-anchor:start;fill:#000000;"
     x="1024.46355"
     y="40.323013"
     id="nome_pg2"
     transform="scale(1,1)">Nome Personaggio 2</text>

   <!-- Personaggi -->
   <g>
    <image
       id="tuoPG"
       href=""
       x="200"
       y="300"
       width="400"
       height="600" />
    <g transform="scale(-1, 1)">
      <image
         id="enemyPG"
         href=""
         x="-1400"
         y="300"
         width="400"
         height="600" />
         
    </g>
  </g>
</svg>
