<svg
   width="64"
   height="64"
   viewBox="0 0 64 64"
   fill="none"
   stroke="#1f1f1f"
   stroke-width="2"
   stroke-linecap="round"
   stroke-linejoin="round"
   version="1.1"
   inkscape:version="1.4 (86a8ad7, 2024-10-11)"
   xmlns:inkscape="http://www.inkscape.org/namespaces/inkscape"
   xmlns:sodipodi="http://sodipodi.sourceforge.net/DTD/sodipodi-0.dtd"
   xmlns="http://www.w3.org/2000/svg"
   xmlns:svg="http://www.w3.org/2000/svg">

  <circle
     cx="32" cy="32" r="30" stroke-width="2" id="circle1" 
	 fill="#707070"/>
  <path
     fill="none" stroke="#4b97b1" stroke-width="1"
     d="M -7.757576,10.705455 C -7.9656689,11.73601 -9.5215152,10.699002 -9.7745456,10.298182 -11.215961,8.0148652 -8.688753,5.5241166 -6.6056346,5.0006031 -1.7599164,3.782814 2.2373593,8.3817296 2.7229058,12.821706 3.5791578,20.65152 -3.697806,26.584231 -11.015758,26.841212"
     transform="matrix(1.0137904,0.30529848,-0.56968548,0.95931254,40.559585,13.789676)" />
  <path
     fill="none" stroke="#59abc6" stroke-width="1"
     d="M -7.757576,10.705455 C -7.9656689,11.73601 -9.5215152,10.699002 -9.7745456,10.298182 -11.215961,8.0148652 -8.688753,5.5241166 -6.6056346,5.0006031 -1.7599164,3.782814 2.2373593,8.3817296 2.7229058,12.821706 3.5791578,20.65152 -3.697806,26.584231 -11.015758,26.841212"
     transform="matrix(1.0137904,0.30529848,-0.56968548,0.95931254,44.940141,17.042581)" />
  <path
     fill="none" stroke="#6daec4" stroke-width="1"
     d="M -7.757576,10.705455 C -7.9656689,11.73601 -9.5215152,10.699002 -9.7745456,10.298182 -11.215961,8.0148652 -8.688753,5.5241166 -6.6056346,5.0006031 -1.7599164,3.782814 2.2373593,8.3817296 2.7229058,12.821706 3.5791578,20.65152 -3.697806,26.584231 -11.015758,26.841212"
     transform="matrix(1.0137904,0.30529848,-0.56968548,0.95931254,49.725596,20.455915)" />
	 
</svg>
