<svg
   width="64"
   height="64"
   viewBox="0 0 64 64"
   fill="none"
   stroke="#1f1f1f"
   stroke-width="2"
   stroke-linecap="round"
   stroke-linejoin="round"
   version="1.1"
   inkscape:version="1.4 (86a8ad7, 2024-10-11)"
   xmlns:inkscape="http://www.inkscape.org/namespaces/inkscape"
   xmlns:sodipodi="http://sodipodi.sourceforge.net/DTD/sodipodi-0.dtd"
   xmlns="http://www.w3.org/2000/svg"
   xmlns:svg="http://www.w3.org/2000/svg">

  <circle
     cx="32" cy="32" r="30" stroke-width="2"
     fill="#8C1000"/>
  <path
     fill="#e32a00"
     stroke-width="0.5"
     d="m 30.992718,46.060242 c 4.990855,0.407395 11.458838,-0.588086 14.287176,-4.641984 1.404175,-2.012625 -0.78276,-3.45269 -1.400479,-7.594669 -0.61772,-4.141978 0.333776,-10.985869 2.561179,-13.861284 -3.803582,0.948437 -6.035896,1.126057 -10.013579,6.073947 1.39575,-4.836572 -0.764256,-9.442587 -1.487184,-10.282816 -2.121198,7.53551 -8.179462,7.32105 -7.447386,11.17336 -5.386211,-1.093685 -10.7286,-4.703853 -10.703804,-3.891018 1.078178,2.283533 3.443519,6.192515 3.429614,9.095655 -0.01391,2.90314 -2.407058,4.800438 -2.184214,7.231031 0.445697,4.861186 8.11238,6.302184 12.958673,6.697778 z"/>
  <path
     fill="#F39A1E"
     stroke-width="0"
     d="m 21.907128,29.91627 c 0,0 3.851453,2.936025 2.413461,5.473527 -3.128355,5.52035 1.935181,6.322391 4.656479,7.131437 3.94045,1.171502 11.298959,-0.409786 11.288906,-4.965552 -0.01005,-4.555766 -2.750586,-4.268937 0.215231,-9.744134 -5.187043,2.843934 -8.6339,7.413115 -6.5257,-0.196295 -5.824466,2.602322 -2.338027,5.491871 -4.8289,4.892514 C 27.998207,32.23625 21.907123,29.91627 21.907123,29.91627 Z"/>
</svg>
