<svg
   width="64"
   height="64"
   viewBox="0 0 64 64"
   fill="none"
   stroke="#1f1f1f"
   stroke-width="2"
   stroke-linecap="round"
   stroke-linejoin="round"
   version="1.1"
   inkscape:version="1.4 (86a8ad7, 2024-10-11)"
   xmlns:inkscape="http://www.inkscape.org/namespaces/inkscape"
   xmlns:sodipodi="http://sodipodi.sourceforge.net/DTD/sodipodi-0.dtd"
   xmlns="http://www.w3.org/2000/svg"
   xmlns:svg="http://www.w3.org/2000/svg">

  <circle
     cx="32"
     cy="32"
     r="30"
     stroke-width="2"
     fill="#5A3A31" />

  <path
     fill="none"
     stroke="#112b00"
     stroke-width="1.2"
     d="m 31.028148,42.002962 c 0,0 -0.907706,-8.442153 -0.30378,-12.43224 0.603927,-3.99011 -5.319717,-7.046639 -5.050456,-7.397635 M 30.724368,29.570722 c 0,0 3.328845,-8.027057 6.355647,-12.078306 "/>

   <path
     fill="#338000"
     stroke-width="1.2"
     stroke="#112b00"
     d="m 31.399658,29.090281 c 2.027536,2.493686 9.380747,4.440763 7.654737,1.797377 -1.086641,-1.664191 -3.558182,-3.241829 -5.243829,-3.252388 -1.046468,0.03244 -1.683552,0.789356 -2.410908,1.455011 z"/>
   <path
     fill="#338000"
     stroke-width="1.41027"
     stroke="#112b00"
     d="m 30.177679,34.013842 c -3.75507,0.391292 -10.265413,2.872576 -8.023912,0.578379 1.421092,-1.454523 4.1188,-2.699904 5.823474,-2.438073 0.984126,0.151181 1.235689,0.669399 2.200425,1.859665 z"/>

  <g
     transform="matrix(-1.55228,0.98371283,0.93090949,1.640329,-25.77028,-143.78519)">
    <g
       fill="#ffaaaa"
       stroke-width="0.25"
       transform="matrix(2.8527351,1.6226568,-1.1534138,2.0277758,64.873428,-117.13882)">
      <path
         d="m 19.125029,86.007765 c 0.08289,-0.0072 0.366968,-0.455035 0.23005,-0.842206 -0.06986,-0.197548 -0.391118,-0.197574 -0.459811,5.25e-4 -0.137269,0.395858 0.181358,0.84589 0.229761,0.841681 z"
         transform="translate(0,0.17578125)"/>
      <path
         d="m 19.125029,86.007765 c 0.08289,-0.0072 0.366968,-0.455035 0.23005,-0.842206 -0.06986,-0.197548 -0.391118,-0.197574 -0.459811,5.25e-4 -0.137269,0.395858 0.181358,0.84589 0.229761,0.841681 z"
         transform="matrix(0.73035114,0.78397282,-0.78397282,0.73035114,72.746503,8.4300903)"/>
      <path
         d="m 19.125029,86.007765 c 0.08289,-0.0072 0.366968,-0.455035 0.23005,-0.842206 -0.06986,-0.197548 -0.391118,-0.197574 -0.459811,5.25e-4 -0.137269,0.395858 0.181358,0.84589 0.229761,0.841681 z"
         transform="rotate(91.953674,19.049362,86.307123)"/>
      <path
         d="m 19.125029,86.007765 c 0.08289,-0.0072 0.366968,-0.455035 0.23005,-0.842206 -0.06986,-0.197548 -0.391118,-0.197574 -0.459811,5.25e-4 -0.137269,0.395858 0.181358,0.84589 0.229761,0.841681 z"
         transform="matrix(-0.69996755,0.60061938,-0.60061938,-0.69996755,84.318624,135.26094)"/>
      <path
         d="m 19.125029,86.007765 c 0.08289,-0.0072 0.366968,-0.455035 0.23005,-0.842206 -0.06986,-0.197548 -0.391118,-0.197574 -0.459811,5.25e-4 -0.137269,0.395858 0.181358,0.84589 0.229761,0.841681 z"
         transform="matrix(-1.0029019,-0.01069329,0.01110145,-0.96602864,37.366983,169.89627)"/>
      <path
         d="m 19.125029,86.007765 c 0.08289,-0.0072 0.366968,-0.455035 0.23005,-0.842206 -0.06986,-0.197548 -0.391118,-0.197574 -0.459811,5.25e-4 -0.137269,0.395858 0.181358,0.84589 0.229761,0.841681 z"
         transform="matrix(-0.66226294,-0.61775217,0.61775217,-0.66226294,-21.5453,155.32455)"/>
      <path
         d="m 19.125029,86.007765 c 0.08289,-0.0072 0.366968,-0.455035 0.23005,-0.842206 -0.06986,-0.197548 -0.391118,-0.197574 -0.459811,5.25e-4 -0.137269,0.395858 0.181358,0.84589 0.229761,0.841681 z"
         transform="rotate(-91.933044,19.182106,86.346842)"/>
      <path
         d="m 19.125029,86.007765 c 0.08289,-0.0072 0.366968,-0.455035 0.23005,-0.842206 -0.06986,-0.197548 -0.391118,-0.197574 -0.459811,5.25e-4 -0.137269,0.395858 0.181358,0.84589 0.229761,0.841681 z"
         transform="matrix(0.6615095,-0.70220186,0.64661547,0.71837625,-49.345212,37.895747)"/>
    </g>
    <ellipse
       fill="#ffcc00"
       stroke-width="0.25"
       cx="61.240795"
       cy="67.66375"
       rx="1.5398433"
       ry="0.91412556"
       transform="rotate(29.631539)"/>
  </g>
  <g
     transform="matrix(1.55228,0.98371283,-0.93090949,1.640329,89.736578,-148.70467)">
    <g
       fill="#ffaaaa"
       stroke-width="0.25"
       transform="matrix(2.8527351,1.6226568,-1.1534138,2.0277758,64.873428,-117.13882)">
      <path
         d="m 19.125029,86.007765 c 0.08289,-0.0072 0.366968,-0.455035 0.23005,-0.842206 -0.06986,-0.197548 -0.391118,-0.197574 -0.459811,5.25e-4 -0.137269,0.395858 0.181358,0.84589 0.229761,0.841681 z"
         transform="translate(0,0.17578125)"/>
      <path
         d="m 19.125029,86.007765 c 0.08289,-0.0072 0.366968,-0.455035 0.23005,-0.842206 -0.06986,-0.197548 -0.391118,-0.197574 -0.459811,5.25e-4 -0.137269,0.395858 0.181358,0.84589 0.229761,0.841681 z"
         transform="matrix(0.73035114,0.78397282,-0.78397282,0.73035114,72.746503,8.4300903)"/>
      <path
         d="m 19.125029,86.007765 c 0.08289,-0.0072 0.366968,-0.455035 0.23005,-0.842206 -0.06986,-0.197548 -0.391118,-0.197574 -0.459811,5.25e-4 -0.137269,0.395858 0.181358,0.84589 0.229761,0.841681 z"
         transform="rotate(91.953674,19.049362,86.307123)"/>
      <path
         d="m 19.125029,86.007765 c 0.08289,-0.0072 0.366968,-0.455035 0.23005,-0.842206 -0.06986,-0.197548 -0.391118,-0.197574 -0.459811,5.25e-4 -0.137269,0.395858 0.181358,0.84589 0.229761,0.841681 z"
         transform="matrix(-0.69996755,0.60061938,-0.60061938,-0.69996755,84.318624,135.26094)"/>
      <path
         d="m 19.125029,86.007765 c 0.08289,-0.0072 0.366968,-0.455035 0.23005,-0.842206 -0.06986,-0.197548 -0.391118,-0.197574 -0.459811,5.25e-4 -0.137269,0.395858 0.181358,0.84589 0.229761,0.841681 z"
         transform="matrix(-1.0029019,-0.01069329,0.01110145,-0.96602864,37.366983,169.89627)"/>
      <path
         d="m 19.125029,86.007765 c 0.08289,-0.0072 0.366968,-0.455035 0.23005,-0.842206 -0.06986,-0.197548 -0.391118,-0.197574 -0.459811,5.25e-4 -0.137269,0.395858 0.181358,0.84589 0.229761,0.841681 z"
         transform="matrix(-0.66226294,-0.61775217,0.61775217,-0.66226294,-21.5453,155.32455)"/>
      <path
         d="m 19.125029,86.007765 c 0.08289,-0.0072 0.366968,-0.455035 0.23005,-0.842206 -0.06986,-0.197548 -0.391118,-0.197574 -0.459811,5.25e-4 -0.137269,0.395858 0.181358,0.84589 0.229761,0.841681 z"
         transform="rotate(-91.933044,19.182106,86.346842)"/>
      <path
         d="m 19.125029,86.007765 c 0.08289,-0.0072 0.366968,-0.455035 0.23005,-0.842206 -0.06986,-0.197548 -0.391118,-0.197574 -0.459811,5.25e-4 -0.137269,0.395858 0.181358,0.84589 0.229761,0.841681 z"
         transform="matrix(0.6615095,-0.70220186,0.64661547,0.71837625,-49.345212,37.895747)"/>
    </g>
    <ellipse
       fill="#ffcc00"
       stroke-width="0.25"
       cx="61.240795"
       cy="67.66375"
       rx="1.5398433"
       ry="0.91412556"
       transform="rotate(29.631539)"/>
  </g>
  
  <path
     stroke="#28220B" stroke-width="0.8" fill="#664F2C"
     d="m 30.128682,39.227345 c 0.620216,0.485676 0.938007,0.185048 1.301522,0.0033 0.412666,-0.206322 3.406073,0.625011 3.201455,1.484746 -0.249844,1.049759 2.505194,0.727328 3.614189,1.576235 1.108995,0.848907 3.292566,1.336694 3.95274,2.674587 0.450433,0.912838 2.56574,1.360958 3.475805,1.797589 1.494774,0.717163 0.344438,2.850869 -1.729117,4.189299 -2.119558,1.368124 -3.219626,1.223806 -7.069951,1.829558 -3.021634,0.47538 -10.67467,-1.177126 -11.738914,-0.650957 -0.706384,0.349242 -7.129263,-0.976106 -7.129263,-2.673918 0,-1.697814 1.505067,-1.620642 2.772491,-3.549975 1.267424,-1.929334 0.09902,-1.196187 1.524871,-1.659227 1.425852,-0.46304 0.435675,-0.501627 1.148602,-0.964668 0.712927,-0.463039 1.584283,-0.385864 1.188211,-1.003253 -0.396071,-0.617385 1.983017,-0.973325 2.871992,-1.689253 0.994873,-0.801216 2.364966,-1.560146 2.615367,-1.364063 z"/>
     
     <g 
       stroke="none" stroke-width="0" fill="#84714F" fill-opacity="0.5">
         <path
            d="m 21.915863,46.564093 c 3.468987,-0.559866 7.024126,0.08639 10.644848,1.650805 -3.499102,-0.599449 -6.997639,-1.199463 -10.644848,-1.650805 z"/>
         <path
            d="m 30.198121,44.147069 c 2.145887,-1.762516 4.732301,-1.990279 7.654064,-1.049711 -2.534022,0.271554 -5.067846,0.542207 -7.654064,1.049711 z"/>
         <path
            d="m 34.631683,49.709675 c 2.145887,-1.362388 4.732301,-1.538444 7.654064,-0.811405 -2.534022,0.209906 -5.067846,0.419115 -7.654064,0.811405 z"/>
     </g>
  
</svg>
