<?xml version="1.0" encoding="UTF-8" standalone="no"?>
<!-- Created with Inkscape (http://www.inkscape.org/) -->

<svg
   version="1.1"
   id="svg7330"
   width="750.28888"
   height="750.2923"
   viewBox="0 0 750.28887 750.29229"
   sodipodi:docname="Stemma_unipi.png"
   xmlns:inkscape="http://www.inkscape.org/namespaces/inkscape"
   xmlns:sodipodi="http://sodipodi.sourceforge.net/DTD/sodipodi-0.dtd"
   xmlns="http://www.w3.org/2000/svg"
   xmlns:svg="http://www.w3.org/2000/svg">
  <defs
     id="defs7334" />
  <sodipodi:namedview
     id="namedview7332"
     pagecolor="#ffffff"
     bordercolor="#000000"
     borderopacity="0.25"
     inkscape:showpageshadow="2"
     inkscape:pageopacity="0.0"
     inkscape:pagecheckerboard="0"
     inkscape:deskcolor="#d1d1d1"
     showgrid="false" />
  <g
     inkscape:groupmode="layer"
     inkscape:label="Image"
     id="g7336"
     transform="translate(4.6601415,23.625023)">
    <path
       style="fill:#0f4a7c;fill-opacity:1;stroke-width:2.596"
       d="m 307.45022,718.51094 v -8.15641 l 6.07031,5.5869 c 7.41412,6.8237 15.025,7.11684 22.88506,0.88142 l 5.93153,-4.70546 -1.74012,-6.79231 c -0.95706,-3.73577 -4.9708,-8.4633 -8.91941,-10.50561 l -7.17931,-3.71332 7.05316,-2.65239 c 3.87926,-1.4588 8.34671,-5.02027 9.92768,-7.91434 l 2.87455,-5.26201 -2.71228,-4.96498 c -1.49175,-2.73072 -5.2088,-5.74121 -8.26011,-6.69002 l -5.54784,-1.72502 -7.56883,5.48221 -7.56881,5.48216 v -6.50064 -6.50067 l 7.2126,-0.38748 c 20.5044,-1.10153 34.7609,4.09017 34.74198,12.6518 -0.007,2.44057 -2.38768,8.25835 -5.294,12.92846 l -5.28426,8.49105 3.98269,5.57051 c 5.65829,7.91429 4.93733,15.50008 -2.08767,21.96564 l -6.07027,5.58687 h -16.22333 -16.22332 z m 105.77607,0.18866 -1.62661,-7.96788 -16.88367,1.77138 -16.88363,1.77134 3.17407,-6.00858 c 9.28581,-17.57821 29.41881,-48.40534 31.6132,-48.40534 3.40438,0 4.32152,3.43882 6.30896,23.65577 l 1.694,17.23202 4.70043,1.46157 4.7004,1.46156 -5.39927,11.49797 c -6.35964,13.54309 -9.17571,14.41526 -11.39788,3.53009 z m -7.42195,-14.03738 5.24556,-1.379 -0.91769,-12.84669 c -0.54088,-7.57165 -2.06015,-12.4736 -3.70005,-11.93807 -1.53029,0.49974 -6.24732,6.91711 -10.48228,14.26079 l -7.6999,13.35217 6.15441,-0.035 c 3.38493,-0.0206 8.51488,-0.65566 11.39995,-1.41411 z m 55.74456,5.28714 -1.30843,-6.70565 4.25524,1.76428 c 14.34717,5.94848 26.54884,0.19675 26.54884,-12.51495 0,-8.30371 -4.81342,-12.07664 -15.40699,-12.07664 h -9.11238 l 5.70277,-5.94696 c 5.82276,-6.07215 6.93953,-11.03105 4.11073,-18.25306 l -1.592,-4.06442 h -9.03557 -9.03552 l -2.74182,7.70544 c -2.97891,8.37166 -6.01877,8.31082 -8.28142,-0.16573 l -1.43819,-5.38789 10.957,-4.8737 c 25.23,-11.22232 39.3215,-1.20522 29.5436,21.00143 l -1.82606,4.14724 7.94213,1.55615 7.94218,1.55617 1.75811,6.86253 c 3.73598,14.58307 -7.32821,26.01371 -29.48142,30.45789 l -8.19235,1.64348 -1.30845,-6.70565 z M 261.55166,696.033 l -13.11389,-4.54114 6.14068,-1.93106 c 5.93266,-1.86564 11.02163,-10.64556 14.49024,-24.99997 l 1.65825,-6.86242 -8.5218,-1.92399 -8.52181,-1.92401 6.55694,-1.87779 c 9.13253,-2.6154 23.60497,-2.81132 23.60497,-0.31948 0,1.13878 -2.53986,9.43874 -5.64416,18.4443 l -5.64416,16.37375 2.79359,7.25061 c 3.21621,8.34771 3.49734,8.30063 -13.79885,2.3112 z M 142.73989,628.51262 c -4.45615,-4.36563 -3.90329,-16.36486 0.97418,-21.14326 4.87746,-4.7784 17.12553,-5.32 21.58171,-0.95438 1.73104,1.69585 3.14734,6.66783 3.14734,11.04882 0,4.38099 -1.4163,9.35296 -3.14734,11.04882 -1.73102,1.69588 -6.8061,3.0834 -11.27796,3.0834 -4.47181,0 -9.54689,-1.38752 -11.27793,-3.0834 z m 444.44248,-9.32401 c -9.06938,-9.81797 -2.90998,-26.13502 9.86544,-26.13502 12.86645,0 19.53319,17.99458 9.84806,26.58146 -6.2924,5.57889 -14.31541,5.39715 -19.7135,-0.44644 z m -317.29445,-4.16755 c -11.94274,-4.17255 -17.31914,-10.38923 -17.43257,-20.15713 -0.10501,-9.03891 10.47433,-19.7968 19.46821,-19.7968 h 6.67613 v -8.44912 -8.4491 l -11.88483,-9.73268 -11.88487,-9.73269 -9.18862,7.90382 c -5.05373,4.34709 -12.14519,7.90383 -15.7588,7.90383 -17.66824,0 -38.66095,-18.55072 -63.26302,-55.90393 -27.41584,-41.6253 -40.38385,-77.5547 -45.59703,-126.33202 l -2.9975,-28.04616 2.90246,-29.12072 c 7.88085,-79.06975 41.17113,-132.88311 82.34973,-133.11741 10.03829,-0.057 10.63607,-0.65457 13.50609,-13.49915 2.08977,-9.35253 14.82627,-23.20697 30.45531,-33.12849 l 12.72916,-8.08064 -1.43892,-7.04833 c -2.26359,-11.08812 2.94637,-17.34787 18.14883,-21.805841 l 13.72451,-4.024583 71.46247,-1.135868 c 69.97825,-1.112233 90.74424,0.295043 105.17892,7.127902 l 6.95293,3.29125 0.006,12.46074 0.007,12.46075 13.1092,8.34871 c 17.34165,11.04418 26.62325,21.06648 31.01571,33.49091 l 3.6041,10.20146 8.00051,-0.8095 c 4.40025,-0.44522 13.00363,0.51035 19.11861,2.12349 l 11.11816,2.93299 13.72838,12.71996 c 24.979,23.1442 40.72809,62.9597 46.05861,116.44159 l 2.88957,28.99154 -2.81733,27.42439 c -5.17955,50.41848 -18.33019,87.56613 -46.04881,130.07756 -16.84567,25.83589 -28.95561,40.13628 -41.56847,49.08737 l -10.48573,7.44152 H 510.0639 498.39581 l -7.51901,-7.88561 -7.51902,-7.88561 -3.63755,2.10422 c -2.00067,1.15738 -7.4738,5.30946 -12.16254,9.22693 l -8.525,7.12269 1.5479,6.0419 c 0.90611,3.53698 4.91641,7.40887 9.67293,9.33906 11.78387,4.78187 15.54663,9.44763 15.54663,19.27752 v 8.70961 l -5.6251,5.13409 c -12.41815,11.33429 -56.56412,13.19832 -89.01071,3.75846 -15.08073,-4.38751 -25.86065,-3.84857 -54.8624,2.74288 -21.09028,4.79333 -53.0707,4.91577 -66.41286,0.25413 z m 78.65599,-11.79988 c 23.54627,-5.89982 66.92613,-25.62065 89.73081,-40.79241 8.82802,-5.87321 16.05097,-11.32419 16.05097,-12.11328 0,-3.0413 -10.98273,-16.36026 -13.49057,-16.36026 -1.45327,0 -10.51983,4.47717 -20.14792,9.94927 -38.25519,21.74222 -97.29272,38.87111 -133.97546,38.87111 h -15.98038 l -5.05091,4.94831 c -4.94647,4.846 -4.90244,14.04193 0.0815,17.05971 11.8072,7.149 50.96361,6.40993 82.78179,-1.56245 z m 118.39711,2.46513 c 8.60646,-2.93928 12.20981,-9.09727 9.44843,-16.14714 -1.88148,-4.80348 -5.88594,-5.87657 -29.93209,-8.02107 l -17.04804,-1.52036 -22.29359,10.82021 -22.29361,10.82021 13.11388,3.16953 c 16.59203,4.01019 58.28126,4.54098 69.00502,0.87862 z M 341.62435,566.08357 c 24.20466,-6.10263 47.80009,-15.51673 72.60718,-28.96883 l 21.54108,-11.68101 -4.28215,-7.1018 -4.28213,-7.10181 -15.58767,10.37035 c -27.0583,18.00167 -57.15048,29.36183 -93.67933,35.36515 -9.37642,1.54097 -19.70359,3.37555 -22.94927,4.07686 l -5.90124,1.27508 v 5.88368 5.88366 l 17.78173,-1.86137 c 9.77999,-1.02377 25.41829,-3.78673 34.7518,-6.13996 z m 107.45578,3.84459 c 0,-1.41323 -1.18025,-2.56951 -2.62277,-2.56951 -1.44254,0 -2.62278,1.15628 -2.62278,2.56951 0,1.41322 1.18024,2.56949 2.62278,2.56949 1.44252,0 2.62277,-1.15627 2.62277,-2.56949 z M 302.20468,543.1001 c 0,-4.86288 -1.10331,-9.50963 -2.45182,-10.32611 -2.25716,-1.36665 -15.90762,13.63576 -15.90762,17.48313 0,0.92652 4.13089,1.68456 9.17973,1.68456 h 9.17971 z m 39.34164,-0.17016 c 20.2287,-4.91644 62.23598,-24.23279 69.2784,-31.85648 l 4.97232,-5.38273 -4.6526,-5.03665 -4.65263,-5.03665 -8.21206,6.04113 c -10.38987,7.6432 -38.63449,21.28887 -66.56884,32.16112 -11.90084,4.63188 -21.6379,9.35153 -21.6379,10.48817 0,2.81125 5.68915,4.81028 10.49111,3.68634 2.16379,-0.50646 11.60578,-2.78535 20.9822,-5.06425 z m 185.66347,-1.16877 c 12.18,-8.64391 25.62863,-25.37922 44.74509,-55.68027 24.36201,-38.61553 36.02651,-74.7616 38.86249,-120.42756 l 1.59575,-25.69491 -14.78572,0.88018 c -8.13212,0.48409 -14.79264,1.64036 -14.80115,2.5695 -0.10598,11.57189 -9.34702,56.28697 -15.52796,75.13534 -9.79907,29.88157 -20.64329,48.02302 -50.43503,84.37336 -12.75776,15.56634 -23.19592,30.07429 -23.19592,32.23991 0,5.94456 9.68998,14.21548 16.65451,14.21548 3.38988,0 10.98946,-3.42495 16.88794,-7.61098 z m -285.79164,-3.46926 5.69726,-5.94123 -12.1567,-13.95265 c -15.24024,-17.4916 -39.86287,-53.23094 -49.47054,-71.80562 -14.01828,-27.10171 -23.02972,-60.42628 -25.5862,-94.61855 l -0.63859,-8.54051 -15.4518,-0.90769 -15.45182,-0.90773 1.5551,24.86519 c 3.04189,48.63883 18.04005,89.55265 49.1301,134.0232 8.96531,12.82381 21.62607,27.90844 28.13501,33.52145 l 11.83442,10.20543 h 8.35326 8.35326 z m 236.75378,-6.54542 11.40698,-9.91718 -13.79327,-15.5983 C 460.38923,488.81974 444.9617,474.8568 441.12052,474.8568 c -5.52475,5e-5 -13.02261,-10.60907 -13.02261,-18.42645 0,-8.49403 6.22971,-17.54642 12.07518,-17.54642 h 3.39384 l -3.77428,8.84961 c -2.07585,4.8673 -3.06569,10.65861 -2.19964,12.86963 1.73353,4.42578 10.66001,7.39438 18.32658,6.09475 l 4.9214,-0.8343 1.33219,8.99323 1.33221,8.99324 9.8354,0.79748 9.83543,0.79748 v 9.60898 c 0,22.66608 16.23313,20.10717 32.55205,-5.13139 l 4.38059,-6.7749 -17.19576,-7.88342 c -19.43465,-8.90978 -48.03902,-32.16139 -50.28742,-40.877 l -1.49143,-5.78136 h -5.91415 c -3.25276,0 -14.04209,5.8827 -23.97632,13.07268 -9.93422,7.18999 -21.30944,14.95592 -25.27822,17.25767 -8.54468,4.95555 -11.14418,11.28698 -7.42743,18.0907 4.23843,7.75866 10.53974,8.62959 20.18465,2.78979 l 8.88404,-5.37907 v 10.75744 10.75742 l 10.30469,-0.96273 10.30472,-0.96278 -1.45152,7.11023 c -1.77265,8.68322 2.92208,14.83145 11.32517,14.83145 h 6.23581 v 9.76409 c 0,9.78373 3.61436,15.93087 9.36694,15.93087 1.68979,0 8.20544,-4.46273 14.4793,-9.91718 z m -194.2746,3.43197 3.31712,-3.9157 -3.91638,-9.76762 -3.91642,-9.76762 10.75583,0.19349 10.75581,0.19348 v -9.25017 -9.25018 l 11.14679,1.23354 c 12.03229,1.33147 12.37505,0.87264 8.70714,-11.65689 l -2.43972,-8.33391 3.09541,0.0569 c 1.70244,0.0314 6.04599,2.31825 9.6523,5.08186 8.42666,6.45749 18.91083,6.50122 24.82072,0.10355 l 4.65153,-5.03543 -1.67,-6.51852 -1.66994,-6.51851 -18.96741,-9.35208 c -10.43206,-5.14364 -23.07212,-12.66334 -28.08897,-16.71048 -5.18107,-4.17948 -12.26262,-7.35833 -16.39235,-7.35833 h -7.27077 v 4.22778 c 0,2.32525 -7.07105,10.81948 -15.71348,18.87606 l -15.71348,14.64832 -17.07122,7.10799 c -9.38917,3.90939 -17.07121,8.19547 -17.07121,9.52465 0,3.91367 12.13289,20.25829 18.05431,24.32157 l 5.45931,3.74617 5.54495,-2.9073 5.54498,-2.90729 -0.96714,-9.93544 -0.96712,-9.93541 10.54882,-0.7615 10.5488,-0.76147 1.31139,-8.99324 1.31137,-8.99322 7.86834,-0.29625 c 4.32759,-0.16285 9.26411,-0.45199 10.97005,-0.64238 5.36603,-0.5988 6.51449,-10.05233 2.21161,-18.20418 l -4.13667,-7.83684 h 4.78836 c 7.42318,0 11.08302,5.26072 11.08302,15.93087 v 9.76409 l -5.24554,5.13897 c -2.88506,2.82646 -6.9213,5.13899 -8.9694,5.13899 -3.49755,0 -19.09091,14.94743 -37.98241,36.40901 l -8.30012,9.42931 9.66885,9.19951 c 10.27872,9.77978 19.22073,11.69627 24.65294,5.28384 z m 41.68061,-8.73709 3.70245,-2.29612 -7.63661,-6.45455 -7.63662,-6.45455 -4.58985,4.04927 c -5.37367,4.74075 -5.95593,9.99297 -1.31138,11.82904 5.32668,2.10569 13.49895,1.79084 17.47201,-0.67309 z m 25.8038,-9.52264 c 3.24568,-0.85212 5.88955,-2.28168 5.87524,-3.17676 -0.0137,-0.89509 -5.58163,-5.39127 -12.37184,-9.99148 l -12.34594,-8.36405 -5.33183,5.31827 -5.33187,5.31825 7.86833,6.24487 c 8.1809,6.49301 11.72233,7.25419 21.63791,4.6509 z m 29.19665,-14.24365 c 5.21908,-3.07186 9.9857,-5.96707 10.59246,-6.43387 0.60675,-0.46677 -1.59202,-3.65924 -4.88609,-7.09439 -3.29407,-3.43516 -6.7895,-10.07914 -7.76761,-14.76449 -2.34351,-11.22561 -9.15379,-11.34175 -10.25302,-0.17479 l -0.82133,8.34388 -9.21753,6.88771 -9.21751,6.88772 10.03886,5.95358 c 5.52136,3.27446 10.48966,5.9595 11.04069,5.96674 0.55097,0.008 5.27196,-2.50018 10.49108,-5.57203 z M 230.31678,465.86362 c 4.11955,-4.03585 9.52218,-6.42372 14.53387,-6.42372 h 7.97695 l 2.96408,-7.69323 2.96408,-7.69324 8.48529,-2.7435 c 13.88855,-4.49053 13.81578,-14.71883 -0.24891,-34.99649 -8.96242,-12.92144 -19.09193,-18.78241 -32.4963,-18.80246 -14.9754,-0.0231 -20.33261,3.15128 -27.03032,16.01318 l -5.58196,10.71927 0.007,15.53213 c 0.0122,20.95799 9.2063,42.51182 18.13538,42.51182 2.05273,0 6.68285,-2.8907 10.28918,-6.42376 z m 300.42669,-5.33188 c 2.91935,-6.46558 5.94316,-17.78528 6.71951,-25.1549 l 1.41161,-13.3993 -5.92629,-13.49617 c -3.25945,-7.42291 -8.38259,-15.18167 -11.38473,-17.24173 -7.50229,-5.14805 -22.2379,-4.69447 -33.11269,1.01922 -12.08685,6.35057 -26.25686,26.70319 -26.25686,37.71313 v 8.51342 l 8.52401,2.77639 c 4.86884,1.58587 10.43992,6.07863 12.9919,10.47726 l 4.46787,7.70084 h 6.22176 c 3.42192,0 8.99367,2.89066 12.38165,6.42372 3.38796,3.53306 8.97119,6.42376 12.40715,6.42376 h 6.24723 z M 407.35639,440.79422 c 18.87501,-12.65438 32.14187,-30.03294 38.00106,-49.77834 l 4.11108,-13.85439 -2.97795,-8.8401 -2.97801,-8.84011 2.98556,-5.46524 2.98556,-5.46523 -4.52649,-9.34499 c -2.48953,-5.13976 -5.08707,-17.02152 -5.7723,-26.40389 l -1.24587,-17.05887 -9.3112,-2.30253 -9.31122,-2.30248 -3.62102,-10.69936 c -4.26081,-12.58966 -7.53805,-14.33169 -19.9443,-10.60145 l -9.21422,2.77047 -8.92552,-5.15921 -8.92557,-5.15922 -4.89138,3.50404 c -2.91297,2.08671 -11.61754,3.50401 -21.52048,3.50401 h -16.62908 l -1.37294,4.49661 c -3.51879,11.52457 -8.34951,17.3505 -16.22036,19.56199 l -8.46984,2.37976 v 16.45762 c 0,10.04923 -1.63132,19.54818 -4.1895,24.39463 l -4.18953,7.93705 2.86704,6.1646 2.86704,6.16463 -2.4796,10.83967 c -2.86799,12.53758 -0.60832,24.731 7.69848,41.54198 7.89261,15.97275 17.98891,25.26753 37.44676,34.47399 l 16.36902,7.74497 17.53553,0.13818 17.53558,0.13818 16.31367,-10.93721 z m -41.54938,-9.69881 c -8.70178,-3.42665 -7.22083,-5.05894 4.58985,-5.05894 h 10.4911 v 3.85423 c 0,4.27063 -6.06484,4.75511 -15.08095,1.20471 z m -26.22814,-18.54879 c 0.60086,-1.76653 3.94489,-3.2873 7.4312,-3.37951 3.48631,-0.0923 10.79312,-1.63639 16.23731,-3.43156 l 9.89858,-3.26391 14.4454,4.45133 c 7.94496,2.44825 15.0677,5.43776 15.8283,6.64343 0.76057,1.20567 -13.53824,2.19208 -31.7752,2.19208 h -33.15804 z m 19.67118,-25.41162 -7.21262,-2.63869 v -6.05798 c 0,-3.33186 1.3067,-6.84915 2.90375,-7.81612 l 2.90379,-1.75817 -1.76913,5.46077 -1.76914,5.46075 13.94632,0.0394 c 12.73428,0.0361 23.47186,3.16414 20.42732,5.95114 -3.08249,2.82171 -22.92719,3.73803 -29.43029,1.35893 z m -35.84652,-40.25018 c -14.22386,-5.34893 -15.63391,-8.75762 -7.08653,-17.13137 7.21908,-7.07238 13.41526,-7.89842 28.48736,-3.79764 l 9.81495,2.67037 1.55487,6.06918 c 0.85516,3.33805 0.23264,8.48939 -1.38323,11.44748 l -2.93809,5.3783 -8.43174,-0.13972 c -4.63747,-0.077 -13.64538,-2.10033 -20.01759,-4.4966 z m 23.14197,-9.78672 c -3.81099,-4.49867 -6.24443,-2.74025 -4.03032,2.91237 0.88928,2.27034 2.86276,3.37355 4.38554,2.45154 l 2.76866,-1.67636 z m -25.58797,0.29083 c 0,-1.34257 -1.26877,-2.85535 -2.81949,-3.36173 -1.55071,-0.50642 -2.81948,1.00636 -2.81948,3.36173 0,2.35538 1.26877,3.86816 2.81948,3.36175 1.55072,-0.50639 2.81949,-2.0192 2.81949,-3.36175 z m 72.01354,10.06782 c -3.01088,-7.68677 -1.58046,-13.63856 4.23713,-17.6306 5.99547,-4.11408 24.71119,-5.38942 29.8414,-2.03347 4.72067,3.08803 9.57535,13.85035 7.19254,15.94516 -4.14632,3.64518 -20.02184,7.7833 -29.85995,7.7833 h -9.81912 z m 11.52185,-8.78307 c 0,-2.82644 -1.05396,-5.13899 -2.34215,-5.13899 -2.9481,0 -5.69809,6.68357 -3.59693,8.74202 3.15721,3.09307 5.93908,1.4054 5.93908,-3.60303 z m 24.80436,2.74704 c 0.82996,-1.31559 0.30947,-3.11823 -1.15657,-4.00588 -1.46606,-0.88767 -2.66556,0.18866 -2.66556,2.39194 0,4.5134 1.57383,5.17794 3.82213,1.61394 z m -27.42711,-29.45819 c 7.40621,-4.45109 20.98221,-5.45609 20.98221,-1.55328 0,1.41322 -4.03437,2.5695 -8.9652,2.5695 -4.93087,0 -11.12718,0.65799 -13.76958,1.4622 -2.64242,0.80423 -1.85375,-0.31108 1.75257,-2.47842 z m -79.42135,-1.858 2.9338,-2.87422 10.04894,2.60866 10.04892,2.60865 -12.98274,0.26556 -12.98274,0.26557 z m 240.43926,92.22924 c 3.62937,-12.26975 7.40597,-31.03462 8.39244,-41.69964 l 1.79361,-19.39094 h -14.17962 -14.17963 l -4.72195,25.48083 -4.72194,25.4808 4.51017,8.54449 c 2.48057,4.69945 5.11937,16.6476 5.86403,26.55143 l 1.35387,18.00694 4.64506,-10.33261 c 2.5548,-5.68292 7.61461,-20.37151 11.24396,-32.6413 z m -363.14076,-3.50088 5.022,-11.12247 -4.37488,-23.26905 -4.37489,-23.26903 -3.51162,1.32018 c -1.93141,0.72607 -8.29909,1.32015 -14.15042,1.32015 h -10.6388 l 1.79332,17.34406 c 2.07593,20.07728 7.36029,41.40937 15.35018,61.96594 l 5.62669,14.47653 2.1182,-13.82194 c 1.165,-7.60205 4.37809,-18.827 7.14022,-24.94437 z m 89.52716,2.77103 c -2.98609,-9.47136 -5.42924,-20.6914 -5.42924,-24.9334 v -7.71275 l -4.58983,1.85116 c -2.52445,1.01818 -6.50288,2.39394 -8.84097,3.05732 -4.95079,1.40465 -22.27671,-12.60605 -24.65071,-19.93389 -2.18665,-6.7495 0.86573,-15.25868 5.47356,-15.25868 5.03074,0 4.65852,-4.2295 -1.55243,-17.63933 l -5.19465,-11.21561 -13.90629,1.70219 -13.90631,1.70219 -6.72233,-5.18037 -6.72233,-5.18037 -13.37845,1.55231 -13.37844,1.55228 -6.89893,-4.42852 c -3.7944,-2.43568 -13.32772,-6.59542 -21.18513,-9.24383 l -14.28619,-4.81533 -1.74581,4.39887 c -0.96019,2.41938 -1.79111,11.14736 -1.84648,19.39548 l -0.10071,14.99667 6.19182,4.91692 c 8.10343,6.43498 9.07234,6.2944 19.71575,-2.86077 l 9.04205,-7.77776 5.65307,7.77776 c 7.41923,10.20765 14.33582,9.87445 21.64042,-1.04241 l 5.90164,-8.82017 8.48947,5.14021 8.48951,5.14019 8.92846,-6.67175 8.92849,-6.67173 1.62088,4.1381 c 0.89148,2.27598 1.63385,11.84838 1.64974,21.27207 0.0158,9.42363 0.77564,21.56172 1.68833,26.97351 l 1.6595,9.8396 6.83567,2.41852 c 14.17878,5.01655 18.70685,8.6089 29.03712,23.03651 9.406,13.13677 15.35376,18.57197 17.97957,16.43015 0.46163,-0.37656 -1.60382,-8.43395 -4.58987,-17.90534 z m 172.49533,3.66994 c 6.63611,-8.12173 17.02063,-16.94025 24.91637,-21.15894 l 13.53809,-7.23335 1.83803,-8.1836 c 1.0109,-4.50099 2.14618,-18.38415 2.52282,-30.85152 0.37665,-12.46738 1.66234,-23.2598 2.85713,-23.98322 1.19475,-0.72338 4.57107,1.67234 7.50293,5.32384 6.02226,7.50053 12.07665,8.38922 19.52958,2.86661 7.14398,-5.29364 8.36091,-4.9394 12.95946,3.77254 l 4.06887,7.70847 h 5.69039 c 3.12969,0 9.09743,-3.17975 13.26158,-7.06611 l 7.57122,-7.06611 5.78472,7.06611 c 6.92621,8.4605 15.36472,9.05038 22.96422,1.60527 l 5.57408,-5.46084 -1.77119,-16.93674 c -0.97414,-9.31517 -2.06207,-17.22168 -2.41758,-17.56995 -1.76632,-1.73046 -28.97415,7.09201 -37.16422,12.05095 l -9.35525,5.6644 -11.0376,-1.61683 -11.03756,-1.61682 -9.84044,4.92092 -9.84047,4.92087 -10.82493,-2.69186 -10.82497,-2.69183 -4.76234,6.17819 c -2.61928,3.39798 -6.50269,10.51418 -8.62983,15.81377 l -3.86749,9.6356 h 4.85782 c 5.55112,0 8.95654,7.90431 6.57396,15.25868 -0.8875,2.73943 -5.80745,8.58822 -10.93328,12.99731 l -9.31967,8.01653 -6.63961,-0.79219 -6.63956,-0.79217 -3.4164,12.84747 c -1.879,7.0661 -5.2431,17.85146 -7.47577,23.96743 l -4.05943,11.11996 3.23401,-1.04864 c 1.77871,-0.57674 8.35426,-7.31514 14.61231,-14.9742 z m 66.98202,-27.4154 c 2.12746,-7.129 6.87991,-34.52264 6.87991,-39.65671 v -4.66706 h -10.23357 -10.2336 l -1.70688,16.05933 c -0.93879,8.83262 -2.30991,19.1552 -3.04691,22.93903 l -1.34,6.87968 7.37925,1.0862 c 4.05857,0.59737 8.18488,1.2594 9.16955,1.47116 0.98469,0.21171 2.3942,-1.6385 3.13225,-4.11163 z m -302.10092,0.58933 3.55852,-1.33781 -1.84601,-19.86053 c -1.01532,-10.92328 -1.92999,-20.14958 -2.03263,-20.5029 -0.10269,-0.3533 -4.9076,-0.64237 -10.67771,-0.64237 h -10.49109 v 3.38233 c 0,4.16081 5.0694,32.67078 6.59451,37.08719 1.14063,3.30299 8.59773,4.24126 14.89441,1.87409 z m 42.45011,-21.1453 c -2.22863,-9.10095 -2.25262,-9.1208 -8.61984,-7.14101 l -5.39996,1.67908 7.1694,6.1828 c 8.99783,7.75969 8.92883,7.76696 6.8504,-0.72087 z m 13.32393,-4.16162 -1.65796,-8.65824 5.4733,-10.51059 c 6.35051,-12.19516 6.81784,-15.85431 2.0249,-15.85431 -4.57892,0 -12.28826,16.19688 -12.28826,25.81699 0,6.47286 4.65922,17.86438 7.30668,17.86438 0.43962,0 0.0534,-3.89619 -0.85866,-8.65823 z m 182.35169,-8.08936 c 0.0434,-8.36627 -13.27707,-30.19042 -15.12029,-24.77306 -0.60749,1.78542 1.37484,8.89257 4.40519,15.79367 3.03036,6.9011 5.52777,15.22377 5.54986,18.49485 l 0.0401,5.94741 2.54245,-3.85426 c 1.39837,-2.11983 2.56053,-7.34371 2.58262,-11.60861 z m 15.2741,8.8464 c -0.51689,-1.51921 -2.06106,-2.76221 -3.43145,-2.76221 -1.37042,0 -2.91457,1.243 -3.43147,2.76221 -0.51693,1.51923 1.02723,2.76221 3.43147,2.76221 2.40422,0 3.94837,-1.24298 3.43145,-2.76221 z M 282.69898,310.40925 c 6.38207,0 6.76926,-5.11111 0.98964,-13.06298 -7.20174,-9.90845 -10.07605,-7.31259 -11.83684,10.69025 l -1.36302,13.93546 4.37537,-5.78137 c 2.40646,-3.17975 5.93215,-5.78136 7.83485,-5.78136 z m 182.80031,-10.47223 c -3.03229,-11.46416 -7.63875,-12.20017 -12.01236,-1.91919 l -3.63183,8.53717 8.13654,6.81967 8.13655,6.81968 0.80298,-5.90395 c 0.44162,-3.24718 -0.20274,-9.70622 -1.43188,-14.35338 z m -214.52593,-7.51426 h 4.02135 v -16.80405 -16.80409 l -5.25463,-10.09073 c -2.89009,-5.5499 -6.53601,-15.94405 -8.10212,-23.0981 -4.4133,-20.16051 -21.01774,-35.98278 -37.76161,-35.98278 -10.65184,0 -25.93699,8.96228 -37.79634,22.16152 -13.11327,14.59485 -15.43121,21.91487 -9.66807,30.53184 l 4.28377,6.40502 h 9.58393 9.58394 l 6.8598,8.04998 6.85977,8.04999 8.28194,-4.19574 c 11.21917,-5.68381 12.64899,-5.38453 16.37464,3.42729 4.09692,9.6899 10.32335,11.58945 22.13719,6.75359 l 9.37226,-3.83644 v 3.32491 c 0,5.10848 -8.79882,11.7502 -16.38089,12.36496 -7.16362,0.58083 -20.33798,-5.04042 -20.33798,-8.67782 0,-1.17438 -5.03716,-2.13527 -11.19367,-2.13527 h -11.19365 l -9.64941,-6.42375 c -5.30717,-3.53306 -11.31769,-6.42373 -13.35672,-6.42373 -2.03902,0 -8.03685,-2.87843 -13.32852,-6.3965 l -9.62121,-6.39649 -2.54726,6.56378 c -3.82821,9.86438 -3.06755,23.33891 1.5742,27.88637 2.26684,2.22079 7.96234,4.03778 12.65671,4.03778 h 8.53518 l 6.15992,6.42375 c 8.3674,8.72573 17.03009,8.16676 26.22135,-1.69192 l 7.56619,-8.11564 1.7604,6.87154 c 0.96823,3.77934 4.69059,9.12956 8.27189,11.88942 l 6.51148,5.01788 12.77742,-6.34328 c 7.02757,-3.48879 14.587,-6.34329 16.79875,-6.34329 z m 279.69628,1.92714 c 3.23737,-4.59298 6.21852,-8.78377 6.62475,-9.31295 0.40623,-0.52916 4.41972,2.07246 8.91892,5.78136 4.49918,3.70891 9.22897,6.74346 10.51061,6.74346 1.28165,0 6.23843,-3.36168 11.01508,-7.47044 l 8.68477,-7.47044 9.75266,0.27085 9.75264,0.27082 3.97926,-5.00551 c 4.09805,-5.15489 3.76488,-12.47884 -1.14148,-25.09238 l -2.81596,-7.23944 -7.21029,4.93762 c -3.96565,2.71567 -10.65789,5.75603 -14.87162,6.75635 -4.21373,1.00027 -10.56921,4.05959 -14.12328,6.79842 -3.72754,2.87256 -10.53599,4.97971 -16.08977,4.97971 h -9.62785 l -8.88744,6.42374 c -4.8881,3.53306 -11.93629,6.42373 -15.6626,6.42373 -8.74552,0 -18.43349,-6.68316 -18.43349,-12.71615 v -4.71633 l 9.53858,4.76427 9.53857,4.76425 5.01667,-2.63031 c 2.75916,-1.44665 6.37737,-5.73869 8.0405,-9.53784 1.66312,-3.79919 3.29871,-7.31458 3.6346,-7.81202 0.3359,-0.49748 3.31014,0.94786 6.60947,3.21185 3.29929,2.26397 8.74163,4.11632 12.09409,4.11632 h 6.09534 l 4.36929,-7.45836 4.36927,-7.45835 8.32734,1.32386 8.32737,1.32392 5.54084,-5.42828 c 3.04741,-2.98552 5.54078,-7.23866 5.54078,-9.45138 0,-9.51922 -13.9276,-27.30529 -29.54577,-37.73113 l -10.58522,-7.06611 H 537.7296 c -19.74393,0 -32.21855,11.53916 -38.84262,35.92989 -1.72068,6.33585 -6.01408,17.09837 -9.54086,23.91675 l -6.41232,12.39704 0.77691,15.9104 0.7769,15.91044 6.55694,-0.68584 c 3.60633,-0.37724 10.09769,1.56171 14.42526,4.30878 11.71844,7.4386 18.41397,6.64667 25.19983,-2.98057 z M 268.1086,288.35444 c 0,-2.23763 -1.40154,-3.61069 -3.11454,-3.0513 -4.86322,1.58815 -5.66982,7.11962 -1.03819,7.11962 2.28399,0 4.15273,-1.83075 4.15273,-4.06832 z m 207.5927,0.21401 c 0,-1.34254 -1.26875,-2.85533 -2.81948,-3.36174 -1.5507,-0.5064 -2.81947,1.00638 -2.81947,3.36174 0,2.35539 1.26877,3.86819 2.81947,3.36176 1.55073,-0.50639 2.81948,-2.01918 2.81948,-3.36176 z m -37.63683,-6.93762 c 1.73103,-1.69587 3.10807,-5.45375 3.06007,-8.35086 l -0.0874,-5.26746 -5.1583,6.066 c -7.60171,8.93945 -5.75265,15.32921 2.18548,7.55232 z M 295.91063,256.80964 c 4.47218,-13.19509 9.78329,-25.01585 11.80248,-26.26835 6.25761,-3.88144 10.22822,-2.60157 10.22822,3.29701 0,9.69512 4.68651,1.62356 6.63898,-11.43423 l 1.82497,-12.20509 h -8.01988 c -4.54162,0 -11.00289,2.51373 -14.89787,5.79601 l -6.87802,5.796 -2.16871,17.13218 c -2.58671,20.43399 -3.75908,22.66567 -11.90693,22.66567 -8.28437,0 -9.70504,2.89587 -6.22229,12.68352 l 2.89464,8.13482 4.28661,-0.80319 4.28659,-0.80321 8.13121,-23.99106 z m 165.75883,22.25177 c 3.58851,-3.51561 4.23057,-13.94389 0.97971,-15.91224 -4.27998,-2.59144 -13.56904,1.67876 -13.56904,6.2377 0,11.49998 6.011,16.11924 12.58933,9.67454 z m -66.50718,-19.87866 4.59622,-4.97559 -9.2945,-1.70823 c -13.26237,-2.4375 -15.95311,-0.77744 -9.58842,5.91546 6.67564,7.01992 8.42492,7.11399 14.2867,0.76836 z m 38.1812,-0.16341 c 2.88507,-2.82644 5.24556,-6.87339 5.24556,-8.99323 0,-4.54801 -0.29593,-4.59372 -8.92745,-1.37868 l -6.64614,2.47551 -4.0157,-5.61676 c -2.20865,-3.08919 -4.0157,-8.22675 -4.0157,-11.41676 0,-8.89674 -7.933,-26.31306 -13.25686,-29.1044 -2.61675,-1.372 -7.78593,-2.49454 -11.4871,-2.49454 h -6.72934 v 6.3468 6.34682 l 7.95763,5.76383 7.95764,5.76381 4.10726,13.8414 c 6.60301,22.25218 18.45296,29.59274 29.8102,18.46622 z m -98.72704,-1.28644 c 2.16474,-2.12078 5.7492,-9.96671 7.96541,-17.43539 l 4.02951,-13.57947 9.4711,-8.21471 c 5.64814,-4.89891 9.11619,-10.04785 8.59183,-12.75617 -1.27782,-6.60031 -12.98376,-7.03491 -21.09626,-0.78322 l -6.86125,5.28743 -3.9609,17.01181 c -2.17848,9.35648 -5.13327,18.16038 -6.56621,19.56422 l -2.60536,2.55239 -8.06705,-2.75502 -8.06704,-2.75507 v 3.14884 c 0,1.73186 1.83734,5.71869 4.08289,8.85958 l 4.08289,5.71072 h 7.53228 c 4.14274,0 9.3034,-1.73517 11.46816,-3.85592 z m 144.57695,-9.98537 c 5.26228,-6.75908 17.09671,-38.95298 17.09671,-46.50928 0,-0.7245 -6.1963,-1.31549 -13.76957,-1.31331 -15.30924,0.004 -31.65851,6.59392 -32.92706,13.27101 -0.44741,2.35498 3.28114,9.53703 8.28566,15.96017 5.00455,6.42311 9.88687,15.19182 10.84958,19.48607 0.96273,4.29421 2.1867,7.80766 2.71992,7.80766 0.53323,0 4.0184,-3.91604 7.74476,-8.70232 z M 283.84524,213.61737 c 0,-3.34195 -2.6807,-7.59023 -6.2252,-9.8655 -7.19706,-4.61992 -31.77462,-8.11065 -33.72544,-4.79003 -2.07406,3.53032 12.12741,43.79346 17.4969,49.60616 l 4.83226,5.23109 8.81076,-17.15614 c 4.84591,-9.43586 8.81072,-19.79741 8.81072,-23.02558 z m 80.78152,37.17961 c 4.88624,-4.78701 3.80836,-6.51626 -4.83648,-7.75929 -8.57943,-1.23361 -11.71611,1.14475 -9.37897,7.1115 1.77078,4.52087 9.88464,4.89061 14.21545,0.64779 z m -78.15874,-10.40685 c 0,-4.24098 -4.61789,0.58414 -6.10991,6.38409 l -1.49753,5.82141 3.80373,-4.98774 c 2.09203,-2.74324 3.80371,-5.99122 3.80371,-7.21776 z m 170.27502,2.83626 c -3.51757,-6.43915 -6.14167,-4.50256 -3.7794,2.78916 0.95685,2.95348 2.83816,4.70486 4.18074,3.89194 1.46829,-0.88898 1.30835,-3.55145 -0.40134,-6.6811 z m -67.98677,-10.07513 v -5.31214 l -5.43347,1.68949 -5.43355,1.68951 -5.05756,-4.48409 -5.05761,-4.48408 v 4.10679 c 0,4.88219 9.73887,12.10666 16.32025,12.10666 2.9641,0 4.66194,-1.93463 4.66194,-5.31214 z m 49.44056,-1.75232 c 6.70873,1.71875 6.794,1.29128 1.67644,-8.40394 -3.86776,-7.32746 -11.11899,-12.79602 -16.9673,-12.79602 h -2.91408 l 1.65927,9.63559 c 0.91257,5.2996 2.25172,11.73886 2.9758,14.30957 l 1.31656,4.67392 3.30778,-4.43171 3.30776,-4.43177 z m -78.29107,-0.64403 c 0,-1.41322 -1.18024,-2.56949 -2.62279,-2.56949 -1.44251,0 -2.62277,1.15627 -2.62277,2.56949 0,1.41325 1.18026,2.5695 2.62277,2.5695 1.44255,0 2.62279,-1.15625 2.62279,-2.5695 z m -51.15137,-27.49376 c 9.28355,-4.33708 14.10353,-13.04231 10.4383,-18.85229 -1.07449,-1.70329 -6.1827,-2.55338 -12.04941,-2.00527 l -10.18414,0.95147 v -7.90485 c 0,-9.99394 -4.14315,-14.07211 -14.29413,-14.06996 l -7.99947,0.002 v -9.32502 c 0,-19.13111 -15.16017,-18.10892 -36.86369,2.48555 l -14.28044,13.55069 v 6.73716 c 0,3.70543 1.85467,8.55414 4.1215,10.77492 l 4.1215,4.03777 h 18.25633 c 19.81147,0 32.30827,3.89015 40.13225,12.49283 6.02282,6.62227 6.74199,6.66578 18.6014,1.12531 z m 140.49084,-3.86604 7.82101,-5.66484 23.41711,-1.40126 c 24.04117,-1.43859 27.14193,-2.66846 29.9737,-11.88862 l 1.64264,-5.34834 -5.96764,-8.67553 c -3.28222,-4.77151 -11.14315,-12.54276 -17.46871,-17.26942 l -11.50107,-8.59395 -8.13979,0.7771 -8.13985,0.7771 -0.7992,10.77365 -0.79919,10.7736 -9.69191,0.78911 -9.69191,0.7891 -1.31138,8.99323 -1.3114,8.99324 -10.49109,1.28474 -10.49112,1.28476 -0.78227,5.36382 c -0.85368,5.85361 3.10103,10.08006 11.27339,12.04807 10.40305,2.50516 14.76688,1.76572 22.45868,-3.80556 z m -86.06723,-6.81326 11.74819,3.07832 11.5049,-2.60674 11.50491,-2.60673 -12.58547,-5.71623 c -16.80326,-7.63194 -24.94274,-7.46628 -42.31635,0.86118 l -14.60172,6.99883 v 5.05831 5.05833 l 11.49869,-6.6018 11.49869,-6.60179 z m 64.91991,-24.01415 c 0,-1.52243 -2.51032,-1.94919 -5.90122,-1.00323 -3.2457,0.90546 -9.14695,2.34112 -13.11389,3.19036 -6.62776,1.41889 -9.7557,7.83179 -5.73928,11.76662 2.08111,2.03883 24.75439,-10.74185 24.75439,-13.95375 z m -94.41992,8.1636 v -5.20323 l -7.86833,-1.54169 -7.86833,-1.54171 v -8.50135 -8.50139 l -7.21262,-0.81305 -7.21263,-0.81303 0.54557,-7.43664 c 0.30003,-4.09017 -0.70152,-9.71942 -2.22564,-12.50945 l -2.7712,-5.07282 -10.44915,1.37306 c -5.74704,0.75518 -11.03745,1.94938 -11.75645,2.65377 -4.22224,4.13645 22.94389,34.53131 40.93992,45.80568 13.87,8.68944 15.87886,8.95536 15.87886,2.10185 z m 57.70107,-2.07701 c 0,-3.34567 -3.11788,-5.57074 -5.65415,-4.03509 -2.71251,1.64239 -0.37361,6.17634 3.18618,6.17634 1.35738,0 2.46797,-0.96357 2.46797,-2.14125 z m -39.34163,-5.28867 c 0,-3.06188 -2.46503,-5.46657 -6.66146,-6.49841 l -6.6615,-1.63798 1.68573,-8.80325 1.68577,-8.80328 -6.77967,-1.66703 -6.77965,-1.66701 0.60859,-11.93813 0.60859,-11.93811 -9.85651,-0.79872 -9.85645,-0.79871 -1.48008,3.77866 c -3.89868,9.95333 28.49772,51.90922 42.83095,55.46951 0.36062,0.0897 0.65569,-2.02432 0.65569,-4.69754 z m 45.89857,-8.22408 c 30.90686,-4.19313 33.25709,-4.79389 32.11259,-8.20861 -1.62803,-4.85736 -17.91151,-5.08087 -44.36245,-0.60892 -13.31753,2.25155 -24.71202,4.58191 -25.32107,5.17859 -0.60904,0.59665 -0.35675,3.00115 0.56068,5.34333 l 1.66804,4.2585 7.17999,-1.55812 c 3.94901,-0.85697 16.62201,-2.83911 28.16222,-4.40477 z m 48.52136,-10.04097 c 0,-1.41319 -0.52047,-2.56948 -1.15661,-2.56948 -0.63611,0 -1.88603,1.15629 -2.77754,2.56948 -0.89154,1.41324 -0.37108,2.56952 1.15659,2.56952 1.52765,0 2.77756,-1.15628 2.77756,-2.56952 z m -66.88077,-6.45879 c 12.98274,-2.08979 33.96917,-3.80401 46.63655,-3.80938 l 23.03162,-0.009 1.5531,-3.96508 c 0.8542,-2.18077 0.72131,-4.78239 -0.29536,-5.78135 -5.57851,-5.48158 -90.44714,-1.95795 -100.27455,4.16328 -3.03017,1.88743 0.15738,13.32404 3.69205,13.24677 1.12837,-0.0247 12.67385,-1.75468 25.65659,-3.84446 z m -12.31544,-22.08501 c 9.65854,-1.59657 35.85483,-3.05403 58.214,-3.23885 l 40.65304,-0.336 v -4.88043 -4.88042 l -9.49294,-3.21977 C 434.58316,98.521785 377.6,99.31164 346.3916,107.5294 l -9.58002,2.52261 2.83811,9.05951 2.83811,9.05949 3.60621,-1.35571 c 1.98341,-0.74565 11.50867,-2.662 21.16714,-4.25853 z m -46.73197,-19.52712 c 2.61391,-2.83508 -36.73571,1.5638 -43.87258,4.9045 -3.98108,1.86354 -7.6031,5.89843 -8.05126,8.96913 l -0.81461,5.58171 25.69605,-8.99755 c 14.13286,-4.94865 26.30193,-9.65466 27.0424,-10.45779 z M 56.242506,560.71837 c -7.185848,-10.73943 -7.1947,-11.34617 -0.165235,-11.34617 5.366023,0 47.267749,-24.19376 48.858189,-28.21035 0.41265,-1.04216 2.27473,-3.93729 4.13794,-6.43363 l 3.3877,-4.53882 5.69742,9.46029 c 7.08467,11.76367 7.08652,11.73604 -0.78883,11.73604 -8.69327,0 -45.752845,22.65266 -51.068175,31.21544 l -4.234617,6.82181 z M 680.2283,548.49342 c -3.65533,-4.31495 -1.25043,-6.8297 6.53132,-6.8297 h 6.00097 l 1.69024,-8.82651 c 3.18262,-16.62035 -3.11939,-18.16914 -27.66177,-6.79824 l -16.18913,7.50072 -7.70671,-2.63199 c -14.35718,-4.90327 -16.56095,-17.26291 -6.17406,-34.62675 7.09931,-11.86795 10.12633,-13.11791 17.86279,-7.37614 l 4.85945,3.60655 -9.38289,1.72446 -9.38288,1.72449 -1.67509,8.74765 c -1.77802,9.28503 1.92161,16.39979 8.52777,16.39979 2.04623,0 10.77882,-3.59886 19.40573,-7.99746 l 15.68527,-7.99747 8.03292,3.25974 c 14.08409,5.71531 15.52177,18.22481 4.04551,35.20072 -6.09658,9.01812 -9.90175,10.31202 -14.46944,4.92014 z M 30.736025,515.91823 28.996515,508.15919 44.783783,483.2056 c 8.682994,-13.72445 15.34971,-25.38223 14.8149,-25.90618 -2.237791,-2.19233 -28.314807,8.24998 -35.600446,14.25591 -8.925064,7.35737 -8.52551,7.47589 -12.361104,-3.66679 l -2.8409181,-8.25309 7.1159191,1.3943 7.115898,1.39426 28.145049,-10.4853 c 15.479775,-5.76688 28.724058,-10.48526 29.431737,-10.48526 3.172129,0 0.111535,5.88058 -17.237009,33.11904 -10.188011,15.99593 -18.022247,29.57476 -17.409385,30.17515 0.612845,0.6004 10.895765,-2.65934 22.850924,-7.24386 l 21.736669,-8.3355 1.224188,-4.58619 c 1.561789,-5.85097 4.861744,-5.89603 6.565864,-0.0897 0.725859,2.47316 2.242831,6.70596 3.371081,9.40626 l 2.05132,4.90961 -5.970821,-1.52969 c -3.694747,-0.94654 -15.863417,2.04979 -31.921962,7.86033 l -25.951121,9.39002 -1.481883,4.57412 c -2.247134,6.93628 -5.752809,5.48562 -7.696658,-3.18488 z M 714.92365,485.65954 c -3.84386,-6.02998 -50.14016,-21.59088 -57.98852,-19.49083 -7.13833,1.91005 -7.45066,-0.94913 -1.51595,-13.87746 l 4.38531,-9.55309 0.97162,5.25007 0.97158,5.25005 24.78272,8.53463 c 15.15432,5.21882 27.84833,8.09385 32.67334,7.40008 9.06463,-1.30339 8.83091,-1.84117 4.85271,11.16712 -3.40335,11.12861 -4.88105,11.98927 -9.13281,5.31943 z m 11.40557,-38.54931 -7.3221,-0.87986 7.97779,-8.90163 c 4.3878,-4.89588 7.97781,-9.93565 7.97781,-11.19952 0,-2.32697 -15.36342,-5.91693 -42.34786,-9.8953 l -14.8087,-2.18329 -6.97841,3.58206 -6.97842,3.58213 1.6896,-9.79429 c 0.9293,-5.38684 2.22415,-11.71868 2.87744,-14.07077 l 1.18781,-4.27653 5.88031,5.76082 5.8803,5.76085 20.8977,3.12785 c 11.49378,1.72031 24.14343,3.74587 28.11035,4.50119 l 7.21265,1.37337 v -6.28138 c 0,-3.45473 -2.44617,-9.32799 -5.43591,-13.05163 l -5.43592,-6.77025 h 9.37009 c 5.15352,0 9.37006,0.76064 9.37006,1.69035 0,2.30923 -10.96931,58.67858 -11.43242,58.74922 -0.2035,0.031 -3.665,-0.33951 -7.69217,-0.82339 z M 1.0426071,381.54707 -4.6601207,375.60012 v -13.32425 -13.32424 h 8.3255169 8.3254968 l -5.7027276,5.94698 c -8.8609565,9.24044 -5.83780727,24.88695 4.8085516,24.88695 h 5.081169 l 9.916336,-14.68091 c 5.453972,-8.0745 12.996057,-16.37438 16.760206,-18.44423 l 6.843872,-3.76334 8.114291,3.29279 8.114292,3.29273 2.958098,8.78105 c 1.662067,4.9337 2.185546,13.26081 1.194844,19.00568 l -1.763289,10.22472 H 60.44559 52.574647 l 6.790091,-7.90563 c 8.045187,-9.36695 8.380674,-12.7261 2.037424,-20.40056 l -4.752667,-5.75007 -5.608208,1.74384 c -3.084523,0.9591 -8.218252,6.02014 -11.408268,11.24676 -3.190038,5.22661 -8.17537,12.10455 -11.078528,15.2843 -7.088399,7.76375 -19.9826027,7.68613 -27.5118839,-0.16553 z M 672.0161,363.63719 v -11.22603 l 7.21261,1.02922 c 3.96696,0.56605 10.45834,-0.18367 14.42528,-1.66619 l 7.21263,-2.69536 v -11.70692 -11.70699 l -4.58985,-1.79655 c -2.52443,-0.98809 -9.60592,-1.70811 -15.73666,-1.60006 l -11.14681,0.19631 v -8.43005 -8.43005 l 19.01514,8.53579 c 10.45833,4.69466 27.6113,11.21895 38.11772,14.49836 l 19.10259,5.96262 -0.74477,3.7888 c -0.41207,2.09622 -11.38688,7.9501 -24.56656,13.10362 -13.10197,5.12313 -29.32968,12.47709 -36.06155,16.3421 l -12.23977,7.02739 z m 46.8186,-22.64539 c 10.50811,-3.58872 10.40983,-5.66302 -0.45054,-9.51042 -12.36999,-4.38217 -14.89476,-3.88892 -14.89476,2.9098 0,9.93397 2.47178,10.99721 15.3453,6.60062 z M -4.6455052,317.5346 c 0.00788,-1.79913 1.2265541,-7.54605 2.7077866,-12.77093 l 2.69315143,-9.49979 8.73354867,5.04822 c 4.8034565,2.77651 18.2834365,6.41188 29.9555505,8.07855 l 21.222001,3.03029 5.091161,-4.51386 c 6.133953,-5.43835 8.558656,-15.96381 5.495692,-23.85636 l -2.242334,-5.7779 -13.541177,-3.93959 C 35.030833,267.38679 17.865131,265.73799 11.4443,269.10451 l -5.6133238,2.94313 0.0358,-4.58702 c 0.019671,-2.52286 0.7576413,-7.22673 1.6398771,-10.45304 l 1.6040778,-5.866 6.3705129,4.08931 c 3.503786,2.24915 15.221457,5.74841 26.039247,7.77614 30.226633,5.66582 36.05435,10.21141 35.781239,27.90923 -0.225603,14.62003 -6.754782,26.66852 -15.635271,28.85208 -3.858628,0.94879 -17.526561,-0.24897 -30.37318,-2.66155 l -23.3574669,-4.38662 -6.2979866,4.04276 -6.2979668,4.04277 z M 662.12923,282.1448 c -1.4073,-3.53303 -3.41572,-10.28305 -4.4632,-15.00002 l -1.90447,-8.57631 6.16018,3.82604 6.16019,3.82602 14.33045,-3.68855 c 28.723,-7.39307 42.05847,-11.62332 42.02342,-13.33054 -0.0211,-0.95963 -0.72986,-4.28038 -1.5781,-7.37939 l -1.54233,-5.63461 -7.86081,-1.69143 c -8.62797,-1.85654 -7.19751,-5.03093 3.42403,-7.59853 l 6.83227,-1.65161 7.86803,29.09184 7.86802,29.09185 -5.52056,1.67098 c -3.03631,0.91907 -7.08154,1.78628 -8.98942,1.92712 l -3.46884,0.25617 5.08893,-6.33808 c 4.47456,-5.57293 5.37596,-19.35691 1.2659,-19.35691 -2.67364,0 -34.04013,8.12328 -46.15668,11.95361 l -12.64342,3.99692 -2.16745,5.51458 -2.1674,5.51459 z M 82.213593,246.7615 c -1.556358,-2.84899 -13.572018,-9.73511 -27.215994,-15.59732 l -24.429328,-10.49623 -5.924693,1.51786 -5.924695,1.51789 4.442694,-11.249 c 6.037448,-15.287 15.725857,-27.59712 23.157887,-29.42456 3.461198,-0.85106 9.708297,0.28559 14.26933,2.59627 11.364617,5.75745 12.983626,14.27009 6.685913,35.154 l -1.253779,4.15772 7.951005,3.2265 c 4.37304,1.77457 11.4055,2.54964 15.627682,1.72234 l 7.676675,-1.50413 -4.001524,9.53692 c -5.441847,12.96961 -7.783623,14.84149 -11.061173,8.84174 z M 63.53204,216.83286 c 0,-2.00424 0.696269,-5.42166 1.547249,-7.59423 2.144137,-5.47404 -10.270549,-17.02614 -18.297462,-17.02614 h -6.497568 l -5.529015,7.60706 -5.528995,7.607 12.563045,6.40556 c 14.280798,7.28141 21.742746,8.31124 21.742746,3.00075 z m 577.39534,7.15124 -5.78052,-11.65631 7.56027,1.62678 7.56024,1.62677 23.92018,-10.7351 c 14.64435,-6.57224 24.52362,-12.59784 25.47636,-15.53866 2.37148,-7.32011 5.48243,-5.79163 9.8348,4.83204 l 3.94762,9.63561 -6.94553,0.73013 c -10.72746,1.12771 -55.46692,21.44467 -55.46692,25.18849 0,7.79432 -4.73679,5.11824 -10.1065,-5.70975 z M 110.03762,189.85104 C 108.16713,182.84365 67.169253,153.67009 59.192167,153.67009 H 52.68376 l 5.840307,-8.35088 c 3.212166,-4.59296 9.425291,-12.10872 13.806986,-16.70169 l 7.96668,-8.35085 h 6.947324 c 8.932502,0 16.026953,7.75463 16.932713,18.50841 l 0.71352,8.47126 22.37759,-0.22511 22.37759,-0.2251 -4.01722,6.00645 -4.0172,6.00649 H 117.71263 93.813199 l 6.715641,6.57919 c 3.69362,3.61858 11.00492,8.02387 16.24739,9.78952 l 9.53176,3.21029 -5.81591,8.15257 c -6.76307,9.48032 -8.64819,10.07725 -10.45446,3.3104 z M 97.628158,145.03043 c 0,-12.10601 -16.095348,-18.9063 -24.729032,-10.44802 -6.085384,5.96176 -5.239952,7.98375 6.95751,16.64002 l 11.079017,7.86254 3.34624,-4.48329 c 1.840451,-2.46581 3.346265,-6.77287 3.346265,-9.57125 z m 530.209092,40.11598 c 1.43455,-5.29958 6.10472,-20.48046 10.37813,-33.73526 4.27343,-13.25479 7.18975,-24.66794 6.48075,-25.36252 -2.34196,-2.29441 -35.50985,22.5773 -39.1267,29.34008 l -3.54584,6.62998 -5.83534,-8.02854 -5.8354,-8.02855 h 6.38314 c 3.74366,0 15.44575,-6.6406 28.29978,-16.05933 l 21.91666,-16.05935 1.4855,-6.34995 1.48549,-6.34992 4.48942,6.27928 c 5.91068,8.26729 5.76136,9.97035 -3.37896,38.53927 -4.29537,13.4256 -7.82295,25.92939 -7.83905,27.78618 -0.0479,5.49357 31.37174,-17.61619 33.09487,-24.34212 1.90778,-7.44674 2.8247,-7.47045 8.98831,-0.23221 6.27785,7.37246 6.31743,9.63562 0.16839,9.63562 -2.71095,0 -16.50965,8.0939 -30.66373,17.98647 -14.15408,9.89255 -26.59398,17.98644 -27.64425,17.98644 -1.05026,0 -0.73583,-4.33601 0.69871,-9.63559 z m -473.33714,-51.4153 c -1.9165,-9.15174 -34.72212,-44.298373 -41.34776,-44.298373 -8.5661,0 -5.71554,-4.323 13.57733,-20.590517 l 18.6104,-15.692099 3.59977,4.651452 c 5.36551,6.933067 4.52387,9.249023 -2.71439,7.469231 l -6.48095,-1.593574 -8.10384,7.09639 -8.10382,7.096391 9.66943,11.064355 9.66945,11.06435 6.22675,-5.730894 c 3.4247,-3.151998 6.22675,-8.636351 6.22675,-12.187455 v -6.45657 l 8.05975,7.546838 8.05975,7.546836 -6.12462,1.284749 c -3.36855,0.706616 -8.86763,3.197885 -12.22016,5.53616 l -6.09552,4.2514 2.62331,4.74182 c 1.44281,2.608 6.09391,7.97674 10.33576,11.93052 l 7.71247,7.18871 8.24989,-9.20525 c 4.53745,-5.06286 8.24991,-11.65673 8.24991,-14.65303 v -5.447807 l 5.29976,4.698777 5.2998,4.6988 -7.26688,7.50246 c -3.99677,4.12636 -12.72785,12.00799 -19.40236,17.51474 l -12.13554,10.01231 z m 412.26673,-8.34085 c -5.23488,-2.70997 -12.61143,-8.52895 -16.39235,-12.93105 l -6.87441,-8.00382 V 94.120511 c 0,-21.471418 14.30379,-37.695384 35.27572,-40.011204 l 11.19161,-1.235843 9.13471,4.24664 c 5.02409,2.335633 12.82972,7.981501 17.34587,12.546327 l 8.21119,8.299704 -6.65813,7.660421 -6.65816,7.660423 1.39648,-10.277991 1.39654,-10.277972 -9.05338,-5.781363 c -4.97937,-3.179748 -12.72362,-5.781361 -17.20951,-5.781361 -17.16034,0 -34.15052,17.037037 -34.66331,34.758855 l -0.25782,8.912123 9.04367,9.14654 9.04369,9.14652 5.90124,-6.71511 c 3.2457,-3.6933 5.90126,-9.02203 5.90126,-11.84157 v -5.12647 l 9.17969,6.85946 c 10.17751,7.60508 11.63638,11.38851 4.39133,11.38851 -2.63358,0 -7.56031,2.89069 -10.94827,6.42376 -7.26569,7.57684 -6.60072,7.53172 -18.69766,1.26935 z M 204.56945,92.222898 205.63461,85.113001 193.65024,61.735443 C 187.05883,48.87779 179.72716,37.294986 177.35766,35.995877 l -4.3082,-2.362015 6.14873,-4.219238 c 3.38181,-2.320601 7.22613,-4.219256 8.54299,-4.219256 1.31681,0 12.32107,8.829217 24.4539,19.620476 l 22.05972,19.620459 -1.59311,-24.117085 c -0.87622,-13.264392 -2.08206,-26.518049 -2.67966,-29.452561 l -1.08657,-5.3354803 9.45226,-4.4159012 9.45228,-4.4159008 -1.61283,5.8971435 -1.61282,5.8971364 12.22017,25.0525624 c 6.72108,13.778911 13.71701,25.052567 15.54647,25.052567 7.721,0 5.22508,4.606937 -5.17865,9.558789 l -11.1786,5.320646 1.05481,-7.040948 1.05485,-7.040966 -9.45064,-18.385213 C 243.4449,30.89922 238.66011,22.625873 238.00989,22.625873 c -0.65023,0 -0.46158,13.586205 0.41923,30.191549 l 1.6015,30.191566 -6.28076,-5.138977 C 230.29542,75.04356 220.54512,66.599612 212.0825,59.105695 203.61989,51.611777 196.15368,46.011623 195.49094,46.660908 c -0.66276,0.649286 2.89037,9.864333 7.8958,20.477873 l 9.10082,19.297354 6.17261,0.93801 6.17262,0.93801 -10.66425,5.510311 -10.66424,5.51031 z m 299.1412,-8.883681 -9.62748,-5.609115 7.15322,-4.021998 c 8.34008,-4.689319 29.1498,-41.895005 29.1498,-52.116953 0,-8.067473 -0.0764,-8.060621 12.00545,-1.076998 l 9.68248,5.596763 -5.51397,1.998315 c -6.51042,2.359451 -29.28783,45.015514 -29.28783,54.848414 0,7.676494 -0.99265,7.70444 -13.56167,0.381572 z M 450.39153,61.993274 c -2.88506,-0.631615 -11.6878,-2.912382 -19.56167,-5.068367 l -14.31613,-3.919975 5.61894,-4.269171 5.61894,-4.269189 6.96924,-23.944154 c 4.01517,-13.7948275 6.29085,-26.5922769 5.36874,-30.1915599 -1.89262,-7.3875991 -1.39335,-7.4506721 17.03853,-2.1527301 22.66477,6.5146322 30.5869,11.0971134 35.02515,20.2600325 5.70596,11.7801455 5.18193,21.7212765 -1.82977,34.7112455 -8.61957,15.9687 -22.70456,22.615395 -39.93197,18.843868 z M 473.28018,48.998466 C 493.05081,30.576042 487.81384,3.0231445 462.998,-5.0983205 l -8.37573,-2.7411175 -3.98209,12.0207819 c -2.19014,6.6114401 -6.30887,20.3907331 -9.15273,30.6206611 l -5.17061,18.599855 8.3487,2.41819 c 11.26193,3.261998 20.03858,1.169686 28.61464,-6.821584 z m -186.81216,8.796478 c 0,-0.44212 2.78303,-6.51255 6.18451,-13.489844 3.40149,-6.977295 8.3035,-19.045494 10.89339,-26.818216 2.58988,-7.7727204 6.76343,-18.8567078 9.27453,-24.6310943 l 4.56565,-10.4988757 18.48659,-2.99097 c 10.1676,-1.645028 20.32465,-2.990967 22.5712,-2.990967 h 4.08464 v 7.854173 7.8541931 l -5.82915,-3.9999531 c -3.20599,-2.199961 -10.28748,-3.99993 -15.73666,-3.99993 h -9.90751 v 3.495604 c 0,1.922592 0.7622,8.9432661 1.69372,15.6015262 l 1.69369,12.1058948 6.83033,-1.669485 c 3.75667,-0.91822 8.69362,-3.31381 10.97099,-5.3235468 6.09158,-5.3756644 7.01253,-4.6642101 8.07369,6.2373928 l 0.96288,9.891433 -8.47147,-3.467698 c -4.65931,-1.907233 -10.27975,-3.467697 -12.48987,-3.467697 h -4.0184 v 7.387297 c 0,4.063017 0.76035,11.111828 1.68967,15.664034 l 1.68967,8.276732 8.05086,-1.577464 c 4.42798,-0.867589 11.33925,-4.663921 15.35834,-8.436279 l 7.30755,-6.858813 v 8.189221 c 0,4.504066 -0.29507,8.265381 -0.65569,8.3585 -0.36063,0.09308 -10.72703,1.570161 -23.03643,3.282368 l -22.38072,3.11309 1.07345,-16.515809 1.07345,-16.515826 -8.85465,1.705331 c -12.10786,2.33187 -15.92037,8.164492 -14.92683,22.836027 l 0.82664,12.20669 -8.52402,-0.0015 c -4.68823,-8.45e-4 -8.52404,-0.36332 -8.52404,-0.805439 z m 32.5702,-39.298221 c 4.46333,-1.677945 5.35977,-13.8370291 1.68464,-22.8505391 l -2.09533,-5.1389948 -4.27724,13.9562081 c -2.35249,7.6759248 -4.27728,14.3244908 -4.27728,14.7746008 0,1.315507 4.47934,0.945139 8.96521,-0.741275 z"
       id="path7362" />
  </g>
</svg>
