<svg
   width="128"
   height="192"
   viewBox="0 0 128 192"
   fill="none"
   stroke="#1f1f1f"
   stroke-width="2"
   stroke-linecap="round"
   stroke-linejoin="round"
   inkscape:version="1.4 (86a8ad7, 2024-10-11)"
   xmlns:inkscape="http://www.inkscape.org/namespaces/inkscape"
   xmlns:sodipodi="http://sodipodi.sourceforge.net/DTD/sodipodi-0.dtd"
   xmlns="http://www.w3.org/2000/svg"
   xmlns:svg="http://www.w3.org/2000/svg">

  <!-- Pozzanghere -->
  <path
     d="m 21.423027,156.17076 c 0,0 -7.2652,1.61449 -5.774903,2.85641 1.490298,1.24191 -0.186287,1.55239 -0.186287,1.55239 0,0 -6.8926261,1.4282 -0.186287,2.04916 6.706339,0.62096 9.252264,3.29107 13.971539,2.35964 4.719276,-0.93144 5.402329,-2.54593 8.44502,-0.37258 3.042691,2.17335 4.905562,-4.71927 10.432083,-2.48383 5.52652,2.23545 8.879689,-0.24838 3.974126,-1.11772 -4.905562,-0.86934 5.278137,-1.67658 3.974127,-2.04916 -1.30401,-0.37257 -5.96119,-0.99353 -5.96119,-0.99353 v 0"
     fill="#44A1A0" stroke-width="1.2"/>
  <path
     d="m 78.397477,157.97412 c 0,0 -5.650711,0.55887 -4.160414,1.80079 1.490298,1.24191 4.843467,1.55239 4.843467,1.55239 0,0 -14.716688,0.80724 -8.010349,1.4282 6.706339,0.62096 12.108668,2.91849 16.827943,1.98706 4.719276,-0.93144 5.961191,-1.67658 9.003882,0.49677 3.042691,2.17335 1.874422,-2.32204 7.699864,-1.05563 7.14101,1.55239 0.58162,-2.31299 2.79432,-1.98706 6.01333,0.88575 8.19684,-5.25987 -2.91851,-3.91203"
     fill="#44A1A0" stroke-width="1.2"/>

     <!-- Personaggio -->
  <path
     d="m 26.496646,8.5473049 c 0,0 29.902937,-0.9557805 31.625027,6.9599491 0.986708,4.535482 16.095313,11.891302 19.658801,14.286209 3.987888,2.680133 7.57544,10.915179 5.738905,15.751462 -3.462382,9.117745 7.448366,7.936783 -5.372591,19.414592 -12.820957,11.477809 -5.738905,21.368263 -0.976835,20.391428 4.76207,-0.976835 8.180992,-8.058888 8.180992,-8.058888 0,0 9.381063,-14.824822 8.669409,-2.319982 -0.854727,15.018835 6.803166,0.644537 7.936776,-4.151549 1.58736,-6.715739 15.28894,-7.367718 5.4947,8.303097 -3.0526,4.884174 -4.02944,26.374537 -8.669406,12.454644 -4.639965,-13.919897 -9.768348,18.681973 -13.553583,6.837844 -3.785235,-11.844122 -10.134662,14.530419 -7.326262,24.176659 3.924468,13.47968 2.8084,17.21672 9.646244,21.73458 6.837844,4.51786 15.162567,-0.3929 16.117777,10.50097 0.45011,5.13335 3.66313,7.93678 -13.919898,5.7389 -17.583027,-2.19787 -8.180992,-3.0526 -12.698854,-10.98938 -3.187746,-5.6001 -8.4252,-10.37887 -12.576748,-7.93679 -4.151548,2.44209 -13.18727,6.22733 -14.042001,11.35571 -0.85473,5.12838 0.854731,6.59363 -18.315653,7.69257 -19.170384,1.09894 -4.517862,-18.07144 -1.221044,-13.30937 3.296818,4.76207 15.507253,-1.83157 15.018836,-4.02945 -0.488418,-2.19787 7.370495,-35.62658 2.197878,-31.74712 -7.814678,5.861 0.976835,-12.698861 -4.273652,-10.37888 -5.250487,2.31998 -10.012558,2.5642 -14.530418,8.79152 -7.617072,10.49921 -7.204158,-3.78524 -7.814679,-1.95367 -1.503917,4.51175 -10.509154,5.31929 -11.111497,-0.85473 -0.488417,-5.00628 9.768348,-13.553589 18.193549,-10.256771 8.425201,3.296821 27.351376,-8.058888 24.054558,-15.14094 -3.296817,-7.082053 5.738905,-9.279931 0.366314,-11.966227 -5.372592,-2.686296 -19.564462,-21.316799 -5.128383,-36.99762 7.427056,-8.06745 4.65594,-11.504759 -6.105218,-12.33254 -7.936783,-0.610522 9.239388,-8.256671 -4.884174,-7.204157 -6.801891,0.506889 -10.37887,-4.7620701 -10.37887,-4.7620701 z"
     fill="#78CDD7"/>

   <!-- Occhi -->
  <ellipse rx="3" ry="5" cx="67" cy="38" transform="rotate(6)" stroke="#44A1A0" stroke-width="1" fill="#c1cd87"/>
  <ellipse
     rx="3" ry="5" cx="80" cy="38" transform="rotate(6)" stroke="#44A1A0" stroke-width="1" fill="#c1cd87"/>

   <!-- Gocce -->
   <path
      stroke-width="0.5"
      d="m 45.126645,115.41616 c -3.119387,4.32192 -0.490189,4.44659 -0.490189,4.44659 0,0 2.718322,0.45713 0.490189,-4.44659 z"
      fill="#78CDD7"/>
   <path
   fill="#44a1a0" stroke-width="0.5" d="m 45.126353,115.42912 c 0,0 -2.954628,4.13399 -0.397261,4.45677"/>
   <path
      transform="translate(40.97631,-11.551417)" stroke-width="0.5" d="m 45.433176,115.48243 c -3.686544,3.84954 -1.099778,4.33623 -1.099778,4.33623 0,0 2.629105,0.82828 1.099778,-4.33623 z" fill="#78cdd7"/>
   <path
     fill="#44a1a0" stroke-width="0.5" d="m 86.407406,103.9438 c 0,0 -3.497402,3.68618 -1.009148,4.35916" />
   <path
      transform="rotate(-25.845281,-3.1901284,-45.861139)" stroke-width="0.5" d="m 45.433176,115.48243 c -3.686544,3.84954 -1.099778,4.33623 -1.099778,4.33623 0,0 2.629105,0.82828 1.099778,-4.33623 z" fill="#78cdd7"/>
   <path
     fill="#44a1a0" stroke-width="0.5" d="m 110.90981,78.159418 c 0,0 -1.5406,4.842129 0.99215,4.36306"/>
   <path
      transform="rotate(8.1133849,696.90586,21.476734)" inkscape:transform-center-x="15.169215" inkscape:transform-center-y="2.1772168" stroke-width="0.5" d="m 45.433176,115.48243 c -3.686544,3.84954 -1.099778,4.33623 -1.099778,4.33623 0,0 2.629105,0.82828 1.099778,-4.33623 z" fill="#78cdd7"/>
   <path
     fill="#44a1a0" stroke-width="0.5" d="m 38.682811,22.609885 c 0,0 -3.982624,3.155688 -1.614252,4.17311" inkscape:transform-center-x="15.214939" inkscape:transform-center-y="2.150489" />
   <path
     transform="rotate(-5.369839,-1059.501,282.11731)" stroke-width="0.5"  d="m 45.433176,115.48243 c -3.686544,3.84954 -1.099778,4.33623 -1.099778,4.33623 0,0 2.629105,0.82828 1.099778,-4.33623 z" fill="#78cdd7"/>
   <path
     fill="#44a1a0" stroke-width="0.5" d="m 24.988735,12.822242 c 0,0 -3.137074,3.997304 -0.596759,4.434471"/>

   <!-- Ombra Testa -->
  <path
     fill="#44a1a0" stroke-width="0" d="m 51.897358,29.073756 c -3.300644,2.106795 -10.333645,9.609332 -9.855803,17.354206 0.05973,0.968109 -0.109486,4.967722 0.24386,6.011785 0.353347,1.044063 0.831998,3.899708 1.392939,4.963448 0.56094,1.06374 1.204172,2.123251 1.886683,3.150392 0.68251,1.027141 1.4043,2.021914 2.122356,2.95618 0.718056,0.934266 2.485776,3.563687 3.153354,4.348802 0.667578,0.785114 -3.684847,-7.206147 -4.079536,-11.141307 -0.578065,-5.763463 -0.121886,-10.853502 2.615247,-17.179218 1.280127,-2.958469 2.380445,-7.444549 2.380445,-7.444549 z"/>

   <!-- Ombra Corpo -->
   <path
     fill="#44a1a0" stroke-width="0" d="M 45.883631,101.20221 C 40.91787,98.868302 57.09232,95.523542 56.560017,96.844752 51.023194,110.5875 53.828849,114.2125 54.822001,116.39744 c 1.986305,4.36987 -2.482881,12.01714 -3.972609,17.28084 -1.489728,5.26371 3.376718,4.07192 -3.972608,9.73289 -3.674663,2.83049 5.696669,-31.11741 2.474361,-32.11402 -1.611154,-0.49831 -3.440919,3.04513 -4.076092,0.70011 -0.635173,-2.34502 1.344376,-10.44922 0.608578,-10.79505"/>

   <!-- Outline Personaggio -->
   <path
     d="m 26.496646,8.5473049 c 0,0 29.902937,-0.9557805 31.625027,6.9599491 0.986708,4.535482 16.095313,11.891302 19.658801,14.286209 3.987888,2.680133 7.57544,10.915179 5.738905,15.751462 -3.462382,9.117745 7.448366,7.936783 -5.372591,19.414592 -12.820957,11.477809 -5.738905,21.368263 -0.976835,20.391428 4.76207,-0.976835 8.180992,-8.058888 8.180992,-8.058888 0,0 9.381063,-14.824822 8.669409,-2.319982 -0.854727,15.018835 6.803166,0.644537 7.936776,-4.151549 1.58736,-6.715739 15.28894,-7.367718 5.4947,8.303097 -3.0526,4.884174 -4.02944,26.374537 -8.669406,12.454644 -4.639965,-13.919897 -9.768348,18.681973 -13.553583,6.837844 -3.785235,-11.844122 -10.134662,14.530419 -7.326262,24.176659 3.924468,13.47968 2.8084,17.21672 9.646244,21.73458 6.837844,4.51786 15.162567,-0.3929 16.117777,10.50097 0.45011,5.13335 3.66313,7.93678 -13.919898,5.7389 -17.583027,-2.19787 -8.180992,-3.0526 -12.698854,-10.98938 -3.187746,-5.6001 -8.4252,-10.37887 -12.576748,-7.93679 -4.151548,2.44209 -13.18727,6.22733 -14.042001,11.35571 -0.85473,5.12838 0.854731,6.59363 -18.315653,7.69257 -19.170384,1.09894 -4.517862,-18.07144 -1.221044,-13.30937 3.296818,4.76207 15.507253,-1.83157 15.018836,-4.02945 -0.488418,-2.19787 7.370495,-35.62658 2.197878,-31.74712 -7.814678,5.861 0.976835,-12.698861 -4.273652,-10.37888 -5.250487,2.31998 -10.012558,2.5642 -14.530418,8.79152 -7.617072,10.49921 -7.204158,-3.78524 -7.814679,-1.95367 -1.503917,4.51175 -10.509154,5.31929 -11.111497,-0.85473 -0.488417,-5.00628 9.768348,-13.553589 18.193549,-10.256771 8.425201,3.296821 27.351376,-8.058888 24.054558,-15.14094 -3.296817,-7.082053 5.738905,-9.279931 0.366314,-11.966227 -5.372592,-2.686296 -19.564462,-21.316799 -5.128383,-36.99762 7.427056,-8.06745 4.65594,-11.504759 -6.105218,-12.33254 -7.936783,-0.610522 9.239388,-8.256671 -4.884174,-7.204157 -6.801891,0.506889 -10.37887,-4.7620701 -10.37887,-4.7620701 z"
     fill="none"/>
</svg>
