<svg
   width="128"
   height="192"
   viewBox="0 0 128 192"
   fill="none"
   stroke="#1f1f1f"
   stroke-width="2"
   stroke-linecap="round"
   stroke-linejoin="round"
   inkscape:version="1.4 (86a8ad7, 2024-10-11)"
   xmlns:inkscape="http://www.inkscape.org/namespaces/inkscape"
   xmlns:sodipodi="http://sodipodi.sourceforge.net/DTD/sodipodi-0.dtd"
   xmlns="http://www.w3.org/2000/svg"
   xmlns:svg="http://www.w3.org/2000/svg">

   <!-- Appoggio -->
  <path
   fill="#333333" stroke-width="1.2"
     d="m 21.964625,158.57976 c -0.878275,0.9959 2.96867,2.15265 4.980336,2.74725 2.739039,0.80959 3.527704,1.91303 6.029433,2.15069 3.442703,0.32705 8.360726,0.60104 11.903837,0.11456 2.429606,-0.33359 5.83182,-2.8864 8.255176,-3.31914 4.205263,-0.75092 10.548461,-0.58916 14.867448,0.6789 2.587921,0.75981 5.844298,4.18843 8.442367,4.88711 1.1523,0.30988 2.432186,0.50846 3.752134,0.62111 6.383644,0.54481 17.083969,-0.94988 22.820244,-3.84865 0.75152,-0.37979 0.0934,-2.17946 -0.93289,-3.02365 -1.83158,-1.5066 -6.675964,-1.8239 -10.052777,-2.04126 -6.100565,-0.39269 -14.569666,-1.08323 -15.233579,-1.70971 -0.681072,-0.64267 -6.092613,0.29887 -11.050408,0.75625 -3.364886,0.31043 -8.8264,-0.33361 -12.186193,-0.74878 -2.779429,-0.34344 -5.49307,-0.48552 -8.228011,0.065 -2.604551,0.52431 -7.894179,0.53262 -12.075846,0.43676 -3.296701,-0.0756 -9.149772,-0.19474 -11.291271,2.23352 z"/>
  
  <!-- Corpo -->
  <path
     fill="#c0c0c0"
     d="m 60.738564,18.9593 c -0.07121,1.600822 11.23829,4.726464 15.741024,9.925003 1.790959,2.067715 7.436188,8.570406 8.461614,13.895657 1.091027,5.66593 -0.605612,11.76306 -2.868914,17.070655 -1.762654,4.13354 -6.787513,8.208412 -8.047047,10.815868 -2.519069,5.214913 -2.872622,9.855302 0.972271,12.241787 3.844894,2.386485 11.578874,1.193243 14.760855,-1.325825 3.18198,-2.519068 9.369164,-5.634758 6.761708,-6.032505 -2.607456,-0.397748 -8.26431,-1.613087 -5.038135,-2.276 3.226174,-0.662913 11.05904,-0.374971 8.61786,-1.193243 -3.955375,-1.325825 5.06024,-3.093591 7.91076,-1.679378 2.85052,1.414213 -3.55763,0.596616 -0.33145,2.629553 1.61308,1.016466 8.4645,-0.617001 5.8531,1.525978 -2.6114,2.142979 -6.11058,2.504598 -7.5223,3.720561 -1.32201,1.138692 -2.66282,5.951118 -4.8437,8.295718 -3.577587,3.846163 -10.546674,6.521684 -12.998834,8.908378 -2.45216,2.386695 -12.279475,-0.01418 -12.191087,2.416498 0.08839,2.430685 2.782266,11.048495 2.505204,16.181785 -0.277061,5.13329 -3.108218,10.51193 -1.738199,14.26844 1.37002,3.75649 7.081791,9.80168 9.026335,11.74621 1.944544,1.94455 8.198131,11.94944 8.242325,14.07077 0.04419,2.12131 5.878906,4.32712 2.122398,6.13908 -3.756505,1.81196 -21.20432,0.58785 -21.071737,-0.91475 0.132582,-1.5026 1.979854,-0.97227 1.670495,-4.50781 -0.309359,-3.53553 -4.149049,-9.5729 -5.43068,-9.88226 -1.281631,-0.30936 -5.821067,-5.44347 -7.456252,-5.2225 -1.635184,0.22096 -7.357679,1.34727 -6.827349,2.93826 0.53033,1.59099 -9.148733,11.17279 -10.283918,12.16206 -1.239944,1.08056 2.195083,3.12316 0.692481,3.38833 -1.502602,0.26516 -14.256412,1.07973 -17.30581,-1.12998 -1.524699,-1.10485 0.467008,-3.9678 1.164266,-5.19431 0.697257,-1.22652 4.40184,-3.83752 6.275613,-5.41966 3.657934,-3.08861 5.971417,-10.54171 6.987883,-10.54171 1.016466,0 4.204951,-5.99341 4.293339,-8.37989 0.08839,-2.38649 0.627639,-6.00539 1.042355,-8.99525 0.826814,-5.96083 1.932466,-14.83179 2.881504,-17.82227 0.537096,-1.692425 -0.275292,-4.086415 -2.560121,-4.671265 -2.224716,-0.569467 -3.835329,-0.408029 -8.739946,1.79051 -4.904617,2.198545 -5.141951,3.271135 -7.195305,5.174185 -2.053354,1.90304 -6.495243,5.48268 -5.08103,6.23398 1.414214,0.7513 5.233981,1.34099 3.42202,2.09229 -1.811962,0.7513 -18.64236,2.91552 -16.079097,1.45711 2.563262,-1.45841 3.728776,-3.74984 2.623922,-4.50114 -1.104855,-0.7513 -5.552791,0.45493 -6.800922,-0.12538 -2.4763331,-1.15127 0.922674,-2.79256 3.708408,-3.32361 1.763006,-0.33609 4.949054,-0.90146 6.250109,-1.94855 1.301055,-1.0471 2.533977,-2.18832 4.176733,-4.485341 1.642757,-2.29702 7.409368,-7.707461 9.947972,-10.031159 4.714901,-4.315762 10.765827,-3.978221 14.781763,-5.668498 4.015936,-1.690277 4.089553,-7.6887 2.740039,-11.269514 -1.349515,-3.580814 -6.43992,-7.402975 -8.15846,-11.89266 C 43.875295,54.578353 42.485795,48.8265 43.708038,43.57545 c 1.223572,-5.256759 5.371286,-11.104272 8.971417,-13.479222 3.600131,-2.37495 5.8212,-2.630544 7.153555,-4.507648 1.332355,-1.877104 -7.352518,-4.523277 -6.226936,-7.598415 1.951388,-5.331279 15.119687,-8.5297395 16.748672,-3.091279 0.998371,3.333121 -9.461552,0.584421 -9.616182,4.060414 z"/>
  <!-- Occhi -->
  <path
   fill="#6DAEC4" stroke="#505050" stroke-width="1"
     d="m 63.085579,38.51298 c -1.613575,2.447893 -1.921725,1.525499 -1.782569,3.050997 0.139156,1.5255 -1.255667,1.95122 -1.464711,4.079823 -0.209045,2.128603 2.15675,3.015521 1.185066,4.150776 -0.971686,1.135254 -2.649481,3.370287 -0.388758,1.631929 2.260722,-1.73836 5.529737,-3.228381 5.134715,-4.611974 -0.395022,-1.383592 -1.892897,-1.596452 -1.232598,-3.689578 0.660299,-2.093126 1.772356,-3.654102 0.459655,-4.292682 -1.3127,-0.638581 -1.9108,-0.319291 -1.9108,-0.319291 z"/>
  <path
   fill="#6DAEC4" stroke="#505050" stroke-width="1"
     d="m 77.386151,39.217881 c 0,0 -2.865972,0.702493 -2.374908,2.085181 0.491062,1.38269 -0.415289,3.177937 -1.255123,4.248468 -0.839832,1.070532 -1.861673,3.226298 -1.411723,4.608068 0.449948,1.38177 2.228014,0.412896 1.967474,1.45603 -0.260541,1.043135 0.165845,1.335077 1.801165,-0.322844 1.635318,-1.657922 2.803137,-3.608704 2.330552,-5.192702 -0.472585,-1.583998 -1.571116,-1.285794 -0.765931,-3.32537 0.805183,-2.039573 0.753899,-4.622768 -0.291506,-3.556831 z"/>
     
     <!-- Ombre -->
  <path
   fill="#808080" stroke-width="0"
     d="m 47.181164,46.678129 c 0.01413,0.07689 0.02891,0.153861 0.04431,0.2309 0.914541,4.575138 4.401683,11.424698 5.778667,15.889255 1.949863,6.321986 3.351494,12.779452 1.117609,9.166254 L 50.125,65.499999 45.9375,59.8125 43.5,51 c -0.202688,-4.65855 -0.221301,-9.942656 2.373126,-12.904097 0.07541,-0.08608 0.231975,0.03529 0.417087,0.291604 1.349158,1.868126 0.467626,5.986996 0.890951,8.290622 z"/>
  <path
   fill="#808080" stroke-width="0"
     d="m 50.206421,96.111285 c 0,0 2.512599,-0.7655 3.631582,2.374864 0.854352,2.397691 0.402354,6.654481 0.41418,9.214231 0.02043,4.42181 0.530412,3.88256 0.869843,5.54304 0.511986,2.50463 0.474751,6.72756 -0.01001,9.23732 -0.06791,0.35161 -0.142391,0.64611 -0.218401,0.90888 -0.639387,2.21036 -0.542279,6.3674 -2.213115,7.85949 -2.093838,1.86984 -5.642989,2.18043 -6.448756,2.87098 2.514832,-5.79131 2.944281,-10.25913 3.48701,-14.6826 0.653879,-4.16887 2.951842,-21.111038 2.951842,-21.111038 z"/>
  <path
   fill="#808080" stroke-width="0"
     d="m 78.218747,96.687496 c 0,0 -2.84375,2.4375 -3.3125,-0.6875 -0.46875,-3.125 3.71875,-1.65625 7.249999,-3.59375 3.53125,-1.9375 5.34375,-4.5 8.0625,-3.25 2.71875,1.25 6.625,1.4375 4.3125,2.4375 -2.3125,1 -7.46875,4.53125 -7.46875,4.53125 z"/>
  <path
   fill="#808080" stroke-width="0"
     d="m 30.718749,106 c 0,0 -3.0625,-1.125 -0.3125,-2.875 2.75,-1.75 5.843749,-2.5 5.843749,-2.5 z"/>
  <path
   fill="#808080" stroke-width="0"
     d="m 71.826704,143.4393 c 0.822806,0.25845 1.736696,0.68553 2.644098,1.38287 1.575916,1.21109 3.344268,4.03447 3.98864,5.92088 0.522678,1.53015 0.62624,2.73881 0.791198,3.6409 0.220522,1.20595 2.253728,2.19504 3.342737,2.89981 0.206358,0.13355 0.408407,0.26992 0.609038,0.40635 1.418529,0.96458 4.036366,1.94096 5.671532,2.47619 1.727217,0.56536 2.875691,1.07923 0.119189,1.03985 -4.375,-0.0625 -13.961889,-1.64366 -13.961889,-1.64366 l 1.8125,-2.78125 -0.15625,-3.84375 c -1.585864,-2.72835 -2.518927,-5.58663 -5.383338,-8.06048 -1.299876,-1.12264 -1.107594,-1.94976 0.522545,-1.43771 z"/>


  <!-- Outline -->
  <path
     fill="none"
     d="m 60.738564,18.9593 c -0.07121,1.600822 11.23829,4.726464 15.741024,9.925003 1.790959,2.067715 7.436188,8.570406 8.461614,13.895657 1.091027,5.66593 -0.605612,11.76306 -2.868914,17.070655 -1.762654,4.13354 -6.787513,8.208412 -8.047047,10.815868 -2.519069,5.214913 -2.872622,9.855302 0.972271,12.241787 3.844894,2.386485 11.578874,1.193243 14.760855,-1.325825 3.18198,-2.519068 9.369164,-5.634758 6.761708,-6.032505 -2.607456,-0.397748 -8.26431,-1.613087 -5.038135,-2.276 3.226174,-0.662913 11.05904,-0.374971 8.61786,-1.193243 -3.955375,-1.325825 5.06024,-3.093591 7.91076,-1.679378 2.85052,1.414213 -3.55763,0.596616 -0.33145,2.629553 1.61308,1.016466 8.4645,-0.617001 5.8531,1.525978 -2.6114,2.142979 -6.11058,2.504598 -7.5223,3.720561 -1.32201,1.138692 -2.66282,5.951118 -4.8437,8.295718 -3.577587,3.846163 -10.546674,6.521684 -12.998834,8.908378 -2.45216,2.386695 -12.279475,-0.01418 -12.191087,2.416498 0.08839,2.430685 2.782266,11.048495 2.505204,16.181785 -0.277061,5.13329 -3.108218,10.51193 -1.738199,14.26844 1.37002,3.75649 7.081791,9.80168 9.026335,11.74621 1.944544,1.94455 8.198131,11.94944 8.242325,14.07077 0.04419,2.12131 5.878906,4.32712 2.122398,6.13908 -3.756505,1.81196 -21.20432,0.58785 -21.071737,-0.91475 0.132582,-1.5026 1.979854,-0.97227 1.670495,-4.50781 -0.309359,-3.53553 -4.149049,-9.5729 -5.43068,-9.88226 -1.281631,-0.30936 -5.821067,-5.44347 -7.456252,-5.2225 -1.635184,0.22096 -7.357679,1.34727 -6.827349,2.93826 0.53033,1.59099 -9.148733,11.17279 -10.283918,12.16206 -1.239944,1.08056 2.195083,3.12316 0.692481,3.38833 -1.502602,0.26516 -14.256412,1.07973 -17.30581,-1.12998 -1.524699,-1.10485 0.467008,-3.9678 1.164266,-5.19431 0.697257,-1.22652 4.40184,-3.83752 6.275613,-5.41966 3.657934,-3.08861 5.971417,-10.54171 6.987883,-10.54171 1.016466,0 4.204951,-5.99341 4.293339,-8.37989 0.08839,-2.38649 0.627639,-6.00539 1.042355,-8.99525 0.826814,-5.96083 1.932466,-14.83179 2.881504,-17.82227 0.537096,-1.692425 -0.275292,-4.086415 -2.560121,-4.671265 -2.224716,-0.569467 -3.835329,-0.408029 -8.739946,1.79051 -4.904617,2.198545 -5.141951,3.271135 -7.195305,5.174185 -2.053354,1.90304 -6.495243,5.48268 -5.08103,6.23398 1.414214,0.7513 5.233981,1.34099 3.42202,2.09229 -1.811962,0.7513 -18.64236,2.91552 -16.079097,1.45711 2.563262,-1.45841 3.728776,-3.74984 2.623922,-4.50114 -1.104855,-0.7513 -5.552791,0.45493 -6.800922,-0.12538 -2.4763331,-1.15127 0.922674,-2.79256 3.708408,-3.32361 1.763006,-0.33609 4.949054,-0.90146 6.250109,-1.94855 1.301055,-1.0471 2.533977,-2.18832 4.176733,-4.485341 1.642757,-2.29702 7.409368,-7.707461 9.947972,-10.031159 4.714901,-4.315762 10.765827,-3.978221 14.781763,-5.668498 4.015936,-1.690277 4.089553,-7.6887 2.740039,-11.269514 -1.349515,-3.580814 -6.43992,-7.402975 -8.15846,-11.89266 C 43.875295,54.578353 42.485795,48.8265 43.708038,43.57545 c 1.223572,-5.256759 5.371286,-11.104272 8.971417,-13.479222 3.600131,-2.37495 5.8212,-2.630544 7.153555,-4.507648 1.332355,-1.877104 -7.352518,-4.523277 -6.226936,-7.598415 1.951388,-5.331279 15.119687,-8.5297395 16.748672,-3.091279 0.998371,3.333121 -9.461552,0.584421 -9.616182,4.060414 z"/>

     <!-- Vento  -->
  <path
     fill="none" stroke-width="0.5" stroke="#6DAEC4"
     d="m 110.21603,58.381579 c 0,0 -14.30744,6.401161 -7.78078,4.458941 6.52668,-1.942245 15.55221,-5.789777 13.47964,-5.301902 -2.07261,0.487884 -15.2835,5.654368 -13.20177,5.817487 2.08169,0.163174 14.09574,-4.324233 10.95472,-3.505366 -3.14103,0.818848 -13.884,5.074126 -10.69751,4.68372 3.18639,-0.390367 11.98021,-3.402859 9.9718,-3.089003 -2.0084,0.313863 -13.70077,4.853289 -9.60315,4.461542 4.09767,-0.391708 10.89804,-3.572341 9.12113,-3.141271 -1.77696,0.431094 -12.02501,3.896587 -9.56207,4.088358 2.46291,0.191762 10.12684,-2.40608 8.14724,-2.073798 -1.97954,0.332298 -10.99731,2.986505 -8.26568,3.042833 2.73169,0.0563 9.2471,-1.524432 7.09086,-1.182186 -2.15625,0.342224 -10.36779,2.590119 -7.15623,2.338646 3.21145,-0.251435 8.82886,-2.252626 6.24191,-1.294618 -2.5869,0.958096 -8.76468,2.07859 -6.53793,2.303705 2.22673,0.225147 7.5447,-1.598743 5.64873,-1.120811 -1.89596,0.477893 -7.09488,2.255013 -5.4752,2.153536 1.61972,-0.101494 5.67942,-1.162636 4.28372,-0.702937 -1.39574,0.459692 -5.5234,1.815457 -4.17062,1.789196 1.35286,-0.02622 3.64851,-0.125764 2.59229,-0.186439 -1.0562,-0.06067 -3.22746,0.763565 -2.28841,0.810804 0.93909,0.04726 2.96596,0.08317 1.72648,0.243367 -1.23938,0.16015 -2.64171,0.830781 -1.72585,0.678825 0.9159,-0.151969 2.72727,-0.745375 1.58999,-0.08978 -1.13732,0.655613 -3.27135,1.227256 -2.0291,0.976647 1.24228,-0.250562 0.9297,0.348467 0.9297,0.348467"
     id="path11" />
  <path
     fill="none" stroke-width="0.5" stroke="#6DAEC4"
     d="m 61.975917,10.959688 c -3.205981,-1.9439099 -7.167167,-1.8113704 -4.417975,1.016134 2.744314,2.822487 20.758514,8.950133 11.840175,7.024582 l -3.887819,-0.839415"/>
  <path
     fill="none" stroke-width="0.5" stroke="#6DAEC4"
     d="m 20.672709,114.40997 c 7.966859,1.77991 4.555254,1.05323 8.347201,0.86793 0.94827,-0.0465 -3.484971,3.92116 -6.237668,1.78737 -3.557963,-2.75797 -10.105326,1.84978 -11.194466,-1.07325 -0.575781,-1.54531 3.260162,-1.96618 4.452781,-0.6912"/>
  <path
     fill="none" stroke-width="0.5" stroke="#6DAEC4"
     d="m 48.027144,123.293 c -0.756163,0.61859 -1.68099,1.18044 -1.244146,1.3686 3.144866,1.35453 43.021427,-16.19012 37.434635,-15.08498 -1.573514,0.31126 -3.180377,0.8634 -4.802209,1.63774"/>
  <path
     fill="none" stroke-width="0.5" stroke="#6DAEC4"
     d="m 50.248117,105.65719 c -0.695549,-0.61899 -1.546244,-1.18122 -1.144417,-1.3695 2.892781,-1.35541 39.572936,16.20072 34.433975,15.09485 -1.447386,-0.31147 -2.925455,-0.86396 -4.417285,-1.63881"/>
  <path
     fill="none" stroke-width="0.5" stroke="#6DAEC4"
     d="m 43.635477,39.465157 c -0.792038,0.61836 -1.760743,1.18 -1.303174,1.36809 3.294075,1.35402 45.062584,-16.18406 39.210726,-15.07933 -1.64817,0.31115 -3.33127,0.86308 -5.03005,1.63713"/>
  <path
     fill="none" stroke-width="0.5" stroke="#6DAEC4"
     d="m 79.206162,131.71625 c 0.773364,0.53328 1.70028,0.99176 1.306596,1.22651 -2.83416,1.6899 -42.15043,-11.43053 -36.773821,-10.93854 1.514317,0.13857 3.083531,0.5132 4.688491,1.1073"/>
  <path
     fill="none" stroke-width="0.5" stroke="#6DAEC4"
     d="m 43.910929,98.065228 c 0.181949,0.563505 0.404483,1.075324 0.299369,1.246727 -0.756726,1.233905 -10.351921,-14.748361 -9.007613,-13.741633 0.378622,0.283549 0.76527,0.786516 1.155519,1.4919"/>
  <path
     fill="none" stroke-width="0.5" stroke="#6DAEC4"
     d="m 41.893937,99.11651 c 0.173948,0.53873 0.386697,1.02804 0.286205,1.19191 -0.72345,1.17964 -9.896709,-14.099828 -8.611516,-13.137368 0.361974,0.271079 0.731619,0.751929 1.104707,1.426294"/>
  <path
     fill="none" stroke-width="0.5" stroke="#6DAEC4"
     d="m 39.628373,100.12222 c 0.163082,0.50508 0.36254,0.96383 0.268326,1.11745 -0.678257,1.10596 -9.278476,-13.219024 -8.073567,-12.316688 0.339361,0.254147 0.685915,0.704958 1.035697,1.337197"/>
</svg>
