<svg
   width="128"
   height="192"
   viewBox="0 0 128 192"
   fill="none"
   stroke="#1f1f1f"
   stroke-width="2"
   stroke-linecap="square"
   stroke-linejoin="square"
   inkscape:version="1.4 (86a8ad7, 2024-10-11)"
   xmlns:inkscape="http://www.inkscape.org/namespaces/inkscape"
   xmlns:sodipodi="http://sodipodi.sourceforge.net/DTD/sodipodi-0.dtd"
   xmlns="http://www.w3.org/2000/svg"
   xmlns:svg="http://www.w3.org/2000/svg">

   <!-- Pavimento -->
  <path
   fill="#4d4d4d"
    stroke-width="0.75" stroke-opacity="0.66"
     d="m 27.854717,157.75975 -8.134971,0.10913 -5.505112,2.30259 4.187882,3.10904 -6.357234,5.68805 8.5485,-1.84823 -3.523263,3.52611 8.945708,-2.81292 -1.142756,4.37648 7.922971,-5.55106 8.65973,2.83685 4.444346,-5.15179 6.797595,1.27864 -2.425786,-7.19371 9.120653,0.86685 2.237312,3.31473 6.268232,-3.46334 5.063086,5.39023 -0.07814,-4.36274 9.703877,3.67933 2.603259,5.63448 7.433744,-1.53456 7.344188,-3.07671 7.145082,-2.74176 4.37208,-3.8332 -7.06352,-0.45885 -6.335502,-3.95072 -28.328497,-0.55674 -5.375896,-2.77065 -7.343942,4.00474 -6.352283,-4.46678 -12.169523,6.7636 z"/>

   <!-- Corpo -->
  <path
    fill="#f0fb3e"
     d="m 61.527239,11.779403 8.540483,9.489406 9.55946,-4.275838 -2.408103,5.487415 h 3.101701 l -0.614862,3.20881 6.435568,-3.805139 -3.399866,8.993618 6.279053,-1.966933 -2.118234,5.598193 6.73296,-4.84168 -0.529558,7.338171 -7.544279,5.964483 5.780368,2.277063 -4.265029,3.390798 0.143777,5.910636 -6.879052,4.232614 3.727945,2.222257 -8.645276,11.243665 3.177352,0.567384 -8.019032,3.517784 -0.453908,10.591174 5.711669,-7.640775 -0.945641,9.532057 7.981207,-11.007257 -0.94564,7.754253 13.390271,-7.413823 -2.269538,-2.874747 5.068634,1.81563 1.739979,-8.775545 6.506012,3.706911 4.00951,-0.529558 -2.64779,4.085167 4.76603,1.134769 -3.78257,1.664327 2.11824,1.21042 -1.13477,2.193886 1.73998,9.07815 -7.03557,-3.555608 -1.70215,-3.820389 -1.6265,3.971691 1.81563,5.673844 -4.766031,-3.328655 -1.4752,-2.42084 -3.896039,5.144285 0.832164,2.723445 -4.009516,0.151302 -4.992982,3.858214 -4.539075,-0.453908 -2.45729,5.85145 -3.670714,-4.11798 -1.170966,6.91707 4.539075,1.66434 -3.063876,3.8582 7.035566,1.39955 -3.328655,1.66433 -2.988224,4.04734 1.975194,4.61915 -3.820155,3.16328 8.700873,0.30264 -8.919936,7.30798 10.154633,4.60198 -1.664328,3.63126 7.86773,3.85822 6.0521,0.4539 -1.172595,-3.74473 5.333412,4.4256 -1.739977,2.95039 3.479952,0.37826 3.253,-4.91733 v 8.24599 l -4.690365,1.05911 -0.37826,4.91733 -5.897793,-2.09231 -6.976323,3.07265 0.747123,-3.56263 -7.038949,-0.50313 3.651176,-1.92747 -7.291386,-2.60163 -2.568886,1.70678 -7.701327,-0.81602 5.656139,-2.99537 -3.707563,-1.75361 1.4752,-2.60996 -4.50125,-4.57691 -0.491733,2.08041 -1.248246,-1.4752 -0.832164,1.4752 -1.89128,-2.00475 -3.019664,5.55235 -4.917331,5.9008 -0.26478,-3.29084 -12.822886,10.21293 -1.361723,-3.29083 -9.49616,6.26631 0.658472,-3.10016 -6.973423,0.84336 3.908391,-3.87018 -7.243028,-2.67539 6.664063,-1.42773 -4.715852,-4.0896 9.153802,1.36173 -0.07565,-3.85822 1.891282,2.38301 7.640776,-2.00475 -1.830296,-5.26047 4.450095,2.58944 -2.354843,-6.54804 4.24633,2.02602 3.820389,0.18908 -0.756513,-2.45866 2.799096,-2.26955 -2.231712,-0.90781 1.393415,-3.13653 -5.825399,-5.66882 5.711669,1.36171 1.18726,-5.10375 -1.966932,-2.11823 3.6027,-5.32531 -2.240978,-6.85454 4.053711,-5.60205 -0.820567,-4.109216 -6.713101,2.448746 -2.874747,-2.156065 -7.413823,3.858205 2.874748,1.32391 -4.312122,0.98346 1.437374,4.00952 -4.992982,-1.36172 1.437374,5.52254 -7.111218,-1.81563 -1.437373,7.8299 -2.307363,-1.4752 0.113476,4.34994 -5.598192,-3.13952 2.269537,-5.37124 -2.723445,0.49174 -3.896039,2.57214 1.059118,-3.44214 -2.761271,-0.75651 2.799096,-1.43737 -2.8747472,-3.63126 4.1608182,0.52956 -2.874747,-2.87475 5.900797,1.36172 0.718687,-2.7991 -2.647794,-5.409056 5.10646,3.442136 3.858213,-9.229457 2.723445,2.723445 8.283812,-4.425598 -2.836922,-1.777804 8.586417,-0.340431 -2.836922,-2.534317 9.910314,1.891281 -1.134769,-2.118235 -5.333413,-3.555608 6.430356,0.34043 3.517783,4.198645 3.858214,-0.378257 2.42084,-3.858213 -2.647794,-1.059118 1.588676,-5.825146 -4.009516,0.907815 0.226954,-2.572142 -1.437374,-1.81563 -3.479957,3.177352 1.739978,-5.673844 -0.983466,-3.782562 -4.191753,-12.686364 -11.316753,-13.186363 8.483317,1.308518 0.67628,-5.744153 -6.222894,-8.315071 7.696935,-1.236666 -8.237725,-8.721343 17.150481,5.377825 -2.988225,-3.253003 5.49417,1.292825 -0.94564,-1.588676 3.442131,1.059117 -1.021292,-2.231712 6.770788,4.047342 z"/>

     <!-- Occhi -->
  <path
     fill="#5ADBFF"
     stroke="#61980f"
     stroke-width="0.5"
     d="m 62.335883,38.183766 0.37565,2.695845 -1.546796,-1.016466 0.176777,4.065863 -1.347923,-1.480504 0.375652,4.176349 1.303727,0.729208 -0.685009,2.276 1.370019,0.220971 0.265166,2.298097 1.104854,-2.077126 0.353553,-2.607456 0.795495,-2.519068 -1.082757,-0.662912 1.436311,-2.58536 -0.618719,-3.204077 -0.57452,1.767766 z"/>
  <path
     fill="#5ADBFF"
     stroke="#61980f"
     stroke-width="0.5"
     d="m 74.997513,38.316349 0.640815,3.226174 -1.347922,-1.370019 0.176777,3.469242 -1.502603,-1.414213 1.237438,3.911185 -0.994369,2.828427 0.817592,3.800698 0.795495,-2.298096 1.149049,1.303727 0.773398,-2.961008 2.099223,-2.143418 -1.546796,-2.43068 1.90035,-3.33666 -1.856156,1.126951 -0.132582,-2.430679 z"/>

     <!-- Ombre -->
  <path
      fill="#ffcc00"
      stroke-width="0"
     d="m 35.178562,40.923805 6.629126,0.265165 2.828427,7.601398 8.087534,4.993941 -1.900349,7.866563 7.325184,12.59534 -5.557418,2.298096 0.353554,-2.740038 -1.679379,-2.032932 -2.386485,1.767767 1.325825,-4.507806 -5.391689,-15.998291 z"/>
  <path
     fill="#ffcc00"
      stroke-width="0"
     d="m 54.5625,102.6875 4.3125,6.75 -2.4375,2.75 L 57.5,118 l -2.75,2.90625 2,11.40625 -8.152866,8.61926 -1.409634,-2.74426 3.5,-2.25 -2.5,-1.25 1.3125,-3.375 -5.3125,-4.5625 4.875,0.375 1.8125,-5.3125 -1.8125,-2 3.5625,-5.0625 -2.75,-6.8125 z"/>
  <path
     fill="#ffcc00"
      stroke-width="0"
     d="m 16.263456,99.039143 1.458408,4.596197 4.684582,2.60745 1.546796,-6.850094 3.756505,1.590994 3.535534,-5.303304 13.214057,-3.579728 -3.447145,-3.314563 -8.57367,0.08839 2.519068,1.679378 -7.999145,4.331029 -2.916816,-2.298097 -3.491339,8.617865 z"/>
  <path
     fill="#ffcc00"
      stroke-width="0"
     d="m 72.611027,135.8087 -2.65165,1.94454 6.938485,3.93328 -1.944544,2.60746 11.181126,3.71231 4.154252,-0.26517 -9.148193,-4.06586 1.635184,-4.02167 z"/>
  <path
     fill="#ffcc00"
      stroke-width="0"
     d="m 43.487067,25.986174 7.822368,3.226175 4.772971,-0.53033 -19.180271,-10.69499 z"/>
  <path
     fill="#ffcc00"
      stroke-width="0"
     d="m 62.711532,13.965359 2.209709,15.644737 3.71231,1.59099 z"/>
  <path
     fill="#ffcc00"
      stroke-width="0"
     d="m 96.374999,87.312499 -8.75,2.5625 -2.75,3.25 h -4.3125 l -6.9375,5.75 3.5625,4.750001 2.375,-5.562501 5.125,1.1875 4,-4.8125 4.5,0.5 -0.9375,-2.6875 z"/>

     <!-- Fulmini corpo -->
  <path
   stroke="#5adbff" stroke-width="0.75" fill="none"
     d="M 42.5625,35.0625 55.125,42.875 54.25,49.5 57.0625,57.4375 50,67.312499 v 0"/>
  <path
   stroke="#5adbff" stroke-width="0.75" fill="none"
     d="m 51.972348,86.974133 -3.977476,8.220117 -4.77297,-3.623923 -0.53033,7.159456"/>
  <path
   stroke="#5adbff" stroke-width="0.75" fill="none"
     d="m 49.320698,92.277434 8.043339,0.795495"/>
  <path
   stroke="#5adbff" stroke-width="0.75" fill="none"
     d="m 77.870134,85.913473 3.623922,6.717515 9.192388,-12.109204"/>
  <path
   stroke="#5adbff" stroke-width="0.75" fill="none"
     d="m 81.405668,92.719376 -6.717515,7.866564"/>
  <path
   stroke="#5adbff" stroke-width="0.75" fill="none"
     d="m 47.464542,140.27231 3.97411,8.02709 -4.488961,-1.83026 0.28661,4.53813 4.309451,0.83503"/>
     
  <path
     stroke="#5adbff" stroke-width="0.75" fill="none"
     d="m 27.018277,157.65382 5.923109,-6.07177 2.551922,4.79742 5.991901,-4.96777 -5.727157,-2.39649"/>
  <path
     stroke="#5adbff" stroke-width="0.75" fill="none"
     d="m 69.035741,148.88183 3.636676,-0.4879 1.773588,-1.75987 1.300587,-1.29053 0.636676,-5.55039 5.011676,2.6371"/>
  <path
     stroke="#5adbff" stroke-width="0.75" fill="none"
     d="m 87.441008,159.03492 0.787882,-3.87198 4.31731,-3.03733 -5.575596,-2.13982 -5.565719,-0.48473 2.499132,-5.08189"/>
  <path
     stroke="#5adbff" stroke-width="0.75" fill="none"
     d="m 27.665553,95.19425 -0.795496,5.3033 2.916816,0.97227 -0.353553,5.3033 1.59099,0.70711"/>
  <path
     stroke="#5adbff" stroke-width="0.75" fill="none"
     d="m 23.695383,94.782796 -0.775201,7.088904 2.842402,1.29963 -0.344533,7.08891 1.5504,0.94519"/>
  <path
     stroke="#5adbff" stroke-width="0.75" fill="none"
     d="m 95.547803,79.019182 -1.149049,5.303301 1.767767,3.447145 0.176777,0.176777"/>
  
  <!-- Outline -->
  <path
     fill="none" 
     d="m 61.527239,11.779403 8.540483,9.489406 9.55946,-4.275838 -2.408103,5.487415 h 3.101701 l -0.614862,3.20881 6.435568,-3.805139 -3.399866,8.993618 6.279053,-1.966933 -2.118234,5.598193 6.73296,-4.84168 -0.529558,7.338171 -7.544279,5.964483 5.780368,2.277063 -4.265029,3.390798 0.143777,5.910636 -6.879052,4.232614 3.727945,2.222257 -8.645276,11.243665 3.177352,0.567384 -8.019032,3.517784 -0.453908,10.591174 5.711669,-7.640775 -0.945641,9.532057 7.981207,-11.007257 -0.94564,7.754253 13.390271,-7.413823 -2.269538,-2.874747 5.068634,1.81563 1.739979,-8.775545 6.506012,3.706911 4.00951,-0.529558 -2.64779,4.085167 4.76603,1.134769 -3.78257,1.664327 2.11824,1.21042 -1.13477,2.193886 1.73998,9.07815 -7.03557,-3.555608 -1.70215,-3.820389 -1.6265,3.971691 1.81563,5.673844 -4.766031,-3.328655 -1.4752,-2.42084 -3.896039,5.144285 0.832164,2.723445 -4.009516,0.151302 -4.992982,3.858214 -4.539075,-0.453908 -2.45729,5.85145 -3.670714,-4.11798 -1.170966,6.91707 4.539075,1.66434 -3.063876,3.8582 7.035566,1.39955 -3.328655,1.66433 -2.988224,4.04734 1.975194,4.61915 -3.820155,3.16328 8.700873,0.30264 -8.919936,7.30798 10.154633,4.60198 -1.664328,3.63126 7.86773,3.85822 6.0521,0.4539 -1.172595,-3.74473 5.333412,4.4256 -1.739977,2.95039 3.479952,0.37826 3.253,-4.91733 v 8.24599 l -4.690365,1.05911 -0.37826,4.91733 -5.897793,-2.09231 -6.976323,3.07265 0.747123,-3.56263 -7.038949,-0.50313 3.651176,-1.92747 -7.291386,-2.60163 -2.568886,1.70678 -7.701327,-0.81602 5.656139,-2.99537 -3.707563,-1.75361 1.4752,-2.60996 -4.50125,-4.57691 -0.491733,2.08041 -1.248246,-1.4752 -0.832164,1.4752 -1.89128,-2.00475 -3.019664,5.55235 -4.917331,5.9008 -0.26478,-3.29084 -12.822886,10.21293 -1.361723,-3.29083 -9.49616,6.26631 0.658472,-3.10016 -6.973423,0.84336 3.908391,-3.87018 -7.243028,-2.67539 6.664063,-1.42773 -4.715852,-4.0896 9.153802,1.36173 -0.07565,-3.85822 1.891282,2.38301 7.640776,-2.00475 -1.830296,-5.26047 4.450095,2.58944 -2.354843,-6.54804 4.24633,2.02602 3.820389,0.18908 -0.756513,-2.45866 2.799096,-2.26955 -2.231712,-0.90781 1.393415,-3.13653 -5.825399,-5.66882 5.711669,1.36171 1.18726,-5.10375 -1.966932,-2.11823 3.6027,-5.32531 -2.240978,-6.85454 4.053711,-5.60205 -0.820567,-4.109216 -6.713101,2.448746 -2.874747,-2.156065 -7.413823,3.858205 2.874748,1.32391 -4.312122,0.98346 1.437374,4.00952 -4.992982,-1.36172 1.437374,5.52254 -7.111218,-1.81563 -1.437373,7.8299 -2.307363,-1.4752 0.113476,4.34994 -5.598192,-3.13952 2.269537,-5.37124 -2.723445,0.49174 -3.896039,2.57214 1.059118,-3.44214 -2.761271,-0.75651 2.799096,-1.43737 -2.8747472,-3.63126 4.1608182,0.52956 -2.874747,-2.87475 5.900797,1.36172 0.718687,-2.7991 -2.647794,-5.409056 5.10646,3.442136 3.858213,-9.229457 2.723445,2.723445 8.283812,-4.425598 -2.836922,-1.777804 8.586417,-0.340431 -2.836922,-2.534317 9.910314,1.891281 -1.134769,-2.118235 -5.333413,-3.555608 6.430356,0.34043 3.517783,4.198645 3.858214,-0.378257 2.42084,-3.858213 -2.647794,-1.059118 1.588676,-5.825146 -4.009516,0.907815 0.226954,-2.572142 -1.437374,-1.81563 -3.479957,3.177352 1.739978,-5.673844 -0.983466,-3.782562 -4.191753,-12.686364 -11.316753,-13.186363 8.483317,1.308518 0.67628,-5.744153 -6.222894,-8.315071 7.696935,-1.236666 -8.237725,-8.721343 17.150481,5.377825 -2.988225,-3.253003 5.49417,1.292825 -0.94564,-1.588676 3.442131,1.059117 -1.021292,-2.231712 6.770788,4.047342 z"/>
  
  <!-- Fulmini sopra corpo -->
  <path
     fill="none" stroke="#5ADBFF" stroke-width="0.75" stroke-linecap="butt"
     d="m 38.800175,32.366513 -2.347823,1.716661 0.937443,-4.414369 4.272209,2.383772 2.897208,-4.678728 -3.227791,-3.241228 6.597157,0.52908 -2.215342,-4.658419 1.392043,-4.60813 -3.371932,2.832702"/>
  <path
     fill="none" stroke="#5ADBFF" stroke-width="0.75" stroke-linecap="butt"
     d="m 76.143546,16.347701 -4.609281,-1.917096 3.784925,6.069163 9.285966,5.981455 4.701864,-0.279065 -2.404601,-1.547082"/>
  <path
     fill="none" stroke="#5ADBFF" stroke-width="0.75" stroke-linecap="butt"
     d="m 50.384919,114.6534 -4.07894,3.79695 22.683377,-3.17684 10.712215,5.36056 -2.652599,0.71004"/>
  <path
     fill="none" stroke="#5ADBFF" stroke-width="0.75" stroke-linecap="butt"
     d="m 16.939042,97.74292 -0.411659,-4.039185 -4.076954,6.301055 3.684167,5.98525 -2.958295,-1.23045 1.060319,6.68516 m 1.28852,5.00805 -2.376819,2.40649 7.09201,-1.65093 7.781285,0.21376 -2.144278,-1.66196"/>
  <path
     fill="none" stroke="#5ADBFF" stroke-width="0.75" stroke-linecap="butt"
     d="m 97.520804,73.428147 -1.761756,0.653851 5.983172,3.059794"/>
  <path
     fill="none" stroke="#5ADBFF" stroke-width="0.75" stroke-linecap="butt"
     d="m 112.64767,77.821548 1.85263,2.517254 -1.61893,-7.114782 -5.80906,-3.573446 -0.14954,1.034757"/>
  <path
     fill="none" stroke="#5ADBFF" stroke-width="0.75" stroke-linecap="butt"
     d="m 99.881588,93.045681 0.432692,1.828688 4.73815,-5.13857 -2.20098,-1.720397"/>
</svg>
