<svg
   width="128"
   height="192"
   viewBox="0 0 128 192"
   fill="none"
   stroke="#1f1f1f"
   stroke-width="2"
   stroke-linecap="round"
   stroke-linejoin="round"
   inkscape:version="1.4 (86a8ad7, 2024-10-11)"
   xmlns:inkscape="http://www.inkscape.org/namespaces/inkscape"
   xmlns:sodipodi="http://sodipodi.sourceforge.net/DTD/sodipodi-0.dtd"
   xmlns="http://www.w3.org/2000/svg"
   xmlns:svg="http://www.w3.org/2000/svg">
  <!-- Cenere -->
  <path
     d="m 17.484546,158.55922 c 2.594919,0.8398 3.65195,0.73184 3.558341,2.46032 6.638386,-0.31729 6.519059,3.55468 11.013666,2.70203 4.726028,-0.89655 10.136334,-2.29233 13.179025,-0.11898 3.042691,2.17335 -0.185171,-3.15076 5.698078,-2.18795 3.328589,0.54473 5.136474,-0.9042 6.625291,-2.77517 1.488816,-1.87097 9.8403,0.20636 12.495691,-0.92839 2.655391,-1.13475 2.157211,2.68598 3.67058,3.07556 2.696514,0.69416 4.922232,-1.60644 4.960112,2.2989 0.01323,1.36382 7.524874,-1.33644 11.596765,1.77198 0.993434,-1.04601 10.145575,-2.65701 13.474105,-0.39806 2.83584,-0.42918 13.19932,-2.63406 9.97614,-7.7189 -3.9459,-2.55871 -12.72605,-3.06939 -14.331513,-3.33865 -1.605466,-0.26926 -26.559691,-0.55328 -29.25523,-0.69615 -0.89945,1.63218 -17.166635,-0.79696 -19.820533,0.0291 -7.613704,2.36969 -13.692015,1.35912 -14.05612,1.34157 -5.825677,-0.28088 -8.25982,0.98742 -8.25982,0.98742 -3.36971,-0.28124 -6.872921,1.01179 -10.524578,3.49542 z"
     fill="#333333" stroke-width="1.2"/>

  <!-- Personaggio -->
  <path
     d="m 53.177423,16.80113 c 1.501799,1.943835 5.357767,2.581775 7.919799,3.014855 2.562032,0.433081 2.139131,-0.08642 1.142264,-4.113459 -0.996867,-4.027044 -3.147804,-4.755084 -4.880698,-7.1431694 7.490625,2.1833204 10.347771,5.2806114 11.02643,7.1678224 0.678659,1.887211 3.378971,5.821668 6.40524,7.329856 -0.9677,-6.33448 -0.477947,-2.726027 -0.992459,-6.524491 -0.514513,-3.798463 -4.539446,-7.5307251 -4.539446,-7.5307251 0,0 7.635988,2.7813331 9.782424,5.9337701 2.398384,3.522469 2.221963,7.106713 2.162916,12.600083 2.27221,-3.353456 3.910918,-9.658322 3.910918,-9.658322 2.531083,2.555643 3.743534,6.394924 1.462597,12.139899 -2.280936,5.744975 -0.910348,14.829559 -1.468605,17.764535 -1.003445,5.275506 2.368034,12.102523 -6.261657,19.056 -2.15448,1.735998 -3.399256,2.20958 -4.293585,4.941441 3.947513,0.281052 2.686319,1.385763 4.802861,0.677913 -0.489207,2.230627 -1.767786,4.296093 -3.402246,8.505162 5.239762,-1.110977 4.832529,-0.635779 6.7351,-3.241884 0.945864,2.110923 0.01921,1.102773 0.470957,5.094206 2.907789,-4.417638 10.822514,-2.137242 10.251105,-7.215369 2.448321,3.111864 2.428538,0.706325 2.405537,4.159549 4.878625,-4.377412 2.531525,-3.405464 4.147232,-8.90381 3.767633,2.870271 4.252063,2.47381 3.237633,4.333598 -1.01443,1.859788 3.79386,-0.01927 3.03304,-2.555342 4.42701,4.057657 3.83457,2.094284 -0.18835,7.036984 5.19895,-0.634018 4.2558,1.777527 6.32693,0.636293 -0.1268,5.537096 -4.96,4.515414 -8.34143,6.290666 -3.38144,1.775252 -3.12928,1.315798 -7.063352,4.107239 4.165552,0.579735 3.992162,0.784951 5.912962,0.744179 -2.42799,3.30995 -12.514114,1.097734 -15.268749,3.678946 3.611493,0.758048 0.582513,1.389485 3.631081,1.812164 0,0.422679 -1.556359,4.930691 -5.191398,3.493581 -3.63504,-1.43711 -6.881907,0.65221 -6.880808,3.17874 7.94e-4,1.82504 0.40792,7.09941 4.972379,2.29185 -1.095818,2.82249 -4.833827,6.97712 -5.279025,9.29542 -0.687007,2.91857 2.846946,5.96616 4.702659,2.11412 -1.252632,7.32604 -4.775739,6.84659 -4.410517,9.71503 0.365221,2.86844 0.259502,4.76514 1.954579,8.97514 0.629101,1.56248 3.326626,-0.60682 5.447947,-2.72814 -0.141871,4.41533 2.160804,4.336 -0.206198,6.53393 -1.562327,1.45073 2.086461,5.63889 2.583319,5.44779 1.098966,-0.42268 4.43813,0.67629 5.029881,-2.53608 1.310304,2.83195 2.451538,5.11442 -1.098965,5.45256 -3.550504,0.33815 -0.04227,2.40928 3.423699,2.83195 3.465968,0.42268 4.226796,-0.33814 3.550504,-3.29689 3.339172,3.00102 2.517832,4.87661 1.165252,6.39825 -1.352567,1.52165 2.45155,3.17009 2.87423,0.63402 1.43711,3.4237 -0.0571,5.94559 -5.029887,4.8608 -4.993372,-1.08929 -2.587976,-0.67471 -7.904098,1.85979 0.73322,-4.20494 -1.432902,-1.79273 -8.140101,-3.90174 -5.505034,-1.731 -4.057719,-4.98762 -5.917507,-4.39587 -1.859787,0.59175 -1.775251,2.32475 -6.340184,2.57836 1.014429,-2.36701 5.62163,-6.21339 2.155662,-7.05875 -3.465968,-0.84536 -8.796225,-2.85932 -7.359116,-4.55003 1.437109,-1.69072 0.338143,-2.87422 -1.775252,-2.62061 -2.113395,0.2536 -4.734005,1.52163 -7.819562,6.25565 1.640081,-0.86634 0.840566,0.14275 4.706675,0.3144 -2.60088,2.45411 -1.614746,2.49927 -4.748943,3.32064 -3.975642,1.04188 -3.575898,1.15608 -6.8474,1.22577 -0.331296,2.73091 -1.648448,4.81854 -4.860809,4.98761 -3.212361,0.16907 -4.480397,1.14124 -8.411312,0.29587 -0.676287,3.29689 -4.235086,-0.30753 -6.128846,-0.25361 -1.727062,0.0492 -4.856186,-0.83084 -4.184523,-8.62265 3.487435,2.00722 5.723476,2.5943 5.959775,0.12681 0.236299,-2.46749 2.218972,-1.18278 0.169072,-6.34019 4.486601,4.65048 9.561569,3.21473 8.435032,-2.46884 5.475927,1.3647 0.142226,0.36921 6.203931,1.91481 3.083147,-3.85789 1.630659,-2.65397 1.968802,-4.87304 3.170093,0.0211 2.228176,-2.18295 1.792907,-3.86644 -0.435269,-1.68349 -3.550495,-2.81505 -5.325756,-6.61493 6.299826,1.53703 3.450556,-4.40025 3.782978,-6.27679 0.311059,-1.75594 -4.849395,-3.32513 -3.487102,-4.77626 1.362293,-1.45113 2.333191,-5.01795 -0.337473,-7.06762 4.365459,-2.86234 3.230895,-2.99187 5.256112,-7.72076 -2.908141,2.02591 -6.505406,4.02882 -7.662573,5.02279 -1.157168,0.99396 -0.778437,-1.99094 -3.229976,-1.23011 -2.451538,0.76082 -5.442668,0.0922 -4.005559,4.91079 1.437108,4.81854 -3.963642,5.63522 -9.517089,7.01695 3.950912,-4.11764 -4.514353,-8.67201 -2.908177,-5.1215 1.606181,3.5505 -4.506053,0.81739 -5.827421,-0.49758 -0.833428,-0.8294 -3.272792,1.37326 -5.674155,2.25009 0.650062,-4.10862 5.757712,-5.81831 -1.7649956,-10.65891 9.4427796,1.91961 6.8003686,-3.029154 6.8003686,-3.029154 5.528063,-2.048388 6.343928,1.535094 8.874377,0.157706 2.661588,-1.448775 3.609645,-2.166601 2.637483,-3.899585 6.351483,-1.975 5.976511,-1.539591 8.367252,-2.957193 2.958441,-1.754223 0.72222,-1.157262 0.606727,-5.590448 1.316737,0.05255 11.011011,1.392065 11.518052,-2.665572 0.507054,-4.057739 -1.297196,-3.388169 -0.676287,-5.663899 6.299615,1.968355 3.623024,2.644338 5.229205,-0.145343 1.884866,-3.188909 -4.37084,-6.58279 -6.627049,-9.320178 7.946366,3.381432 5.683575,-1.971643 3.762208,-4.30107 -1.254708,-1.521182 -3.132087,-1.415325 -5.288983,-9.587411 -1.232222,-4.668665 -4.235311,-7.830326 -5.647889,-9.763338 -1.983756,-2.714627 -3.471979,-6.331978 -3.894658,-11.065983 4.134441,2.143173 3.486005,3.422914 5.537094,5.515961 0.951028,-3.212361 -0.80309,-6.149981 -0.634018,-8.030902 0.169072,-1.880921 -1.120095,-3.592772 -2.472672,-5.706167 -1.352573,-2.113395 -5.663899,-4.311326 -2.789682,-3.127825 2.874218,1.183502 6.678329,3.339165 9.214403,6.509257 -1.948238,-5.273311 -6.066486,-6.845952 -4.924216,-10.228832 3.909781,4.078852 6.403587,4.797407 9.36234,5.642765 -0.126803,-3.698442 -0.101682,-4.45829 -1.077831,-6.382453 -1.640818,-3.234344 -8.009767,-7.9675 -7.587088,-7.798428 0.422679,0.169071 5.558229,3.148959 8.812857,3.550504 0.190206,-1.499089 -0.845358,-4.004105 -1.521644,-5.5370956 4.866723,2.8962756 4.990736,5.5160896 6.492534,7.4599236 z"
     fill="#e32a00"/>

  <!-- Occhi -->
  <path
     fill="#f39a1e"
     stroke-width="1"
     stroke="#780d03"
     d="m 60.575346,37.355403 c 0,0 1.413221,2.257734 2.143938,3.125063 0.563437,-1.593705 1.105992,-1.134159 1.235491,-3.161401 1.269462,3.309195 1.528113,5.137192 1.59887,7.776319 0.06459,2.409297 -1.328535,4.826646 -3.234078,4.723932 -1.866919,-0.100632 -2.871319,-3.218877 -2.652669,-4.94196 0.436378,-3.438897 1.743519,-4.202465 0.908448,-7.521953 z" />
  <path
     fill="#f39a1e"
     stroke-width="1"
     stroke="#780d03"
     d="m 74.021899,38.506772 c 0,0 1.255271,2.349224 1.924869,3.264563 0.671266,-1.551373 1.181073,-1.055747 1.449113,-3.069359 1.039835,3.38837 1.17268,5.229789 1.062518,7.867565 -0.100574,2.408063 -1.655992,4.724321 -3.550025,4.491338 -1.855643,-0.22826 -2.644117,-3.407974 -2.307966,-5.112036 0.670882,-3.400934 2.02725,-4.073184 1.421491,-7.442071 z" />

   <!-- Ombre -->
  <path
     fill="#BE1000" stroke-width="0"
     d="m 49.284373,101.23162 c 3.740238,-0.71731 6.507923,-0.96392 9.087599,-3.719571 1.204832,7.137251 2.484421,7.079161 -0.929894,11.327801 3.666009,0.70065 2.183327,6.84403 5.875239,6.87377 -4.253758,2.34542 -3.603492,3.29781 -3.118813,7.98034 -4.135153,1.41659 1.274553,5.47758 7.051576,2.5153 0.39287,1.49271 -7.019721,6.32914 -10.577819,4.21192 -3.717558,-2.21211 -5.902033,3.01764 -6.430382,3.55304 l -5.906734,-7.0292 4.050467,-0.42481 -0.706175,-6.97933 -2.70639,-2.79694 1.203498,-4.75063 -0.780819,-2.89986 c 0.481303,-2.56204 4.603336,-6.40747 3.888647,-7.86183 z"/>
  <path
     fill="#BE1000" stroke-width="0"
     d="m 36.793586,40.712121 c 0,0 3.952671,5.021748 7.080496,4.768141 3.127824,-0.253607 6.171113,4.395862 6.002042,8.115437 -0.169072,3.719575 6.171113,6.8474 4.480397,10.059761 -1.690716,3.21236 -2.113395,7.692758 -3.043289,5.072148 -0.929893,-2.62061 -3.626543,-5.188331 -4.640973,-6.879048 -1.014429,-1.690716 -3.045191,-9.141 -4.336085,-10.744543 -3.754743,-4.664124 -5.542588,-10.391896 -5.542588,-10.391896 z"/>
  <path
     fill="#BE1000" stroke-width="0"
     d="m 76.243204,80.33448 c -0.710311,-2.411583 -5.144412,-0.751516 -5.289282,-4.47894 -2.786614,2.887503 -2.973721,4.978305 -2.608381,7.646438 0.25369,1.852742 4.80838,2.116022 3.171893,4.627332 3.435662,2.004095 9.849191,-3.289914 9.526073,0.07144 2.973778,-0.42162 4.739996,-6.26592 8.142046,-2.422424 4.712355,-4.10287 7.23412,-5.437842 7.293896,-6.752911 0.05978,-1.315068 -2.810708,-2.930775 -2.810708,-2.930775 0,0 -0.401058,3.315233 -10.112373,5.321809 -2.229897,-1.205784 -0.823602,-2.962788 -0.823602,-2.962788 0,0 -3.307526,2.039956 -6.489562,1.880815 z"/>
  <path
     fill="#BE1000" stroke-width="0"
     d="m 45.437994,16.146338 c 7.185543,5.917507 4.096716,3.243844 7.819562,6.424721 -4.138984,-1.257253 -2.896227,1.685872 -0.887626,5.917507 -3.274888,-2.488963 -4.728405,-3.620984 -4.882118,-6.870113 -0.09901,-2.092773 -0.01415,-2.223783 -2.049818,-5.472115 z"/>
  <path
     fill="#BE1000" stroke-width="0"
     d="m 60.171114,11.098965 c 7.185543,5.917507 4.096716,3.243844 7.819562,6.424721 -4.138984,-1.257253 -2.896227,1.685872 -0.887626,5.917507 -3.274888,-2.488963 -3.488056,-1.648381 -4.030312,-3.672106 -0.542255,-2.023724 -1.119999,-6.975961 -2.901624,-8.670122 z"/>

   <!-- Fiammelle -->
  <path
     fill="#E32A00" stroke-width="0.5"
     d="m 105.16611,69.365039 c 0.61374,0.05259 1.3746,-0.145642 1.73047,-0.648437 0.43992,-0.621554 -0.51045,-1.567361 0.0447,-2.284019 -0.39404,-0.431502 -0.91496,0.565158 -1.14793,0.367141 -0.23297,-0.198017 -0.54499,-1.216696 -0.63508,-1.321404 -0.26434,0.939062 -0.56956,0.952314 -0.47833,1.432382 -0.67122,-0.136293 -1.76674,-0.816058 -1.76365,-0.714764 1.90781,1.408673 0.56506,1.569793 0.8748,2.364419 0.28081,0.720404 0.84588,0.759342 1.37499,0.804682 z"/>
  <path
     fill="#8C1000" stroke-width="0"
     d="m 104.30373,67.173306 c 0,0 0.32005,0.49581 0.14085,0.812029 -0.38985,0.687936 0.086,0.745896 0.26046,0.778768 0.17448,0.03287 1.7186,0.193134 1.73662,-0.298976 0.018,-0.492105 -0.58264,-0.502004 0.0668,-1.314241 -0.6464,0.354406 -1.27583,1.103709 -1.01311,0.155438 -0.26609,0.08443 -0.58178,0.289874 -0.58178,0.289874 z"/>
  <path
     fill="#E32A00" stroke-width="0.5"
     d="m 88.054017,16.283398 c 0.556118,0.264906 1.338113,0.346684 1.84797,0.001 0.63028,-0.427325 0.07288,-1.646775 0.84446,-2.122647 -0.217279,-0.542449 -1.055206,0.207596 -1.203735,-0.05966 -0.148528,-0.267254 -0.08268,-1.330611 -0.130232,-1.460299 -0.577471,0.786283 -0.867882,0.691434 -0.951167,1.172944 -0.580519,-0.363469 -1.3673,-1.38485 -1.400002,-1.28893 1.291126,1.989243 -0.02261,1.668242 -0.01185,2.521033 0.0097,0.773138 0.525098,1.008159 1.004531,1.236538 z"/>
  <path
     fill="#8C1000" stroke-width="0"
     d="m 88.016816,13.928401 c 0,0 0.12541,0.576656 -0.153482,0.809737 -0.606729,0.507068 -0.181594,0.728547 -0.02981,0.820628 0.151802,0.09209 1.541128,0.784737 1.730927,0.330344 0.189779,-0.454395 -0.369076,-0.67473 0.524368,-1.206951 -0.729715,0.104657 -1.58231,0.584989 -1.00312,-0.210484 -0.278789,-0.01446 -0.646539,0.06695 -0.646539,0.06695 z"/>
  <path
     fill="#e32a00" stroke-width="0.5"
     d="m 43.214799,76.053422 c 0.415994,-0.319363 0.811066,-0.932342 0.808045,-1.556947 -0.0038,-0.772133 -1.043758,-0.989841 -1.017468,-1.908435 -0.449233,-0.122692 -0.325432,1.006392 -0.564884,0.980904 -0.239451,-0.02549 -0.905219,-0.680482 -1.0107,-0.713522 0.261265,0.929997 0.07244,1.121289 0.350545,1.462949 -0.491033,0.28436 -1.501901,0.371647 -1.453539,0.453287 1.863383,0.0333 1.079744,0.959571 1.641446,1.431294 0.509238,0.427661 0.887902,0.125811 1.246535,-0.149513 z"/>
  <path
     fill="#8C1000" stroke-width="0"
     d="m 41.660369,74.75708 c 0,0 0.431437,0.219408 0.461826,0.58587 0.06611,0.797241 0.396514,0.563792 0.522972,0.487779 0.126469,-0.07603 1.18588,-0.856484 0.972015,-1.272628 -0.213875,-0.41613 -0.601954,-0.06933 -0.559227,-1.122404 -0.250458,0.674026 -0.309229,1.663415 -0.575746,0.726789 -0.131248,0.226819 -0.238749,0.582663 -0.238749,0.582663 z"/>
  <path
     fill="#E32A00" stroke-width="0.5"
     d="m 33.76809,140.80185 c 0.370436,0.1254 0.86917,0.11722 1.163922,-0.14135 0.364367,-0.31963 -0.07965,-1.05077 0.370002,-1.41207 -0.178197,-0.32759 -0.648736,0.21283 -0.762655,0.0546 -0.113918,-0.15821 -0.153521,-0.83815 -0.193355,-0.91681 -0.303741,0.5434 -0.493873,0.50553 -0.509614,0.81752 -0.39332,-0.18608 -0.966704,-0.77388 -0.979986,-0.71049 0.96481,1.16333 0.112953,1.06053 0.184742,1.60095 0.06509,0.48994 0.407569,0.59951 0.726925,0.70762 z"/>
  <path
     fill="#8C1000" stroke-width="0"
     d="m 33.565113,139.31004 c 0,0 0.122947,0.35636 -0.03493,0.52572 -0.343455,0.36843 -0.05882,0.47634 0.04379,0.52312 0.102621,0.0468 1.030427,0.37965 1.115318,0.0767 0.08488,-0.30298 -0.283886,-0.39987 0.238225,-0.80631 -0.451592,0.12249 -0.951932,0.49285 -0.647809,-0.0565 -0.176678,0.0122 -0.402083,0.0922 -0.402083,0.0922 z"/>
  <path
     fill="#E32A00" stroke-width="0.5"
     d="m 93.50796,140.23994 c 0.209107,-0.0416 0.411598,-0.24797 0.417874,-0.58577 0.0078,-0.41752 -0.502328,-0.86156 -0.477899,-1.34862 -0.21999,-0.20726 -0.173043,0.44045 -0.290456,0.35178 -0.117751,-0.089 -0.43788,-0.65124 -0.489486,-0.70219 0.117222,0.58353 0.02172,0.62738 0.154599,0.89896 -0.2457,-9.2e-4 -0.745251,-0.27131 -0.722419,-0.2121 0.91844,0.60319 0.520451,0.85653 0.791545,1.28731 0.245776,0.39055 0.436241,0.34675 0.616553,0.3109 z"/>
  <path
     fill="#8C1000" stroke-width="0"
     d="m 92.757629,139.05271 c 0,0 0.21001,0.25382 0.220422,0.46097 0.02264,0.45065 0.188489,0.42854 0.251785,0.42727 0.06332,-10e-4 0.595466,-0.0894 0.495206,-0.38094 -0.100252,-0.29157 -0.295969,-0.22643 -0.261746,-0.78086 -0.13191,0.28479 -0.173251,0.79983 -0.292965,0.21111 -0.06743,0.0812 -0.124976,0.23922 -0.124976,0.23922 z"/>
  <path
     fill="#E32A00" stroke-width="0.5"
     d="m 35.187127,20.234822 c 0.456941,-0.179618 0.948341,-0.650924 1.061311,-1.258409 0.139649,-0.750969 -0.814256,-1.288655 -0.618734,-2.17243 -0.406721,-0.260078 -0.497796,0.875185 -0.721991,0.775314 -0.224194,-0.09987 -0.739192,-0.944785 -0.833906,-1.00996 0.07727,0.985058 -0.13874,1.111576 0.06377,1.530603 -0.522187,0.122086 -1.504794,-0.110282 -1.473702,-0.01583 1.775268,0.616916 0.854274,1.270551 1.303777,1.904847 0.407519,0.575048 0.825521,0.400725 1.219454,0.245877 z"/>
  <path
     fill="#8C1000" stroke-width="0"
     d="m 33.941507,18.488322 c 0,0 0.371769,0.348411 0.332846,0.713807 -0.08468,0.79492 0.274501,0.671877 0.409498,0.637736 0.13501,-0.03415 1.292602,-0.459673 1.165332,-0.930873 -0.127283,-0.471189 -0.562624,-0.256172 -0.326443,-1.265376 -0.36447,0.575953 -0.604177,1.518285 -0.685241,0.52514 -0.167549,0.179082 -0.336327,0.490908 -0.336327,0.490908 z"/>

   <!-- Outline -->
   <path
     d="m 53.177423,16.80113 c 1.501799,1.943835 5.357767,2.581775 7.919799,3.014855 2.562032,0.433081 2.139131,-0.08642 1.142264,-4.113459 -0.996867,-4.027044 -3.147804,-4.755084 -4.880698,-7.1431694 7.490625,2.1833204 10.347771,5.2806114 11.02643,7.1678224 0.678659,1.887211 3.378971,5.821668 6.40524,7.329856 -0.9677,-6.33448 -0.477947,-2.726027 -0.992459,-6.524491 -0.514513,-3.798463 -4.539446,-7.5307251 -4.539446,-7.5307251 0,0 7.635988,2.7813331 9.782424,5.9337701 2.398384,3.522469 2.221963,7.106713 2.162916,12.600083 2.27221,-3.353456 3.910918,-9.658322 3.910918,-9.658322 2.531083,2.555643 3.743534,6.394924 1.462597,12.139899 -2.280936,5.744975 -0.910348,14.829559 -1.468605,17.764535 -1.003445,5.275506 2.368034,12.102523 -6.261657,19.056 -2.15448,1.735998 -3.399256,2.20958 -4.293585,4.941441 3.947513,0.281052 2.686319,1.385763 4.802861,0.677913 -0.489207,2.230627 -1.767786,4.296093 -3.402246,8.505162 5.239762,-1.110977 4.832529,-0.635779 6.7351,-3.241884 0.945864,2.110923 0.01921,1.102773 0.470957,5.094206 2.907789,-4.417638 10.822514,-2.137242 10.251105,-7.215369 2.448321,3.111864 2.428538,0.706325 2.405537,4.159549 4.878625,-4.377412 2.531525,-3.405464 4.147232,-8.90381 3.767633,2.870271 4.252063,2.47381 3.237633,4.333598 -1.01443,1.859788 3.79386,-0.01927 3.03304,-2.555342 4.42701,4.057657 3.83457,2.094284 -0.18835,7.036984 5.19895,-0.634018 4.2558,1.777527 6.32693,0.636293 -0.1268,5.537096 -4.96,4.515414 -8.34143,6.290666 -3.38144,1.775252 -3.12928,1.315798 -7.063352,4.107239 4.165552,0.579735 3.992162,0.784951 5.912962,0.744179 -2.42799,3.30995 -12.514114,1.097734 -15.268749,3.678946 3.611493,0.758048 0.582513,1.389485 3.631081,1.812164 0,0.422679 -1.556359,4.930691 -5.191398,3.493581 -3.63504,-1.43711 -6.881907,0.65221 -6.880808,3.17874 7.94e-4,1.82504 0.40792,7.09941 4.972379,2.29185 -1.095818,2.82249 -4.833827,6.97712 -5.279025,9.29542 -0.687007,2.91857 2.846946,5.96616 4.702659,2.11412 -1.252632,7.32604 -4.775739,6.84659 -4.410517,9.71503 0.365221,2.86844 0.259502,4.76514 1.954579,8.97514 0.629101,1.56248 3.326626,-0.60682 5.447947,-2.72814 -0.141871,4.41533 2.160804,4.336 -0.206198,6.53393 -1.562327,1.45073 2.086461,5.63889 2.583319,5.44779 1.098966,-0.42268 4.43813,0.67629 5.029881,-2.53608 1.310304,2.83195 2.451538,5.11442 -1.098965,5.45256 -3.550504,0.33815 -0.04227,2.40928 3.423699,2.83195 3.465968,0.42268 4.226796,-0.33814 3.550504,-3.29689 3.339172,3.00102 2.517832,4.87661 1.165252,6.39825 -1.352567,1.52165 2.45155,3.17009 2.87423,0.63402 1.43711,3.4237 -0.0571,5.94559 -5.029887,4.8608 -4.993372,-1.08929 -2.587976,-0.67471 -7.904098,1.85979 0.73322,-4.20494 -1.432902,-1.79273 -8.140101,-3.90174 -5.505034,-1.731 -4.057719,-4.98762 -5.917507,-4.39587 -1.859787,0.59175 -1.775251,2.32475 -6.340184,2.57836 1.014429,-2.36701 5.62163,-6.21339 2.155662,-7.05875 -3.465968,-0.84536 -8.796225,-2.85932 -7.359116,-4.55003 1.437109,-1.69072 0.338143,-2.87422 -1.775252,-2.62061 -2.113395,0.2536 -4.734005,1.52163 -7.819562,6.25565 1.640081,-0.86634 0.840566,0.14275 4.706675,0.3144 -2.60088,2.45411 -1.614746,2.49927 -4.748943,3.32064 -3.975642,1.04188 -3.575898,1.15608 -6.8474,1.22577 -0.331296,2.73091 -1.648448,4.81854 -4.860809,4.98761 -3.212361,0.16907 -4.480397,1.14124 -8.411312,0.29587 -0.676287,3.29689 -4.235086,-0.30753 -6.128846,-0.25361 -1.727062,0.0492 -4.856186,-0.83084 -4.184523,-8.62265 3.487435,2.00722 5.723476,2.5943 5.959775,0.12681 0.236299,-2.46749 2.218972,-1.18278 0.169072,-6.34019 4.486601,4.65048 9.561569,3.21473 8.435032,-2.46884 5.475927,1.3647 0.142226,0.36921 6.203931,1.91481 3.083147,-3.85789 1.630659,-2.65397 1.968802,-4.87304 3.170093,0.0211 2.228176,-2.18295 1.792907,-3.86644 -0.435269,-1.68349 -3.550495,-2.81505 -5.325756,-6.61493 6.299826,1.53703 3.450556,-4.40025 3.782978,-6.27679 0.311059,-1.75594 -4.849395,-3.32513 -3.487102,-4.77626 1.362293,-1.45113 2.333191,-5.01795 -0.337473,-7.06762 4.365459,-2.86234 3.230895,-2.99187 5.256112,-7.72076 -2.908141,2.02591 -6.505406,4.02882 -7.662573,5.02279 -1.157168,0.99396 -0.778437,-1.99094 -3.229976,-1.23011 -2.451538,0.76082 -5.442668,0.0922 -4.005559,4.91079 1.437108,4.81854 -3.963642,5.63522 -9.517089,7.01695 3.950912,-4.11764 -4.514353,-8.67201 -2.908177,-5.1215 1.606181,3.5505 -4.506053,0.81739 -5.827421,-0.49758 -0.833428,-0.8294 -3.272792,1.37326 -5.674155,2.25009 0.650062,-4.10862 5.757712,-5.81831 -1.7649956,-10.65891 9.4427796,1.91961 6.8003686,-3.029154 6.8003686,-3.029154 5.528063,-2.048388 6.343928,1.535094 8.874377,0.157706 2.661588,-1.448775 3.609645,-2.166601 2.637483,-3.899585 6.351483,-1.975 5.976511,-1.539591 8.367252,-2.957193 2.958441,-1.754223 0.72222,-1.157262 0.606727,-5.590448 1.316737,0.05255 11.011011,1.392065 11.518052,-2.665572 0.507054,-4.057739 -1.297196,-3.388169 -0.676287,-5.663899 6.299615,1.968355 3.623024,2.644338 5.229205,-0.145343 1.884866,-3.188909 -4.37084,-6.58279 -6.627049,-9.320178 7.946366,3.381432 5.683575,-1.971643 3.762208,-4.30107 -1.254708,-1.521182 -3.132087,-1.415325 -5.288983,-9.587411 -1.232222,-4.668665 -4.235311,-7.830326 -5.647889,-9.763338 -1.983756,-2.714627 -3.471979,-6.331978 -3.894658,-11.065983 4.134441,2.143173 3.486005,3.422914 5.537094,5.515961 0.951028,-3.212361 -0.80309,-6.149981 -0.634018,-8.030902 0.169072,-1.880921 -1.120095,-3.592772 -2.472672,-5.706167 -1.352573,-2.113395 -5.663899,-4.311326 -2.789682,-3.127825 2.874218,1.183502 6.678329,3.339165 9.214403,6.509257 -1.948238,-5.273311 -6.066486,-6.845952 -4.924216,-10.228832 3.909781,4.078852 6.403587,4.797407 9.36234,5.642765 -0.126803,-3.698442 -0.101682,-4.45829 -1.077831,-6.382453 -1.640818,-3.234344 -8.009767,-7.9675 -7.587088,-7.798428 0.422679,0.169071 5.558229,3.148959 8.812857,3.550504 0.190206,-1.499089 -0.845358,-4.004105 -1.521644,-5.5370956 4.866723,2.8962756 4.990736,5.5160896 6.492534,7.4599236 z"/>
</svg>
