<svg
   width="128"
   height="192"
   viewBox="0 0 128 192"
   fill="none"
   stroke="#1f1f1f"
   stroke-width="2"
   stroke-linecap="round"
   stroke-linejoin="round"
   inkscape:version="1.4 (86a8ad7, 2024-10-11)"
   xmlns:inkscape="http://www.inkscape.org/namespaces/inkscape"
   xmlns:sodipodi="http://sodipodi.sourceforge.net/DTD/sodipodi-0.dtd"
   xmlns="http://www.w3.org/2000/svg"
   xmlns:svg="http://www.w3.org/2000/svg">
  <defs>
    <linearGradient
       id="linearGradient92">
      <stop
         style="stop-color:#5aa02c;stop-opacity:1;"
         offset="0"
         id="stop92" />
      <stop
         style="stop-color:#5aa02c;stop-opacity:0;"
         offset="1"
         id="stop93" />
    </linearGradient>
  </defs>

   <!-- Pavimento -->
  <path
   fill="#483E37" stroke-width="1.2"
     d="m 22.753479,155.39966 c -6.353939,1.96359 -7.773494,4.24558 -3.462486,5.19373 3.829428,0.84223 3.610027,3.88602 6.428897,5.55549 1.84427,1.09227 17.148983,-1.18616 23.002233,-0.19688 5.85325,0.98928 5.605929,-5.85325 11.78894,-3.62736 6.18301,2.22588 8.573775,-2.88541 12.03626,1.56636 3.462486,4.45177 9.645497,4.86397 17.64219,4.36933 7.996694,-0.49464 13.190427,-2.55565 16.075827,-0.82441 2.88541,1.73125 6.26545,-2.55564 3.21517,-4.122 -3.05029,-1.56636 -2.63809,-4.03957 -5.44105,-4.53421 -2.80297,-0.49464 -28.524291,0.4122 -28.524291,0.4122 0,0 2.555644,-1.89612 -3.380046,-2.30832 -5.93569,-0.4122 -14.921667,-2.01979 -16.199488,-0.28854 -9.109635,-2.84418 -26.828217,-3.15898 -33.182156,-1.19539 z"/>

   <!-- Fiori -->
  <path
   fill="none" stroke="#112b00" stroke-width="0.5"
     d="m 90.868528,152.33618 c 0,0 -0.401748,-3.73647 -0.134452,-5.50247 0.267296,-1.76601 -2.35449,-3.11882 -2.235316,-3.27417"/>
  <g
     transform="matrix(-0.68703422,0.43538818,0.41201759,0.72600441,65.729724,70.106935)">
    <g
       fill="#ffaaaa" stroke-width="0.25"
       transform="matrix(2.8527351,1.6226568,-1.1534138,2.0277758,64.873428,-117.13882)">
      <path
         d="m 19.125029,86.007765 c 0.08289,-0.0072 0.366968,-0.455035 0.23005,-0.842206 -0.06986,-0.197548 -0.391118,-0.197574 -0.459811,5.25e-4 -0.137269,0.395858 0.181358,0.84589 0.229761,0.841681 z"
         transform="translate(0,0.17578125)"/>
      <path
         d="m 19.125029,86.007765 c 0.08289,-0.0072 0.366968,-0.455035 0.23005,-0.842206 -0.06986,-0.197548 -0.391118,-0.197574 -0.459811,5.25e-4 -0.137269,0.395858 0.181358,0.84589 0.229761,0.841681 z"
         transform="matrix(0.73035114,0.78397282,-0.78397282,0.73035114,72.746503,8.4300903)"/>
      <path
         d="m 19.125029,86.007765 c 0.08289,-0.0072 0.366968,-0.455035 0.23005,-0.842206 -0.06986,-0.197548 -0.391118,-0.197574 -0.459811,5.25e-4 -0.137269,0.395858 0.181358,0.84589 0.229761,0.841681 z"
         transform="rotate(91.953674,19.049362,86.307123)"/>
      <path
         d="m 19.125029,86.007765 c 0.08289,-0.0072 0.366968,-0.455035 0.23005,-0.842206 -0.06986,-0.197548 -0.391118,-0.197574 -0.459811,5.25e-4 -0.137269,0.395858 0.181358,0.84589 0.229761,0.841681 z"
         transform="matrix(-0.69996755,0.60061938,-0.60061938,-0.69996755,84.318624,135.26094)"/>
      <path
         d="m 19.125029,86.007765 c 0.08289,-0.0072 0.366968,-0.455035 0.23005,-0.842206 -0.06986,-0.197548 -0.391118,-0.197574 -0.459811,5.25e-4 -0.137269,0.395858 0.181358,0.84589 0.229761,0.841681 z"
         transform="matrix(-1.0029019,-0.01069329,0.01110145,-0.96602864,37.366983,169.89627)"/>
      <path
         d="m 19.125029,86.007765 c 0.08289,-0.0072 0.366968,-0.455035 0.23005,-0.842206 -0.06986,-0.197548 -0.391118,-0.197574 -0.459811,5.25e-4 -0.137269,0.395858 0.181358,0.84589 0.229761,0.841681 z"
         transform="matrix(-0.66226294,-0.61775217,0.61775217,-0.66226294,-21.5453,155.32455)"/>
      <path
         d="m 19.125029,86.007765 c 0.08289,-0.0072 0.366968,-0.455035 0.23005,-0.842206 -0.06986,-0.197548 -0.391118,-0.197574 -0.459811,5.25e-4 -0.137269,0.395858 0.181358,0.84589 0.229761,0.841681 z"
         transform="rotate(-91.933044,19.182106,86.346842)"/>
      <path
         d="m 19.125029,86.007765 c 0.08289,-0.0072 0.366968,-0.455035 0.23005,-0.842206 -0.06986,-0.197548 -0.391118,-0.197574 -0.459811,5.25e-4 -0.137269,0.395858 0.181358,0.84589 0.229761,0.841681 z"
         transform="matrix(0.6615095,-0.70220186,0.64661547,0.71837625,-49.345212,37.895747)"/>
    </g>
    <ellipse
       fill="#ffcc00" stroke-width="0.25"
       cx="61.240795"
       cy="67.66375"
       rx="1.5398433"
       ry="0.91412556"
       transform="rotate(29.631539)" />
  </g>
  <path
     fill="#338000" stroke-width="0.5" stroke="#112B00"
     d="m 91.338659,145.36326 c 1.292687,0.34734 3.43288,1.58073 2.776677,0.65198 -0.416022,-0.58882 -1.290694,-1.17594 -1.902145,-1.17977 -0.353004,-0.002 -0.470105,0.16512 -0.874524,0.52778 z"/>
  <path
     stroke-width="0.5" stroke="#112B00"
     d="m 90.734076,146.83371 c 0,0 1.473336,-3.55275 2.812989,-5.34582"/>
  <g
     transform="matrix(0.68703422,0.43538818,-0.41201759,0.72600441,116.85269,67.929588)">
    <g
      fill="#ffaaaa" stroke-width="0.25"
      transform="matrix(2.8527351,1.6226568,-1.1534138,2.0277758,64.873428,-117.13882)">
      <path
         d="m 19.125029,86.007765 c 0.08289,-0.0072 0.366968,-0.455035 0.23005,-0.842206 -0.06986,-0.197548 -0.391118,-0.197574 -0.459811,5.25e-4 -0.137269,0.395858 0.181358,0.84589 0.229761,0.841681 z"
         transform="translate(0,0.17578125)"/>
      <path
         d="m 19.125029,86.007765 c 0.08289,-0.0072 0.366968,-0.455035 0.23005,-0.842206 -0.06986,-0.197548 -0.391118,-0.197574 -0.459811,5.25e-4 -0.137269,0.395858 0.181358,0.84589 0.229761,0.841681 z"
         transform="matrix(0.73035114,0.78397282,-0.78397282,0.73035114,72.746503,8.4300903)"/>
      <path
         d="m 19.125029,86.007765 c 0.08289,-0.0072 0.366968,-0.455035 0.23005,-0.842206 -0.06986,-0.197548 -0.391118,-0.197574 -0.459811,5.25e-4 -0.137269,0.395858 0.181358,0.84589 0.229761,0.841681 z"
         transform="rotate(91.953674,19.049362,86.307123)"/>
      <path
         d="m 19.125029,86.007765 c 0.08289,-0.0072 0.366968,-0.455035 0.23005,-0.842206 -0.06986,-0.197548 -0.391118,-0.197574 -0.459811,5.25e-4 -0.137269,0.395858 0.181358,0.84589 0.229761,0.841681 z"
         transform="matrix(-0.69996755,0.60061938,-0.60061938,-0.69996755,84.318624,135.26094)"/>
      <path
         d="m 19.125029,86.007765 c 0.08289,-0.0072 0.366968,-0.455035 0.23005,-0.842206 -0.06986,-0.197548 -0.391118,-0.197574 -0.459811,5.25e-4 -0.137269,0.395858 0.181358,0.84589 0.229761,0.841681 z"
         transform="matrix(-1.0029019,-0.01069329,0.01110145,-0.96602864,37.366983,169.89627)"/>
      <path
         d="m 19.125029,86.007765 c 0.08289,-0.0072 0.366968,-0.455035 0.23005,-0.842206 -0.06986,-0.197548 -0.391118,-0.197574 -0.459811,5.25e-4 -0.137269,0.395858 0.181358,0.84589 0.229761,0.841681 z"
         transform="matrix(-0.66226294,-0.61775217,0.61775217,-0.66226294,-21.5453,155.32455)"/>
      <path
         d="m 19.125029,86.007765 c 0.08289,-0.0072 0.366968,-0.455035 0.23005,-0.842206 -0.06986,-0.197548 -0.391118,-0.197574 -0.459811,5.25e-4 -0.137269,0.395858 0.181358,0.84589 0.229761,0.841681 z"
         transform="rotate(-91.933044,19.182106,86.346842)"/>
      <path
         d="m 19.125029,86.007765 c 0.08289,-0.0072 0.366968,-0.455035 0.23005,-0.842206 -0.06986,-0.197548 -0.391118,-0.197574 -0.459811,5.25e-4 -0.137269,0.395858 0.181358,0.84589 0.229761,0.841681 z"
         transform="matrix(0.6615095,-0.70220186,0.64661547,0.71837625,-49.345212,37.895747)"/>
    </g>
    <ellipse
       fill="#ffcc00" stroke-width="0.25"
       cx="61.240795"
       cy="67.66375"
       rx="1.5398433"
       ry="0.91412556"
       transform="rotate(29.631539)" />
  </g>
  <g>
    <path
       stroke-width="0.5" stroke="#112B00"
       d="m 24.49307,99.448791 c 0,0 -1.94508,-4.021797 -3.255107,-5.688356 -1.310027,-1.666558 0.10201,-4.391805 -0.09498,-4.48938"/>
    <g
       fill="#338000" stroke-width="0.3" stroke="#112B00"
       transform="matrix(-1.6454822,0,0,1.6454822,142.46279,57.622197)">
      <path
         d="m 73.377304,22.485035 c 0.980953,0.01499 2.372021,0.366061 1.553806,0.758785 -0.818216,0.392723 -0.840933,0.03446 -1.553806,-0.758785 z"/>
      <path
         d="m 72.968926,22.916112 c -0.743077,-0.328554 -2.269291,-0.501478 -1.553805,-0.758785 0.453612,-0.163131 1.114698,-0.139273 1.394037,0.106581 0.161264,0.141936 0.139196,0.283755 0.159768,0.652199 z"/>
      <path
         d="m 73.635429,21.977514 c 0.792306,-0.427849 2.06686,-1.616989 2.086221,-0.78472 0.01936,0.83227 -2.086221,0.78472 -2.086221,0.78472 z"/>
    </g>

    <g
       transform="translate(1.5,-0.125)">
      <g
         fill="#ffaaaa" stroke-width="0.25"
         transform="matrix(2.8527351,1.6226568,-1.1534138,2.0277758,64.873428,-117.13882)">
        <path
           d="m 19.125029,86.007765 c 0.08289,-0.0072 0.366968,-0.455035 0.23005,-0.842206 -0.06986,-0.197548 -0.391118,-0.197574 -0.459811,5.25e-4 -0.137269,0.395858 0.181358,0.84589 0.229761,0.841681 z"
           transform="translate(0,0.17578125)"/>
        <path
           d="m 19.125029,86.007765 c 0.08289,-0.0072 0.366968,-0.455035 0.23005,-0.842206 -0.06986,-0.197548 -0.391118,-0.197574 -0.459811,5.25e-4 -0.137269,0.395858 0.181358,0.84589 0.229761,0.841681 z"
           transform="matrix(0.73035114,0.78397282,-0.78397282,0.73035114,72.746503,8.4300903)"/>
        <path
           d="m 19.125029,86.007765 c 0.08289,-0.0072 0.366968,-0.455035 0.23005,-0.842206 -0.06986,-0.197548 -0.391118,-0.197574 -0.459811,5.25e-4 -0.137269,0.395858 0.181358,0.84589 0.229761,0.841681 z"
           transform="rotate(91.953674,19.049362,86.307123)"/>
        <path
           d="m 19.125029,86.007765 c 0.08289,-0.0072 0.366968,-0.455035 0.23005,-0.842206 -0.06986,-0.197548 -0.391118,-0.197574 -0.459811,5.25e-4 -0.137269,0.395858 0.181358,0.84589 0.229761,0.841681 z"
           transform="matrix(-0.69996755,0.60061938,-0.60061938,-0.69996755,84.318624,135.26094)"/>
        <path
           d="m 19.125029,86.007765 c 0.08289,-0.0072 0.366968,-0.455035 0.23005,-0.842206 -0.06986,-0.197548 -0.391118,-0.197574 -0.459811,5.25e-4 -0.137269,0.395858 0.181358,0.84589 0.229761,0.841681 z"
           transform="matrix(-1.0029019,-0.01069329,0.01110145,-0.96602864,37.366983,169.89627)"/>
        <path
           d="m 19.125029,86.007765 c 0.08289,-0.0072 0.366968,-0.455035 0.23005,-0.842206 -0.06986,-0.197548 -0.391118,-0.197574 -0.459811,5.25e-4 -0.137269,0.395858 0.181358,0.84589 0.229761,0.841681 z"
           transform="matrix(-0.66226294,-0.61775217,0.61775217,-0.66226294,-21.5453,155.32455)"/>
        <path
           d="m 19.125029,86.007765 c 0.08289,-0.0072 0.366968,-0.455035 0.23005,-0.842206 -0.06986,-0.197548 -0.391118,-0.197574 -0.459811,5.25e-4 -0.137269,0.395858 0.181358,0.84589 0.229761,0.841681 z"
           transform="rotate(-91.933044,19.182106,86.346842)"/>
        <path
           d="m 19.125029,86.007765 c 0.08289,-0.0072 0.366968,-0.455035 0.23005,-0.842206 -0.06986,-0.197548 -0.391118,-0.197574 -0.459811,5.25e-4 -0.137269,0.395858 0.181358,0.84589 0.229761,0.841681 z"
           transform="matrix(0.6615095,-0.70220186,0.64661547,0.71837625,-49.345212,37.895747)"/>
      </g>
      <ellipse
         fill="#ffcc00" stroke-width="0.25"
         cx="61.240795"
         cy="67.66375"
         rx="1.5398433"
         ry="0.91412556"
         transform="rotate(29.631539)" />
    </g>
  </g>

  <!-- Corpo -->
  <path
     fill="#644f2c"
     d="m 71.41761,25.546634 c 3.186617,1.336867 6.802584,3.819668 9.556166,8.423807 1.917962,3.206938 3.673964,9.122831 4.033983,12.845771 0.691157,7.147215 -1.445872,12.11547 -3.519258,15.260315 -1.595951,2.420688 -4.453883,6.14783 -5.48428,8.857987 -1.930398,5.077342 -3.836602,12.674263 -0.170259,15.525863 3.758325,2.923142 11.272468,-3.343148 15.708295,-7.682063 1.99967,-1.955982 5.243331,-5.251271 7.881467,-6.101717 0.438075,-0.141221 0.885266,-0.262097 1.330686,-0.354533 2.46025,-0.510573 6.00396,2.554289 5.86323,5.082152 -0.1487,2.670802 -1.46735,5.579931 -3.20599,6.897855 -2.27932,1.727773 -8.479101,6.58167 -13.530244,11.007112 -1.992465,1.745652 -5.256946,5.086837 -7.827147,5.053327 -0.253462,-0.003 -0.493129,-0.0136 -0.720584,-0.0139 -2.247565,-0.002 -3.214465,4.98157 -3.420198,7.44905 -0.632734,7.58878 0.413789,18.81273 1.289481,25.07393 0.393379,2.81266 1.439444,6.48663 2.490748,9.45127 0.678387,1.91302 2.392614,4.7494 4.109431,5.78956 2.550515,1.54528 6.308895,3.19173 9.165201,4.55996 2.227138,1.06684 5.285752,3.69601 6.604742,5.79184 1.02971,1.63616 1.77467,3.4122 1.37209,4.77792 -4.830183,-0.45283 -29.947166,-2.77736 -29.947166,-2.77736 0.327262,-0.32726 1.36278,-0.7514 2.218409,-1.32847 0.963528,-0.64984 1.256207,-2.80536 0.452315,-3.6645 -1.450406,-1.5501 -4.511915,-2.32748 -6.145193,-4.38888 -2.413473,-3.0461 -1.846139,-8.28771 -4.436743,-8.35089 -2.310795,-0.0563 -4.376881,2.46586 -5.95766,4.95219 -0.903785,1.42152 -2.43962,3.67614 -3.297236,5.1249 -0.353134,0.59654 -0.542412,1.19622 -0.343326,1.85942 0.674809,2.24795 5.752225,3.40851 6.037735,3.62264 l -35.381132,1.32831 c 0,0 -4.375428,-4.13601 2.869855,-9.20771 3.008688,-2.10608 13.030839,-4.14772 15.292102,-5.36651 3.18413,-1.71621 4.856045,-8.04962 5.486292,-10.10621 1.147173,-3.7434 0.724528,-12.8 0.483019,-17.38868 -0.114436,-2.17429 -0.36369,-9.42577 -1.509964,-13.73702 -0.574034,-2.15901 -4.267835,-2.86888 -6.555718,-2.112 -3.442042,1.13871 -7.848455,2.87624 -9.96925,4.32123 -1.187661,0.80921 -2.965181,2.70581 -2.513547,4.02046 0.46141,1.34311 0.844719,3.38108 -0.317976,4.11895 -1.436758,0.9118 -3.061809,-2.3819 -4.77273,-1.8116 -1.710921,0.5703 -3.21976,3.01952 -5.246823,3.07965 -2.175526,0.0645 -5.074683,-0.91965 -5.81713,-2.96559 -0.958788,-2.6421 -1.140613,-4.44839 3.30778,-7.75617 2.341178,-1.74088 5.001014,-3.79385 7.083626,-5.524236 2.100927,-1.745605 4.843543,-5.264225 6.792503,-7.182188 2.646183,-2.604096 6.504461,-5.63768 10.057882,-6.145312 5.916981,-0.845283 12.367,-1.508698 12.367,-3.803037 0,-1.134915 -0.505997,-4.873879 -1.295098,-8.655277 -1.071751,-5.135864 -5.657321,-12.514376 -7.349412,-17.491357 -0.88803,-2.611999 -1.30997,-8.108134 -0.763101,-12.049015 0.161387,-1.162998 0.376201,-2.368174 0.657753,-3.55352 1.020592,-4.296744 5.370814,-10.4037 8.982546,-13.004319 0.909347,-0.654774 1.933432,-1.237037 3.151592,-1.728661 3.891259,-1.570432 10.992329,-1.643694 14.851236,-0.02478 z"/>

  <!-- Occhi -->
  <path
     fill="#59612d"
     stroke="#39251F"
     stroke-width="1"
     d="m 64.626117,39.509656 c -2.203774,2.445283 -3.320755,3.381132 -2.98868,4.769811 0.332076,1.388679 0.875472,-0.211321 1.14717,0.966038 0.271698,1.177358 0.483019,3.471698 -0.120755,3.924528 -0.603773,0.45283 -0.45283,0.754717 0.06038,0.784906 0.513207,0.03019 2.867924,-0.90566 3.501887,-2.415094 0.633962,-1.509434 0.21132,-4.34717 -0.513208,-4.166038 -0.724528,0.181132 -1.267924,1.056604 -1.237736,0.301887 0.03019,-0.754717 1.962264,-5.101887 0.150944,-4.166038 z"/>
  <path
     fill="#59612d"
     stroke="#39251F"
     stroke-width="1"
     d="m 77.846081,42.921819 c -0.806213,-0.788648 -0.667218,0.942336 -1.342349,0.264952 -0.675132,-0.677377 -0.247085,-3.567595 -1.251836,-2.668794 -0.482551,0.431669 -0.676123,1.632744 -1.110321,3.910017 -0.434198,2.277272 0.163894,1.958071 -0.601921,4.064971 -0.765821,2.106907 1.287626,4.147649 3.777359,0.164235 0.345431,-0.552668 2.468209,-3.838484 0.529068,-5.735381 z"/>

     <!-- Ombre -->
  <path
     fill="rgb(132, 113, 79)"
     stroke-width="0"
     fill-opacity="0.5"
     d="m 49.248669,106.06283 c 0,0 3.093243,1.31067 3.989801,6.39116 0.896558,5.0805 1.536956,10.84409 2.433515,11.52718 0.896558,0.68309 0.298852,9.09366 -1.024638,10.1183 -1.323491,1.02463 -6.901899,7.01239 -6.137641,4.78406 0.764258,-2.22833 1.96433,-8.93127 1.96433,-8.93127 l -0.01017,-8.28421 z"/>
  <path
     fill="rgb(132, 113, 79)"
     stroke-width="0"
     fill-opacity="0.5"
     d="m 44.432236,40.304358 c 0,0 2.95726,2.260802 3.554965,6.231273 0.597706,3.970472 -0.640398,9.050967 1.494264,11.057549 2.134662,2.006583 2.689674,8.495955 2.732367,10.417151 0.04269,1.921196 -0.326836,5.387919 -0.326836,5.387919 l -3.771037,-9.48824 -3.578375,-8.003117 -0.986879,-9.324025 z"/>
  <path
     fill="rgb(132, 113, 79)"
     stroke-width="0"
     fill-opacity="0.5"
     d="m 82.054259,100.36251 c 0,0 -0.152372,-2.551189 3.711779,-5.902133 3.864151,-3.350943 5.313207,-2.928301 7.366038,-4.649056 2.05283,-1.720755 10.536504,-8.241141 10.279574,-5.50925 -0.25693,2.731891 -8.974741,7.13984 -8.974741,7.13984 l -7.378988,6.366594 -5.003662,2.554005"/>
  <path
     fill="rgb(132, 113, 79)"
     stroke-width="0"
     fill-opacity="0.5"
     d="m 17.715869,104.08441 6.24884,-4.900346 8.820603,-9.035182 c 0,0 0.392047,4.100175 -1.026821,5.700175 -1.418868,1.6 -3.049057,1.479245 -4.407548,2.95849 -1.35849,1.479243 -3.230188,2.807543 -3.683018,4.166043 -0.452831,1.35849 -5.952056,1.11082 -5.952056,1.11082 z"/>
  <path
     fill="rgb(132, 113, 79)"
     stroke-width="0"
     fill-opacity="0.5"
     d="m 57.817797,149.69611 c 0,0 -6.406476,-0.0508 -8.942325,3.48125 -2.535849,3.53207 -6.339623,4.61887 -8.271698,4.64906 -1.932076,0.0302 -4.810883,1.43088 -4.810883,1.43088 l 25.733414,-0.96611 -6.037735,-3.62264 z"/>
  <path
     fill="rgb(132, 113, 79)"
     stroke-width="0"
     fill-opacity="0.5"
     d="m 85.803137,148.11242 c 0,0 -1.576722,5.12532 1.230825,6.7555 2.807548,1.63019 5.977359,2.29434 6.18868,4.22642 0.21132,1.93208 0.151166,3.25797 0.151166,3.25797 l 9.571362,0.88983 -0.20717,-2.46025 -2.810148,-4.35153 -2.397268,-2.13176 z"/>

  <!-- Base dell'erba in testa -->
  <path
     fill="#338000" stroke-width="0"
     d="m 44.953632,38.643328 c 0,0 3.704153,2.236283 5.737085,-0.813115 2.032932,-3.049398 2.519068,-6.717515 5.833631,-6.894291 3.314563,-0.176777 5.966214,1.325825 9.059806,1.104854 3.093592,-0.220971 8.485281,-0.618718 7.689786,-2.342291 -0.795495,-1.723573 3.755968,-1.011004 2.580686,-1.568267 -1.642882,-0.778976 -8.060382,-3.516717 -8.060382,-3.516717 l -7.280393,-0.01384 -7.099069,2.700375 -5.1892,5.479666 z"/>

  <!-- Overlay -->
  <path
     fill="none"
     d="m 71.41761,25.546634 c 3.186617,1.336867 6.802584,3.819668 9.556166,8.423807 1.917962,3.206938 3.673964,9.122831 4.033983,12.845771 0.691157,7.147215 -1.445872,12.11547 -3.519258,15.260315 -1.595951,2.420688 -4.453883,6.14783 -5.48428,8.857987 -1.930398,5.077342 -3.836602,12.674263 -0.170259,15.525863 3.758325,2.923142 11.272468,-3.343148 15.708295,-7.682063 1.99967,-1.955982 5.243331,-5.251271 7.881467,-6.101717 0.438075,-0.141221 0.885266,-0.262097 1.330686,-0.354533 2.46025,-0.510573 6.00396,2.554289 5.86323,5.082152 -0.1487,2.670802 -1.46735,5.579931 -3.20599,6.897855 -2.27932,1.727773 -8.479101,6.58167 -13.530244,11.007112 -1.992465,1.745652 -5.256946,5.086837 -7.827147,5.053327 -0.253462,-0.003 -0.493129,-0.0136 -0.720584,-0.0139 -2.247565,-0.002 -3.214465,4.98157 -3.420198,7.44905 -0.632734,7.58878 0.413789,18.81273 1.289481,25.07393 0.393379,2.81266 1.439444,6.48663 2.490748,9.45127 0.678387,1.91302 2.392614,4.7494 4.109431,5.78956 2.550515,1.54528 6.308895,3.19173 9.165201,4.55996 2.227138,1.06684 5.285752,3.69601 6.604742,5.79184 1.02971,1.63616 1.77467,3.4122 1.37209,4.77792 -4.830183,-0.45283 -29.947166,-2.77736 -29.947166,-2.77736 0.327262,-0.32726 1.36278,-0.7514 2.218409,-1.32847 0.963528,-0.64984 1.256207,-2.80536 0.452315,-3.6645 -1.450406,-1.5501 -4.511915,-2.32748 -6.145193,-4.38888 -2.413473,-3.0461 -1.846139,-8.28771 -4.436743,-8.35089 -2.310795,-0.0563 -4.376881,2.46586 -5.95766,4.95219 -0.903785,1.42152 -2.43962,3.67614 -3.297236,5.1249 -0.353134,0.59654 -0.542412,1.19622 -0.343326,1.85942 0.674809,2.24795 5.752225,3.40851 6.037735,3.62264 l -35.381132,1.32831 c 0,0 -4.375428,-4.13601 2.869855,-9.20771 3.008688,-2.10608 13.030839,-4.14772 15.292102,-5.36651 3.18413,-1.71621 4.856045,-8.04962 5.486292,-10.10621 1.147173,-3.7434 0.724528,-12.8 0.483019,-17.38868 -0.114436,-2.17429 -0.36369,-9.42577 -1.509964,-13.73702 -0.574034,-2.15901 -4.267835,-2.86888 -6.555718,-2.112 -3.442042,1.13871 -7.848455,2.87624 -9.96925,4.32123 -1.187661,0.80921 -2.965181,2.70581 -2.513547,4.02046 0.46141,1.34311 0.844719,3.38108 -0.317976,4.11895 -1.436758,0.9118 -3.061809,-2.3819 -4.77273,-1.8116 -1.710921,0.5703 -3.21976,3.01952 -5.246823,3.07965 -2.175526,0.0645 -5.074683,-0.91965 -5.81713,-2.96559 -0.958788,-2.6421 -1.140613,-4.44839 3.30778,-7.75617 2.341178,-1.74088 5.001014,-3.79385 7.083626,-5.524236 2.100927,-1.745605 4.843543,-5.264225 6.792503,-7.182188 2.646183,-2.604096 6.504461,-5.63768 10.057882,-6.145312 5.916981,-0.845283 12.367,-1.508698 12.367,-3.803037 0,-1.134915 -0.505997,-4.873879 -1.295098,-8.655277 -1.071751,-5.135864 -5.657321,-12.514376 -7.349412,-17.491357 -0.88803,-2.611999 -1.30997,-8.108134 -0.763101,-12.049015 0.161387,-1.162998 0.376201,-2.368174 0.657753,-3.55352 1.020592,-4.296744 5.370814,-10.4037 8.982546,-13.004319 0.909347,-0.654774 1.933432,-1.237037 3.151592,-1.728661 3.891259,-1.570432 10.992329,-1.643694 14.851236,-0.02478 z"/>

   <!-- Foglia sopra l'overlay in basso a dx -->
   <path
      fill="#338000" stroke-width=".5" stroke="#112B00"
      d="m 90.529006,148.54586 c -1.331331,0.13873 -3.639523,1.01845 -2.844816,0.20506 0.503837,-0.51569 1.460289,-0.95723 2.064668,-0.8644 0.348914,0.0536 0.438104,0.23733 0.780144,0.65933 z"/>

  <!-- Piantine -->
  <g stroke-width="0.3">
    <path
       fill="none" stroke="#112B00"
       d="m 69.772918,27.537233 c 0,0 0.900155,-4.575783 3.818837,-6.021486"/>
    <g
       fill="#338000" stroke="#112B00"
       transform="matrix(1.6454822,0,0,1.6454822,-48.196801,-14.289361)">
      <path
         d="m 73.690662,21.981763 c 0.980953,0.01499 2.372021,0.366061 1.553806,0.758785 -0.818216,0.392723 -0.840933,0.03446 -1.553806,-0.758785 z"/>
      <path
         d="m 72.864473,22.498301 c -0.743077,-0.328554 -2.269291,-0.501478 -1.553805,-0.758785 0.453612,-0.163131 1.114698,-0.139273 1.394037,0.106581 0.161264,0.141936 0.139196,0.283755 0.159768,0.652199 z"/>
      <path
         d="m 73.635429,21.977514 c 0.792306,-0.427849 2.06686,-1.616989 2.086221,-0.78472 0.01936,0.83227 -2.086221,0.78472 -2.086221,0.78472 z"/>
    </g>
  </g>
   <g stroke-width="0.3"
     transform="matrix(-0.85515508,0.59689237,0.31614668,0.94871032,100.19687,-32.077967)">
    <path
       fill="none" stroke="#112B00"
       d="m 69.772918,27.537233 c 0,0 0.900155,-4.575783 3.818837,-6.021486"/>
    <g
       fill="#338000" stroke="#112B00"
       transform="matrix(1.6454822,0,0,1.6454822,-48.196801,-14.289361)">
      <path
         d="m 73.690662,21.981763 c 0.980953,0.01499 2.372021,0.366061 1.553806,0.758785 -0.818216,0.392723 -0.840933,0.03446 -1.553806,-0.758785 z"/>
      <path
         d="m 72.864473,22.498301 c -0.743077,-0.328554 -2.269291,-0.501478 -1.553805,-0.758785 0.453612,-0.163131 1.114698,-0.139273 1.394037,0.106581 0.161264,0.141936 0.139196,0.283755 0.159768,0.652199 z"/>
      <path
         d="m 73.635429,21.977514 c 0.792306,-0.427849 2.06686,-1.616989 2.086221,-0.78472 0.01936,0.83227 -2.086221,0.78472 -2.086221,0.78472 z"/>
    </g>
  </g>

   <!-- Edera -->
  <path
     stroke="#17280B" stroke-width="0.4" fill="none"
     d="m 97.726879,78.254555 c -3.9115,2.650375 -4.34827,0.290879 -3.99802,2.885813 0.35025,2.594935 0.42425,3.77594 -0.58725,4.907435 -1.0115,1.131494 -3.97104,2.477994 -2.73198,4.113407 1.23905,1.635414 2.46577,1.779061 4.02728,1.280701 1.56152,-0.49836 0.51948,-1.929201 1.51009,-4.817904 0.9906,-2.888704 2.31136,2.288422 2.31136,2.288422 0,0 -3.23544,1.563501 -3.7653,3.686712 -0.52985,2.123211 -1.61331,2.391234 -3.42117,3.201302 -1.80787,0.810068 -3.27362,1.235069 -0.66406,-2.397878 2.60956,-3.632947 2.81065,-5.935313 0.89022,-7.569397 -1.92044,-1.634084 -1.68545,-3.701755 0.42596,-4.339696 2.11142,-0.637942 2.74453,-1.506582 3.00442,-2.716086 0.2599,-1.209503 3.2093,-1.732355 3.11351,-1.171609 -0.0958,0.560746 -4.3719,4.363619 -3.18359,7.121989 1.18831,2.75837 1.03104,6.061185 2.06139,8.846861 1.03036,2.785676 -0.11322,2.019677 -0.65818,4.527677 -0.54495,2.507996 -1.13718,2.582756 -2.55981,2.732876 -1.42264,0.15012 -5.81316,2.40753 -3.60218,0.0153 2.21098,-2.392272 3.95011,-5.499568 3.97653,-6.555572 0.0264,-1.056005 -3.55238,-0.626334 -2.22742,-2.498244 1.32497,-1.87191 1.18123,-3.299269 -0.35063,-5.963456 -1.53187,-2.664187 -1.59349,-3.135879 -2.14804,-1.152303 -0.55455,1.983576 -2.30243,2.940141 0.58319,4.634785 2.88561,1.694644 5.57871,2.740379 5.66667,-0.403221 0.088,-3.1436 1.59183,-1.875553 1.53773,-5.177126 -0.0541,-3.301573 -0.77538,-0.968088 0.0643,-3.547374 0.83967,-2.579286 3.643341,-1.345699 0.84618,-2.630073 -2.79717,-1.284375 -0.0161,-3.38224 -2.79717,-1.284375 -2.78106,2.097865 -0.68552,2.215665 -2.83878,3.3529 -2.15326,1.137236 -3.82861,0.32924 -2.37134,3.268014 1.45726,2.938773 -1.34975,4.313748 -0.75372,5.331044 0.59604,1.017296 4.64179,-7.085111 4.64179,-7.085111 l 2.34404,-5.566288 c 0,0 -5.73708,2.838525 -6.01403,5.189577 -0.27695,2.351052 0.82567,3.660365 1.20774,7.346686 0.38208,3.686321 0.21816,1.480179 -0.32031,3.386221 -0.53846,1.906041 -2.49824,-1.287735 -2.09026,1.913126 0.40799,3.200861 1.49331,2.085575 2.37391,3.567047 0.8806,1.481471 4.5751,1.827673 2.28502,3.919933 -2.29008,2.09225 -4.91994,4.00645 -2.9904,4.20381 1.92954,0.19736 3.51883,-4.76046 5.79242,-6.182433 2.27359,-1.421976 1.82221,2.130653 2.12061,1.817293 0.2984,-0.31336 -0.15294,1.26306 -2.85849,0 -2.70554,-1.263055 -1.25758,-4.669403 -3.46856,-2.277132 -2.21098,2.392272 -2.7269,3.161992 -2.15644,4.902132 0.57046,1.74014 0.7233,-1.04367 2.8304,-4.021831 2.1071,-2.978166 3.94173,-2.516204 4.03234,-4.633777 0.0906,-2.117573 2.78608,-2.172516 -0.43187,-4.071924 -3.21794,-1.899407 -5.72057,-3.672456 -4.74337,-1.647465 0.9772,2.024991 1.55953,-0.757362 3.18725,-4.014403 1.62773,-3.257041 3.11687,-6.692027 1.12525,-5.548097 -1.99162,1.14393 0.65554,-4.40637 1.98622,-4.760903 1.33069,-0.354533 0.41565,1.062009 -0.0978,2.939207 -0.51342,1.877199 -1.36965,7.531109 -1.90617,9.421215 -0.53651,1.890107 2.22804,-4.703112 2.27501,-1.406502 0.047,3.296609 1.43455,-0.514333 0.047,3.296609 -1.38758,3.810942 -2.52632,5.080782 -4.19654,6.108078 -1.67021,1.027296 -2.20574,4.801497 -2.92986,1.591777 -0.72413,-3.209719 -0.97952,-1.608329 0.51672,-4.81566 1.49624,-3.207331 4.44856,-3.638424 1.93043,-6.248821 -2.51813,-2.610397 -3.98798,-3.44437 -1.94319,-3.847138 2.04479,-0.402768 4.33454,-1.962302 4.81811,0.03617 0.48357,1.99847 0.82999,3.422703 0.25551,6.25973 -0.57448,2.837026 -2.75047,4.367921 -1.31793,5.55124 1.43253,1.183319 4.15883,1.298026 2.35849,2.8125 -1.80034,1.514474 1.57762,2.102787 -1.41836,3.034522 -2.99597,0.931733 -0.98348,1.575323 -0.75263,1.340473 0.23084,-0.23484 2.56868,2.9702 2.79599,-0.125 0.22731,-3.09519 0.4162,-1.658071 -0.625,-4.249995 -1.04121,-2.591924 -1.43943,-4.107735 -3.53949,-1.004935 -2.10006,3.1028 -1.59311,3.1209 -2.569,4.81743 -0.97589,1.69654 -0.79502,2.38574 -1.74204,0.67764 -0.94702,-1.708104 -3.37421,-1.939029 -1.50156,-3.555952 1.87265,-1.616923 0.76897,-2.28598 2.00982,-3.891921 1.24085,-1.605941 0.6501,-2.488967 0.2476,-2.954606 -0.4025,-0.46564 -1.8878,-8.617934 -1.98206,-4.602795 -0.0943,4.015139 0.59065,10.765347 0.59065,10.765347 0,0 -1.30876,0.609297 -0.33661,2.424613 0.97216,1.815314 -2.68518,1.259044 0.97216,1.815314 3.65733,0.55627 3.14543,-2.451398 4.99204,-4.490135 1.84661,-2.038737 0.41985,-4.864769 1.06691,-5.384615 0.64706,-0.519847 0.52665,-3.08825 -2.06691,-4.115385 -2.59356,-1.027135 -5.05001,-1.518824 -4.98635,-1.65948 0.0637,-0.140655 -2.64533,-0.920012 -1.27767,-2.168823 1.36767,-1.24881 2.90133,-5.19904 2.43127,-2.268383 -0.47006,2.930657 -0.64632,3.233783 -1.00424,4.114898 -0.35791,0.881114 1.75076,0.61562 1.77971,-0.361236 0.0289,-0.976857 1.39765,-3.151045 -0.85035,-2.366337 -2.24799,0.784708 -4.3053,2.608734 -2.92893,1.382229 1.37636,-1.226505 2.94609,-1.514521 5.15707,-3.906792 2.21098,-2.392271 -0.05064,-1.741317 2.83878,-3.352898 2.88943,-1.611581 5.581741,-3.932228 4.22012,-1.966114 -1.36163,1.966114 1.558741,-1.257048 -1.33069,0.354533 -2.88943,1.611581 -2.96246,14.968091 -3.44728,17.937199 -0.48481,2.969108 2.25242,-11.966786 0.72234,-10.242324 -1.53008,1.724462 -7.03019,-0.143917 -3.59734,-3.113605 3.43285,-2.969689 3.46775,-3.283582 4.89502,-3.932426 1.42726,-0.648844 5.042611,-3.491093 1.30432,2.466733 -3.73828,5.957826 -4.75719,15.495147 -2.41753,11.13495 2.33965,-4.360197 -4.26651,-8.264039 -1.05795,-9.142574 3.20856,-0.878535 1.89922,-1.236527 2.24745,1.364462 0.34824,2.600986 -8.24481,0.329277 -5.37753,1.465132 2.86728,1.135854 6.19937,-3.293023 5.72577,1.135854 -0.4736,4.428877 0.72677,4.835475 -1.53773,5.177126 -2.2645,0.341651 -4.10182,-3.079261 2.32701,-10.657874 z"/>
  <path
     stroke="#17280B" stroke-width="0.3" fill="none"
     d="m 34.702301,151.16248 c 4.388767,-1.89919 1.348897,-2.67636 1.027848,-0.98031 -0.32106,1.69603 1.605744,2.18919 2.751994,1.93842 1.146244,-0.25078 4.45017,-2.04271 3.122781,-0.10761 -1.327377,1.93509 -4.657586,3.26205 -6.395413,4.32178 -1.737838,1.05975 -0.622921,-0.59754 -1.790719,-1.31131 -1.167786,-0.71377 -3.489916,3.31356 -3.489916,3.31356 0,0 4.608674,-2.02424 5.247996,-1.33098 0.639303,0.69325 3.821689,-0.2901 5.8396,-1.39139 2.017923,-1.10135 3.648092,-2.11915 0.672762,-1.8568 -2.975332,0.26235 -3.25597,-0.80708 -1.175771,-3.32105 2.080224,-2.51397 1.768096,-3.42812 -0.580809,-1.97583 -2.348913,1.45229 -5.049001,1.7289 -5.366849,1.29831 -0.317862,-0.43059 3.788727,0.5599 -0.0071,1.15152 -0.248205,0.0387 1.478405,-0.50227 0.235639,1.99484 -1.242793,2.49697 -3.757553,3.67427 -4.825143,6.05158 -1.067613,2.37733 -1.659893,0.35064 -0.994112,1.23836 0.665764,0.88774 1.321963,0.42426 2.897499,-0.70498 1.575561,-1.12923 13.070788,-2.74405 10.567333,-2.15226 -2.50347,0.59177 -4.503795,0.39693 -4.559801,-0.14957 -0.05598,-0.54651 3.908797,-3.35917 2.397422,-3.2407 -1.511378,0.11848 -1.388821,-0.77283 0.235922,-3.51127 1.624762,-2.73846 1.680865,-3.04501 2.343906,-2.448 0.663049,0.59701 2.618415,-0.37437 -0.526601,2.99322 -3.145004,3.36759 -8.07237,6.42791 -8.249387,4.809 -0.177061,-1.61886 -1.806294,0.34352 -1.830375,-1.48134 -0.02408,-1.82485 4.294547,-2.04677 3.301349,-2.7222 -0.993178,-0.67544 -4.059371,2.37403 -1.001667,-0.69727 3.057719,-3.07132 -3.530596,-0.97038 -0.404767,-2.2057 3.125821,-1.23531 2.79221,0.40456 5.200031,-0.81431 2.407823,-1.21887 4.238236,-3.07927 2.702868,-0.25634 -1.535357,2.82294 1.600771,1.17607 0.968111,2.23116 -0.632672,1.0551 -7.286786,0.33713 -7.286786,0.33713 l 0.731396,-1.87079 c 0,0 4.926549,-2.69117 5.292234,-1.66003 0.365684,1.03114 -0.81926,2.67448 -1.147744,4.98561 -0.328497,2.31114 -0.203443,0.98306 0.439872,1.55199 0.643303,0.56892 2.727373,-2.81885 2.357911,-0.74725 -0.369451,2.07161 -1.596849,2.3939 -2.532123,3.94114 -0.935263,1.54725 -11.595396,3.97283 -9.012162,3.15213 2.583247,-0.82066 7.373601,-1.38513 5.246841,0.36249 -2.126761,1.74763 -4.066828,0.37001 -6.614826,1.53783 -2.548002,1.16781 1.247089,-0.74138 0.909447,-0.6564 -0.337668,0.0848 -3.005122,3.98978 -0.04807,1.00788 2.95702,-2.9819 6.662983,-3.29406 9.166449,-3.88583 2.503469,-0.59176 -4.219454,-0.64298 -4.805503,0.77983 -0.5863,1.42277 -0.825627,0.0529 -3.229202,0.24067 -2.40357,0.18775 -2.440197,1.79109 -2.59408,0.72725 -0.15388,-1.06384 -0.360868,1.6678 3.146117,-2.09282 3.50696,-3.76059 8.205417,-7.05076 7.17723,-5.1285 -1.028187,1.92226 -3.720774,1.12461 -5.601817,0.75432 -1.881046,-0.37028 -0.151021,-1.81994 2.078391,-2.89771 2.229411,-1.07776 -0.83615,-1.81647 -2.315304,-0.87559 -1.479161,0.94089 -0.432267,0.92575 0.182695,1.50041 0.614914,0.57468 -1.758006,3.75824 -1.117263,4.32022 0.640753,0.562 -2.581003,-0.63876 -2.549159,1.17735 0.0318,1.81615 -2.592392,1.05763 -0.96263,1.93066 1.629789,0.87298 6.476058,0.23876 8.347427,-0.62845 1.871345,-0.86722 1.975918,0.73993 2.694416,-1.60541 0.718549,-2.3453 1.041331,-1.69974 -0.693175,-2.15508 -1.734517,-0.45533 -5.007215,1.82368 -2.29146,-1.72472 2.715755,-3.5484 4.318478,-5.24801 2.049144,-3.72569 -2.269329,1.52232 -3.354745,1.97024 -3.838242,3.45833 -0.483538,1.48807 -4.292534,3.41574 -3.585796,4.45562 0.706739,1.03989 0.176671,0.33441 -1.375949,2.19049 -1.552618,1.85608 -4.41943,3.38958 -2.391936,2.67417 2.027482,-0.71542 -1.689567,2.47489 1.644077,0.42848 3.333636,-2.04642 1.126574,0.0122 0.86555,0.082 -0.261057,0.0696 0.443708,0.34589 0.113975,-1.1284 -0.329751,-1.47428 -3.708117,2.90004 -2.623599,0.61789 1.084503,-2.28216 1.34366,-2.59027 3.742614,-2.70487 2.398975,-0.11458 1.839337,0.32639 2.960574,0.41036 1.12127,0.084 5.890503,0.0824 6.8934,-1.6434 1.002887,-1.72586 3.678598,-3.91489 1.568621,-3.19314 -2.109987,0.72171 -0.907619,-0.57756 -2.319302,-0.38734 -1.411696,0.19022 -0.781454,-0.78805 -0.348597,-1.3813 0.432874,-0.59324 1.866793,-6.24901 2.072899,-4.16589 0.206161,2.08309 -0.379137,6.30263 -0.379137,6.30263 0,0 1.461404,-0.78497 0.433461,1.02002 -1.027939,1.80502 2.998594,-1.60569 -1.027939,1.80502 -4.02652,3.41068 -8.288307,1.09242 -10.380238,1.56473 -2.091932,0.47232 2.184983,-1.79551 1.4569,-1.52519 -0.72807,0.27032 -0.660274,-1.21593 2.179024,-3.97546 2.839306,-2.75952 7.519285,-5.32002 7.445383,-5.34166 -0.07392,-0.0215 2.899208,-2.74584 1.356496,-2.25533 -1.542721,0.49054 -3.337455,-0.33325 -2.743707,0.84586 0.593759,1.17915 0.796192,1.19255 1.21399,1.36282 0.417806,0.1703 -1.918609,1.82092 -1.975411,1.31923 -0.05673,-0.50174 -1.624151,-0.50889 0.8794,-1.99827 2.503528,-1.48938 4.822788,-2.2566 3.271019,-1.74666 -1.551781,0.50989 -3.293331,1.68998 -5.796799,2.28176 -2.503469,0.59175 -3.179816,-2.16876 -5.200022,0.8143 -1.048531,1.54827 -2.804134,1.76367 -1.249861,1.66476 1.554275,-0.0989 -1.754043,0.64862 1.479153,-0.94089 3.233194,-1.58949 0.190608,6.41031 0.801645,7.59763 0.611032,1.18733 -2.792407,-4.53159 -1.058177,-4.90399 1.734246,-0.3724 9.741921,-6.26363 5.873862,-4.94362 -3.868059,1.32001 -5.764313,0.87821 -4.024002,1.38553 1.127196,0.32859 -5.65979,2.40837 -1.378376,2.43851 4.281399,0.0302 2.186825,5.16765 -0.508792,4.80859 -2.695591,-0.35908 4.503796,-8.0817 0.936637,-5.8258 -3.567148,2.2559 1.332818,0.0837 1.014141,1.78124 -0.318682,1.69759 7.63337,-6.17621 4.494428,-3.12528 -3.138938,3.05093 -8.911306,3.70513 -8.275596,5.68849 0.635723,1.98338 -0.68013,3.22349 1.830386,1.48136 2.510516,-1.74214 7.916006,-6.01375 0.620909,-4.62855 z"/>

    <!-- Erba -->
    <g stroke-width="0" fill="url(#linearGradient92)">/
      <path
         d="m 62.226234,31.90273 c -0.09018,-0.166095 -0.0192,-1.803386 1.880938,-4.218024 -1.053759,2.047417 -0.221578,3.294579 -0.245699,4.195706 -0.02412,0.901128 -1.545058,0.188412 -1.635239,0.02232 z"/>
      <path
         d="m 61.588022,27.797617 c -0.09018,-0.166095 -0.01921,-1.803386 1.880938,-4.218024 -1.053759,2.047417 -0.221578,3.294579 -0.2457,4.195706 -0.02412,0.901128 -1.545058,0.188412 -1.635238,0.02232 z"/>
      <path
         d="m 61.179315,29.339087 c -1.43e-4,-0.519286 0.325942,-1.411781 2.266145,-2.937987 -1.209889,1.399479 -0.888377,2.864745 -0.985071,3.229711 -0.09669,0.364966 -1.28093,0.227562 -1.281074,-0.291724 z"/>
      <path
         d="m 60.973362,31.76214 c -0.09018,-0.166094 -0.01921,-1.803385 1.880937,-4.218023 -1.053759,2.047417 -0.221578,3.294578 -0.245699,4.195706 -0.02412,0.901127 -1.545058,0.188411 -1.635238,0.02232 z"/>
      <path
         d="m 63.551121,31.860878 c -0.09018,-0.166094 -0.01921,-1.803385 1.880938,-4.218024 -1.053759,2.047418 -0.221579,3.294579 -0.2457,4.195707 -0.02412,0.901127 -1.545058,0.188411 -1.635238,0.02232 z"/>
      <path
         d="m 60.249141,29.781259 c -0.124035,-0.17943 -0.0015,-1.54743 1.648788,-3.603386 -0.921084,1.747907 -0.257109,2.956795 -0.245599,3.597798 0.0115,0.641004 -1.279152,0.185015 -1.403189,0.0056 z"/>
      <path
         d="m 53.982642,29.966772 c -0.108557,-0.154711 -0.225003,-1.789397 1.386978,-4.405218 -0.813072,2.154354 0.15608,3.298331 0.235016,4.196318 0.07894,0.897988 -1.513437,0.36361 -1.621994,0.208902 z"/>
      <path
         d="m 57.042087,28.301276 c -0.108557,-0.15471 -0.225003,-1.789397 1.386978,-4.405218 -0.813072,2.154354 0.15608,3.298331 0.235016,4.196318 0.07894,0.897988 -1.513437,0.36361 -1.621994,0.208902 z"/>
      <path
         d="m 60.725214,26.730125 c -1.44e-4,-0.519286 0.325942,-1.411781 2.266145,-2.937987 -1.209889,1.399479 -0.888377,2.864745 -0.985072,3.229711 -0.09669,0.364966 -1.280929,0.227562 -1.281073,-0.291724 z"/>
      <path
         d="m 57.192934,29.745677 c -0.12094,-0.18153 0.02501,-1.547228 1.710333,-3.574583 -0.95092,1.731855 -0.307773,2.951951 -0.307255,3.593057 5.21e-4,0.641106 -1.282136,0.163054 -1.403078,-0.01847 z"/>
      <path
         d="m 60.457446,27.198572 c -1.43e-4,-0.519286 0.325943,-1.411781 2.266145,-2.937987 -1.209889,1.399479 -0.888377,2.864745 -0.985071,3.229711 -0.09669,0.364966 -1.28093,0.227562 -1.281074,-0.291724 z"/>
      <path
         d="m 59.775799,28.885033 c -0.09942,-0.194153 0.201526,-1.534252 2.107328,-3.355899 -1.14246,1.611941 -0.642843,2.897498 -0.715537,3.53447 -0.07269,0.636972 -1.292368,0.01558 -1.391791,-0.178571 z"/>
      <path
         d="m 57.604508,28.980897 c -0.108556,-0.15471 -0.225012,-1.789395 1.386979,-4.405218 -0.813072,2.154354 0.156078,3.298331 0.235015,4.196319 0.07894,0.897987 -1.513437,0.363609 -1.621993,0.208902 z"/>
      <path
         d="m 59.689344,26.983649 c -0.09018,-0.166095 -0.0192,-1.803386 1.880938,-4.218024 -1.053759,2.047417 -0.221578,3.294579 -0.245699,4.195706 -0.02412,0.901128 -1.545058,0.188412 -1.635239,0.02232 z"/>
      <path
         d="m 54.142745,28.649235 c -0.126616,-0.503614 -0.02772,-1.448653 1.482351,-3.401443 -0.832611,1.652009 -0.16391,2.994847 -0.168804,3.372373 -0.0049,0.377525 -1.186935,0.532685 -1.313547,0.02907 z"/>
      <path
         d="m 58.322516,26.739336 c -0.09942,-0.194153 0.201526,-1.534252 2.107328,-3.355899 -1.142461,1.611942 -0.642843,2.897498 -0.715537,3.53447 -0.0727,0.636972 -1.292369,0.01558 -1.391791,-0.178571 z"/>
      <path
         d="m 56.447516,27.098711 c -0.09942,-0.194153 0.201526,-1.534252 2.107328,-3.355899 -1.142461,1.611942 -0.642843,2.897498 -0.715537,3.53447 -0.0727,0.636972 -1.292369,0.01558 -1.391791,-0.178571 z"/>
      <path
         d="m 55.548749,30.360826 c -0.108557,-0.15471 -0.225003,-1.789397 1.386978,-4.405218 -0.813072,2.154354 0.15608,3.298331 0.235016,4.196318 0.07894,0.897988 -1.513437,0.36361 -1.621994,0.208902 z"/>
      <path
         d="m 57.87899,29.093078 c -0.108557,-0.154711 -0.225003,-1.789398 1.386978,-4.405218 -0.813072,2.154353 0.15608,3.298331 0.235016,4.196318 0.07894,0.897988 -1.513437,0.363609 -1.621994,0.208902 z"/>
      <path
         d="m 59.227979,29.229406 c -0.127918,-0.139129 -0.457852,-1.744402 0.796985,-4.549117 -0.523372,2.242412 0.587498,3.249338 0.783577,4.129205 0.196074,0.879866 -1.452645,0.559041 -1.580562,0.419915 z"/>
      <path
         d="m 58.820866,27.697294 c -0.143713,-0.164092 -0.178191,-1.537137 1.226531,-3.768091 -0.715465,1.841653 0.08221,2.966814 0.16684,3.60231 0.08462,0.635498 -1.249658,0.329871 -1.39337,0.165793 z"/>
      <path
         d="m 55.478986,28.835846 c -0.108556,-0.15471 -0.225013,-1.789396 1.386978,-4.405218 -0.813071,2.154354 0.156079,3.298331 0.235016,4.196319 0.07894,0.897987 -1.513437,0.363608 -1.621994,0.208901 z"/>
      <path
         d="m 49.273784,40.567577 c -0.173368,-0.07526 -1.126284,-1.408564 -1.117473,-4.481172 0.431555,2.261876 1.855445,2.731423 2.391679,3.456036 0.536236,0.724614 -1.100837,1.100391 -1.274204,1.025138 z"/>
      <path
         d="m 51.348031,38.277358 c -0.320074,-0.408914 -0.613153,-1.312786 -0.02538,-3.710328 -0.09065,1.847743 1.065414,2.803725 1.214129,3.15076 0.14872,0.347033 -0.86868,0.968483 -1.188753,0.559568 z"/>
      <path
         d="m 51.028988,31.058475 c -0.141598,-0.125182 -0.635484,-1.68782 0.323089,-4.60709 -0.289077,2.28446 0.919813,3.171324 1.205677,4.026246 0.285862,0.854925 -1.387169,0.706023 -1.528766,0.580844 z"/>
      <path
         d="m 53.074005,29.327508 c -0.139034,-0.168074 -0.134855,-1.541544 1.332165,-3.732054 -0.767047,1.820772 -0.0014,2.967953 0.06532,3.60558 0.0667,0.637626 -1.258452,0.294547 -1.397488,0.126478 z"/>
      <path
         d="m 51.26929,29.75577 c -0.288633,-0.431681 -0.513378,-1.35492 0.251847,-3.701858 -0.228415,1.83581 0.853006,2.875476 0.975385,3.232649 0.122378,0.357173 -0.938598,0.90089 -1.227232,0.469209 z"/>
      <path
         d="m 61.275918,28.469622 c -0.139034,-0.168075 -0.134855,-1.541544 1.332166,-3.732054 -0.767047,1.820772 -0.0014,2.967952 0.06532,3.605579 0.0667,0.637627 -1.258452,0.294547 -1.397488,0.126479 z"/>
      <path
         d="m 71.161405,28.276316 c -0.09942,-0.194153 0.201526,-1.534252 2.107328,-3.355899 -1.142461,1.611942 -0.642843,2.897498 -0.715537,3.53447 -0.07269,0.636972 -1.292368,0.01558 -1.391791,-0.178571 z"/>
      <path
         d="m 71.749394,29.585771 c -0.09018,-0.166094 -0.01921,-1.803385 1.880937,-4.218023 -1.053759,2.047417 -0.221578,3.294578 -0.245699,4.195706 -0.02412,0.901127 -1.545058,0.188411 -1.635238,0.02232 z"/>
      <path
         d="m 70.305607,29.042718 c -0.09018,-0.166095 -0.01921,-1.803386 1.880938,-4.218024 -1.053759,2.047417 -0.221578,3.294579 -0.2457,4.195706 -0.02412,0.901128 -1.545058,0.188412 -1.635238,0.02232 z"/>
      <path
         d="m 73.210945,28.074649 c -0.09942,-0.194153 0.201526,-1.534252 2.107328,-3.355899 -1.142461,1.611942 -0.642843,2.897498 -0.715537,3.53447 -0.07269,0.636972 -1.292368,0.01558 -1.391791,-0.178571 z"/>
      <path
         d="m 71.40936,29.283885 c -1.43e-4,-0.519286 0.325943,-1.411781 2.266145,-2.937987 -1.209889,1.399479 -0.888377,2.864745 -0.985071,3.229711 -0.09669,0.364966 -1.28093,0.227562 -1.281074,-0.291724 z"/>
      <path
         d="m 73.798934,29.384104 c -0.09018,-0.166094 -0.01921,-1.803385 1.880937,-4.218023 -1.053759,2.047417 -0.221578,3.294578 -0.245699,4.195706 -0.02412,0.901127 -1.545058,0.188411 -1.635238,0.02232 z"/>
      <path
         d="m 72.015541,30.243176 c -0.09018,-0.166095 -0.01921,-1.803386 1.880938,-4.218024 -1.053759,2.047417 -0.221579,3.294579 -0.2457,4.195706 -0.02412,0.901128 -1.545058,0.188412 -1.635238,0.02232 z"/>
      <path
         d="m 71.104375,30.793185 c -0.09018,-0.166095 -0.0192,-1.803386 1.880938,-4.218024 -1.053759,2.047417 -0.221578,3.294579 -0.245699,4.195706 -0.02412,0.901128 -1.545058,0.188412 -1.635239,0.02232 z"/>
      <path
         d="m 69.021765,26.963816 c -0.09942,-0.194153 0.201526,-1.534252 2.107328,-3.355899 -1.142461,1.611942 -0.642843,2.897498 -0.715537,3.53447 -0.0727,0.636972 -1.292369,0.01558 -1.391791,-0.178571 z"/>
      <path
         d="m 63.067582,27.556885 c -0.09018,-0.166095 -0.0192,-1.803386 1.880938,-4.218024 -1.053759,2.047417 -0.221578,3.294579 -0.245699,4.195706 -0.02412,0.901128 -1.545058,0.188412 -1.635239,0.02232 z"/>
      <path
         d="m 66.555117,27.432678 c -0.124035,-0.17943 -0.0015,-1.54743 1.648788,-3.603386 -0.921083,1.747907 -0.25711,2.956795 -0.245599,3.597798 0.01151,0.641003 -1.279151,0.185015 -1.403189,0.0056 z"/>
      <path
         d="m 68.250378,28.242021 c -0.09018,-0.166094 -0.0192,-1.803385 1.880938,-4.218023 -1.053759,2.047417 -0.221578,3.294578 -0.2457,4.195706 -0.02412,0.901127 -1.545057,0.188411 -1.635238,0.02232 z"/>
      <path
         d="m 62.006451,26.564447 c -1.44e-4,-0.519286 0.325942,-1.411781 2.266145,-2.937987 -1.20989,1.399479 -0.888378,2.864745 -0.985072,3.229711 -0.09669,0.364966 -1.280929,0.227562 -1.281073,-0.291724 z"/>
      <path
         d="m 61.978237,28.944499 c -0.09942,-0.194153 0.201526,-1.534252 2.107328,-3.355899 -1.14246,1.611942 -0.642843,2.897498 -0.715537,3.53447 -0.07269,0.636972 -1.292368,0.01558 -1.391791,-0.178571 z"/>
      <path
         d="M 61.966413,30.844657 C 61.85522,30.69183 61.71075,29.059382 63.27765,26.416303 c -0.776011,2.167979 0.212613,3.29517 0.306936,4.191671 0.09432,0.896503 -1.506979,0.389508 -1.618172,0.236684 z"/>
      <path
         d="m 62.642506,28.019209 c -0.06828,-0.514778 0.137886,-1.442342 1.861065,-3.209925 -1.015807,1.546128 -0.504819,2.956541 -0.552791,3.331039 -0.04797,0.374498 -1.239998,0.393664 -1.308274,-0.121114 z"/>
      <path
         d="m 63.843622,27.064435 c -1.44e-4,-0.519286 0.325942,-1.411781 2.266145,-2.937987 -1.20989,1.399479 -0.888378,2.864745 -0.985072,3.229711 -0.09669,0.364966 -1.28093,0.227562 -1.281073,-0.291724 z"/>
      <path
         d="m 68.636753,27.79126 c -0.09018,-0.166095 -0.0192,-1.803386 1.880938,-4.218024 -1.053759,2.047417 -0.221578,3.294579 -0.245699,4.195706 -0.02412,0.901128 -1.545058,0.188412 -1.635239,0.02232 z"/>
      <path
         d="m 67.575622,26.798822 c -1.44e-4,-0.519286 0.325942,-1.411781 2.266145,-2.937987 -1.20989,1.399479 -0.888378,2.864745 -0.985072,3.229711 -0.09669,0.364966 -1.280929,0.227562 -1.281073,-0.291724 z"/>
      <path
         d="m 68.943803,26.074121 c -0.06828,-0.514778 0.137886,-1.442342 1.861065,-3.209925 -1.015807,1.546128 -0.504819,2.956541 -0.552791,3.331039 -0.04797,0.374498 -1.239998,0.393664 -1.308274,-0.121114 z"/>
      <path
         d="m 66.294385,26.9645 c -1.44e-4,-0.519286 0.325942,-1.411781 2.266145,-2.937987 -1.209889,1.399479 -0.888377,2.864745 -0.985072,3.229711 -0.09669,0.364966 -1.280929,0.227562 -1.281073,-0.291724 z"/>
      <path
         d="M 65.258515,27.218024 C 65.168335,27.051929 65.239315,25.414638 67.139453,23 c -1.053759,2.047417 -0.221578,3.294579 -0.245699,4.195706 -0.02412,0.901128 -1.545058,0.188412 -1.635239,0.02232 z"/>
      <path
         d="m 63.427772,26.476248 c -0.124035,-0.17943 -0.0015,-1.54743 1.648787,-3.603386 -0.921083,1.747907 -0.257109,2.956795 -0.245598,3.597799 0.0115,0.641004 -1.279152,0.185015 -1.403189,0.0056 z"/>
      <path
         d="m 62.016687,27.333086 c -0.09942,-0.194153 0.201526,-1.534252 2.107328,-3.355899 -1.142461,1.611942 -0.642843,2.897498 -0.715537,3.53447 -0.0727,0.636972 -1.292369,0.01558 -1.391791,-0.178571 z"/>
      <path
         d="m 63.837173,28.836087 c -0.127918,-0.139131 -0.457843,-1.744407 0.796985,-4.549118 -0.523373,2.24241 0.5875,3.249337 0.783577,4.129203 0.196075,0.879869 -1.452645,0.559043 -1.580562,0.419915 z"/>
      <path
         d="m 69.319109,26.438286 c -0.05944,-0.515873 0.162599,-1.439766 1.915834,-3.177541 -1.04217,1.528482 -0.555442,2.947451 -0.609828,3.321071 -0.05438,0.37362 -1.246566,0.372343 -1.306006,-0.14353 z"/>
      <path
         d="m 67.050773,26.897249 c -0.05944,-0.515873 0.162599,-1.439765 1.915833,-3.17754 -1.042168,1.528482 -0.55544,2.94745 -0.609828,3.32107 -0.05438,0.37362 -1.246565,0.372343 -1.306005,-0.14353 z"/>
      <path
         d="m 68.107427,27.036713 c -0.12094,-0.18153 0.02501,-1.547228 1.710334,-3.574583 -0.950921,1.731855 -0.307773,2.951951 -0.307256,3.593057 5.22e-4,0.641106 -1.282135,0.163054 -1.403078,-0.01847 z"/>
      <path
         d="m 65.619621,26.369417 c -0.05944,-0.515873 0.162599,-1.439766 1.915833,-3.177541 -1.042169,1.528483 -0.555441,2.947451 -0.609827,3.321071 -0.05438,0.37362 -1.246566,0.372343 -1.306006,-0.14353 z"/>
      <path
         d="m 66.049963,27.325491 c -0.12094,-0.18153 0.02501,-1.547229 1.710333,-3.574584 -0.950919,1.731855 -0.307772,2.951952 -0.307255,3.593058 5.21e-4,0.641106 -1.282136,0.163054 -1.403078,-0.01847 z"/>
      <path
         d="m 64.869539,27.635082 c -0.108557,-0.15471 -0.225013,-1.789396 1.386978,-4.405218 -0.813072,2.154354 0.156078,3.298331 0.235015,4.196319 0.07894,0.897987 -1.513437,0.363609 -1.621993,0.208902 z"/>
      <path
         d="m 69.492347,25.949583 c -0.12094,-0.18153 0.02501,-1.547228 1.710333,-3.574583 -0.95092,1.731855 -0.307773,2.951951 -0.307255,3.593057 5.21e-4,0.641106 -1.282136,0.163054 -1.403078,-0.01847 z"/>
      <path
         d="m 62.495395,29.444189 c -0.09018,-0.166095 -0.0192,-1.803386 1.880938,-4.218024 -1.053759,2.047417 -0.221578,3.294579 -0.245699,4.195706 -0.02412,0.901128 -1.545058,0.188412 -1.635239,0.02232 z"/>
      <path
         d="m 64.210678,27.565151 c -0.242525,-0.459172 -0.370756,-1.40068 0.632671,-3.656078 -0.416718,1.80242 0.551592,2.948173 0.636444,3.316072 0.08485,0.367898 -1.026588,0.799178 -1.269115,0.340006 z"/>
      <path
         d="m 63.820282,29.402337 c -0.09018,-0.166094 -0.01921,-1.803385 1.880938,-4.218024 -1.053759,2.047418 -0.221579,3.294579 -0.2457,4.195707 -0.02412,0.901127 -1.545058,0.188411 -1.635238,0.02232 z"/>
      <path
         d="m 68.912126,27.41301 c -0.05944,-0.515873 0.162599,-1.439766 1.915833,-3.177541 -1.042169,1.528483 -0.555441,2.947451 -0.609828,3.321071 -0.05438,0.37362 -1.246566,0.372343 -1.306005,-0.14353 z"/>
      <path
         d="m 63.328401,27.262381 c -0.141598,-0.125182 -0.635484,-1.68782 0.323089,-4.60709 -0.289077,2.28446 0.919813,3.171324 1.205677,4.026246 0.285862,0.854925 -1.387169,0.706023 -1.528766,0.580844 z"/>
      <path
         d="m 62.056571,28.005755 c -0.106845,-0.155898 -0.205274,-1.791768 1.435431,-4.389669 -0.836759,2.145264 0.119729,3.299851 0.188767,4.198653 0.06904,0.898803 -1.517352,0.346912 -1.624198,0.191018 z"/>
      <path
         d="m 64.353037,27.144392 c -0.139034,-0.168075 -0.134855,-1.541544 1.332165,-3.732054 -0.767048,1.820772 -0.0014,2.967953 0.06532,3.605579 0.0667,0.637627 -1.258452,0.294547 -1.397488,0.126479 z"/>
      <path
         d="m 64.553822,27.530783 c -0.118933,-0.182852 0.04206,-1.546859 1.749615,-3.555522 -0.969944,1.721272 -0.340279,2.948381 -0.346826,3.589454 -0.0065,0.641073 -1.283854,0.148918 -1.402789,-0.03393 z"/>
      <path
         d="m 63.370058,27.827349 c -0.106845,-0.155897 -0.205283,-1.791766 1.435431,-4.389669 -0.836759,2.145265 0.119728,3.299851 0.188766,4.198654 0.06904,0.898802 -1.517351,0.346912 -1.624196,0.191018 z"/>
      <path
         d="m 65.266395,27.903271 c -0.106845,-0.155897 -0.205274,-1.791768 1.435431,-4.389668 -0.836759,2.145264 0.119729,3.29985 0.188766,4.198652 0.06904,0.898803 -1.517351,0.346913 -1.624197,0.191018 z"/>
      <path
         d="m 68.256067,29.244385 c -0.09018,-0.166095 -0.01921,-1.803386 1.880938,-4.218024 -1.053759,2.047417 -0.221578,3.294579 -0.2457,4.195706 -0.02412,0.901128 -1.545058,0.188412 -1.635238,0.02232 z"/>
      <path
         d="m 67.644198,27.28273 c -1.44e-4,-0.519286 0.325942,-1.411781 2.266145,-2.937987 -1.20989,1.399479 -0.888378,2.864745 -0.985072,3.229711 -0.09669,0.364966 -1.280929,0.227562 -1.281073,-0.291724 z"/>
      <path
         d="m 69.768213,27.28273 c -1.44e-4,-0.519286 0.325942,-1.411781 2.266145,-2.937987 -1.209889,1.399479 -0.888377,2.864745 -0.985072,3.229711 -0.09669,0.364966 -1.280929,0.227562 -1.281073,-0.291724 z"/>
      <path
         d="m 64.377939,28.822206 c -0.09018,-0.166094 -0.0192,-1.803385 1.880938,-4.218024 -1.053759,2.047418 -0.221578,3.294579 -0.245699,4.195707 -0.02412,0.901127 -1.545058,0.188411 -1.635239,0.02231 z"/>
      <path
         d="m 69.35982,29.485552 c -1.43e-4,-0.519286 0.325943,-1.411781 2.266145,-2.937987 -1.209889,1.399479 -0.888377,2.864745 -0.985071,3.229711 -0.09669,0.364966 -1.28093,0.227562 -1.281074,-0.291724 z"/>
      <path
         d="m 65.346762,27.776013 c -0.09942,-0.194153 0.201526,-1.534252 2.107328,-3.355899 -1.14246,1.611941 -0.642843,2.897498 -0.715537,3.53447 -0.07269,0.636972 -1.292368,0.01558 -1.391791,-0.178571 z"/>
      <path
         d="m 66.707687,29.52612 c -1.43e-4,-0.519286 0.325942,-1.411781 2.266145,-2.937987 -1.209889,1.399479 -0.888377,2.864745 -0.985071,3.229711 -0.09669,0.364966 -1.28093,0.227562 -1.281074,-0.291724 z"/>
      <path
         d="m 69.966001,30.444843 c -0.09018,-0.166095 -0.01921,-1.803386 1.880938,-4.218024 -1.053759,2.047417 -0.221579,3.294579 -0.2457,4.195706 -0.02412,0.901128 -1.545058,0.188412 -1.635238,0.02232 z"/>
      <path
         d="m 67.313868,30.485411 c -0.09018,-0.166094 -0.01921,-1.803385 1.880938,-4.218024 -1.053759,2.047418 -0.221579,3.294579 -0.2457,4.195707 -0.02412,0.901127 -1.545058,0.188411 -1.635238,0.02232 z"/>
      <path
         d="m 65.474567,30.807048 c -0.09018,-0.166094 -0.0192,-1.803385 1.880938,-4.218024 -1.053759,2.047418 -0.221578,3.294579 -0.245699,4.195707 -0.02412,0.901127 -1.545058,0.188411 -1.635239,0.02231 z"/>
      <path
         d="m 68.757227,29.324453 c -1.43e-4,-0.519286 0.325942,-1.411781 2.266145,-2.937987 -1.209889,1.399479 -0.888377,2.864745 -0.985071,3.229711 -0.09669,0.364966 -1.28093,0.227562 -1.281074,-0.291724 z"/>
      <path
         d="m 69.363408,30.283744 c -0.09018,-0.166094 -0.01921,-1.803385 1.880938,-4.218024 -1.053759,2.047418 -0.221579,3.294579 -0.2457,4.195707 -0.02412,0.901127 -1.545058,0.188411 -1.635238,0.02232 z"/>
      <path
         d="m 67.524107,30.605381 c -0.09018,-0.166094 -0.0192,-1.803385 1.880938,-4.218024 -1.053759,2.047418 -0.221578,3.294579 -0.245699,4.195707 -0.02412,0.901127 -1.545058,0.188411 -1.635239,0.02231 z"/>
      <path
         d="m 65.588141,27.973711 c -0.09942,-0.194153 0.201526,-1.534252 2.107328,-3.355899 -1.142461,1.611942 -0.642843,2.897498 -0.715537,3.53447 -0.0727,0.636972 -1.292369,0.01558 -1.391791,-0.178571 z"/>
      <path
         d="m 64.868515,28.824509 c -0.12094,-0.18153 0.02501,-1.547229 1.710333,-3.574584 -0.95092,1.731856 -0.307773,2.951952 -0.307255,3.593058 5.21e-4,0.641106 -1.282136,0.163054 -1.403078,-0.01847 z"/>
      <path
         d="m 65.028337,29.229564 c -0.09942,-0.194153 0.201526,-1.534252 2.107328,-3.355899 -1.14246,1.611941 -0.642843,2.897498 -0.715537,3.53447 -0.07269,0.636972 -1.292368,0.01558 -1.391791,-0.178571 z"/>
      <path
         d="m 67.040426,29.065524 c -0.127918,-0.139131 -0.457843,-1.744407 0.796985,-4.549118 -0.523373,2.24241 0.5875,3.249337 0.783577,4.129203 0.196075,0.879869 -1.452645,0.559043 -1.580562,0.419915 z"/>
      <path
         d="m 68.071768,29.053946 c -0.12094,-0.18153 0.02501,-1.547229 1.710333,-3.574584 -0.95092,1.731856 -0.307773,2.951952 -0.307255,3.593058 5.21e-4,0.641106 -1.282136,0.163054 -1.403078,-0.01847 z"/>
      <path
         d="m 68.23159,29.459001 c -0.09942,-0.194153 0.201526,-1.534252 2.107328,-3.355899 -1.14246,1.611941 -0.642843,2.897498 -0.715537,3.53447 -0.07269,0.636972 -1.292368,0.01558 -1.391791,-0.178571 z"/>
      <path
         d="m 59.964745,31.11261 c -0.09018,-0.166094 -0.0192,-1.803385 1.880938,-4.218023 -1.053759,2.047417 -0.221578,3.294578 -0.2457,4.195706 -0.02412,0.901127 -1.545057,0.188411 -1.635238,0.02232 z"/>
      <path
         d="m 51.53776,32.632181 c -0.127918,-0.139131 -0.457843,-1.744407 0.796985,-4.549118 -0.523373,2.24241 0.5875,3.249337 0.783577,4.129203 0.196075,0.879869 -1.452645,0.559043 -1.580562,0.419915 z"/>
      <path
         d="m 57.019696,30.23438 c -0.05944,-0.515873 0.162599,-1.439766 1.915834,-3.177541 -1.04217,1.528482 -0.555442,2.947451 -0.609828,3.321071 -0.05438,0.37362 -1.246566,0.372343 -1.306006,-0.14353 z"/>
      <path
         d="m 54.75136,30.693343 c -0.05944,-0.515873 0.162599,-1.439765 1.915833,-3.17754 -1.042168,1.528482 -0.55544,2.94745 -0.609828,3.32107 -0.05438,0.37362 -1.246565,0.372343 -1.306005,-0.14353 z"/>
      <path
         d="m 55.808014,30.832807 c -0.12094,-0.18153 0.02501,-1.547228 1.710334,-3.574583 -0.950921,1.731855 -0.307773,2.951951 -0.307256,3.593057 5.22e-4,0.641106 -1.282135,0.163054 -1.403078,-0.01847 z"/>
      <path
         d="m 53.320208,30.165511 c -0.05944,-0.515873 0.162599,-1.439766 1.915833,-3.177541 -1.042169,1.528483 -0.555441,2.947451 -0.609827,3.321071 -0.05438,0.37362 -1.246566,0.372343 -1.306006,-0.14353 z"/>
      <path
         d="m 53.75055,31.121585 c -0.12094,-0.18153 0.02501,-1.547229 1.710333,-3.574584 -0.950919,1.731855 -0.307772,2.951952 -0.307255,3.593058 5.21e-4,0.641106 -1.282136,0.163054 -1.403078,-0.01847 z"/>
      <path
         d="m 52.570126,31.431176 c -0.108557,-0.15471 -0.225013,-1.789396 1.386978,-4.405218 -0.813072,2.154354 0.156078,3.298331 0.235015,4.196319 0.07894,0.897987 -1.513437,0.363609 -1.621993,0.208902 z"/>
      <path
         d="m 50.195982,33.240283 c -0.09018,-0.166095 -0.0192,-1.803386 1.880938,-4.218024 -1.053759,2.047417 -0.221578,3.294579 -0.245699,4.195706 -0.02412,0.901128 -1.545058,0.188412 -1.635239,0.02232 z"/>
      <path
         d="m 52.342827,33.958481 c -0.05944,-0.515873 0.162599,-1.439765 1.915833,-3.17754 -1.042168,1.528482 -0.555441,2.94745 -0.609828,3.32107 -0.05438,0.37362 -1.246565,0.372343 -1.306005,-0.14353 z"/>
      <path
         d="m 52.569102,32.620603 c -0.12094,-0.18153 0.02501,-1.547229 1.710333,-3.574584 -0.95092,1.731856 -0.307773,2.951952 -0.307255,3.593058 5.21e-4,0.641106 -1.282136,0.163054 -1.403078,-0.01847 z"/>
      <path
         d="m 51.911265,31.361245 c -0.242525,-0.459172 -0.370756,-1.40068 0.632671,-3.656078 -0.416718,1.80242 0.551592,2.948173 0.636444,3.316072 0.08485,0.367898 -1.026588,0.799178 -1.269115,0.340006 z"/>
      <path
         d="m 52.728924,33.025658 c -0.09942,-0.194153 0.201526,-1.534252 2.107328,-3.355899 -1.14246,1.611941 -0.642843,2.897498 -0.715537,3.53447 -0.07269,0.636972 -1.292368,0.01558 -1.391791,-0.178571 z"/>
      <path
         d="m 51.520869,33.198431 c -0.09018,-0.166094 -0.01921,-1.803385 1.880938,-4.218024 -1.053759,2.047418 -0.221579,3.294579 -0.2457,4.195707 -0.02412,0.901127 -1.545058,0.188411 -1.635238,0.02232 z"/>
      <path
         d="m 51.220342,35.020991 c -0.111193,-0.152827 -0.255654,-1.785277 1.311236,-4.428354 -0.77601,2.167979 0.212615,3.29517 0.306938,4.191671 0.09432,0.896503 -1.50698,0.389508 -1.618174,0.236685 z"/>
      <path
         d="m 49.164732,34.912158 c -0.09018,-0.166095 -0.0192,-1.803386 1.880938,-4.218024 -1.053759,2.047417 -0.221578,3.294579 -0.245699,4.195706 -0.02412,0.901128 -1.545058,0.188412 -1.635239,0.02232 z"/>
      <path
         d="m 56.612713,31.209104 c -0.05944,-0.515873 0.162599,-1.439766 1.915833,-3.177541 -1.042169,1.528483 -0.555441,2.947451 -0.609828,3.321071 -0.05438,0.37362 -1.246566,0.372343 -1.306005,-0.14353 z"/>
      <path
         d="m 48.932761,34.659719 c -0.320073,-0.408915 -0.613153,-1.312786 -0.02537,-3.710329 -0.09065,1.847744 1.065413,2.803725 1.214129,3.150761 0.148719,0.347032 -0.86868,0.968482 -1.188754,0.559568 z"/>
      <path
         d="m 58.512809,30.879114 c -0.143713,-0.164092 -0.178191,-1.537137 1.226533,-3.768092 -0.715466,1.841653 0.08221,2.966814 0.16684,3.602311 0.08463,0.635496 -1.249657,0.329871 -1.393371,0.165793 z"/>
      <path
         d="m 52.004787,34.909964 c -0.06828,-0.514777 0.137888,-1.442342 1.861065,-3.209924 -1.015805,1.546127 -0.504818,2.956541 -0.552789,3.331039 -0.04797,0.374497 -1.239998,0.393663 -1.308276,-0.121115 z"/>
      <path
         d="m 51.697674,34.697533 c -0.09942,-0.194153 0.201526,-1.534252 2.107328,-3.355899 -1.14246,1.611941 -0.642843,2.897498 -0.715537,3.53447 -0.07269,0.636972 -1.292368,0.01558 -1.391791,-0.178571 z"/>
      <path
         d="m 50.173719,34.077399 c -0.09018,-0.166095 -0.0192,-1.803386 1.880938,-4.218024 -1.053759,2.047417 -0.221578,3.294579 -0.245699,4.195706 -0.02412,0.901128 -1.545058,0.188412 -1.635239,0.02232 z"/>
      <path
         d="m 46.968236,39.423217 c -0.173368,-0.07526 -1.126284,-1.408564 -1.117473,-4.481172 0.431555,2.261876 1.855445,2.731423 2.391679,3.456036 0.536236,0.724614 -1.100837,1.100391 -1.274204,1.025138 z"/>
      <path
         d="m 48.859247,34.98631 c -1.44e-4,-0.519286 0.325942,-1.411781 2.266145,-2.937987 -1.20989,1.399479 -0.888378,2.864745 -0.985072,3.229711 -0.09669,0.364966 -1.28093,0.227562 -1.281073,-0.291724 z"/>
      <path
         d="m 48.116688,35.30982 c -0.197934,-0.09166 -0.786607,-1.332588 -0.407961,-3.941631 0.09337,1.973539 1.278983,2.678235 1.614199,3.224722 0.335212,0.54649 -1.008304,0.808569 -1.206238,0.716909 z"/>
      <path
         d="m 49.042483,37.132998 c -0.320074,-0.408914 -0.613153,-1.312786 -0.02538,-3.710328 -0.09065,1.847743 1.065414,2.803725 1.214129,3.15076 0.14872,0.347033 -0.86868,0.968483 -1.188753,0.559568 z"/>
      <path
         d="m 49.371612,33.621079 c -0.12094,-0.18153 0.02501,-1.547229 1.710334,-3.574584 -0.95092,1.731856 -0.307773,2.951952 -0.307255,3.593058 5.21e-4,0.641106 -1.282136,0.163054 -1.403079,-0.01847 z"/>
      <path
         d="m 47.96475,37.102839 c -0.320073,-0.408915 -0.613153,-1.312787 -0.02538,-3.710328 -0.09065,1.847743 1.065414,2.803724 1.21413,3.150759 0.148719,0.347033 -0.868681,0.968483 -1.188754,0.559569 z"/>
      <path
         d="m 48.082889,38.715176 c -0.197934,-0.09166 -0.786607,-1.332588 -0.407961,-3.941631 0.09337,1.973537 1.278983,2.678235 1.6142,3.224721 0.335219,0.546485 -1.008304,0.808569 -1.206239,0.71691 z"/>
      <path
         d="m 48.597974,36.297929 c -0.181743,-0.05186 -1.301369,-1.248601 -1.69578,-4.29581 0.724601,2.185699 2.197789,2.464359 2.824464,3.112351 0.626671,0.647992 -0.94694,1.235316 -1.128681,1.183461 z"/>
      <path
         d="m 47.003528,37.830772 c -0.173368,-0.07526 -1.126285,-1.408564 -1.117474,-4.481173 0.431555,2.261877 1.855445,2.731423 2.39168,3.456037 0.536235,0.724613 -1.100838,1.100391 -1.274205,1.025138 z"/>
      <path
         d="m 51.238309,35.804079 c -0.320073,-0.408915 -0.613153,-1.312786 -0.02537,-3.710329 -0.09065,1.847744 1.065413,2.803725 1.214129,3.150761 0.148719,0.347032 -0.86868,0.968482 -1.188754,0.559568 z"/>
      <path
         d="m 54.741013,32.861618 c -0.127918,-0.139131 -0.457843,-1.744407 0.796985,-4.549118 -0.523373,2.24241 0.5875,3.249337 0.783577,4.129203 0.196075,0.879869 -1.452645,0.559043 -1.580562,0.419915 z"/>
      <path
         d="m 53.399235,33.46972 c -0.09018,-0.166095 -0.0192,-1.803386 1.880938,-4.218024 -1.053759,2.047417 -0.221578,3.294579 -0.245699,4.195706 -0.02412,0.901128 -1.545058,0.188412 -1.635239,0.02232 z"/>
      <path
         d="m 55.54608,34.187918 c -0.05944,-0.515873 0.162599,-1.439765 1.915833,-3.17754 -1.042168,1.528482 -0.555441,2.94745 -0.609828,3.32107 -0.05438,0.37362 -1.246565,0.372343 -1.306005,-0.14353 z"/>
      <path
         d="m 55.772355,32.85004 c -0.12094,-0.18153 0.02501,-1.547229 1.710333,-3.574584 -0.95092,1.731856 -0.307773,2.951952 -0.307255,3.593058 5.21e-4,0.641106 -1.282136,0.163054 -1.403078,-0.01847 z"/>
      <path
         d="m 55.932177,33.255095 c -0.09942,-0.194153 0.201526,-1.534252 2.107328,-3.355899 -1.14246,1.611941 -0.642843,2.897498 -0.715537,3.53447 -0.07269,0.636972 -1.292368,0.01558 -1.391791,-0.178571 z"/>
      <path
         d="m 54.724122,33.427868 c -0.09018,-0.166094 -0.01921,-1.803385 1.880938,-4.218024 -1.053759,2.047418 -0.221579,3.294579 -0.2457,4.195707 -0.02412,0.901127 -1.545058,0.188411 -1.635238,0.02232 z"/>
      <path
         d="m 54.423595,35.250428 c -0.111193,-0.152827 -0.255654,-1.785277 1.311236,-4.428354 -0.77601,2.167979 0.212615,3.29517 0.306938,4.191671 0.09432,0.896503 -1.50698,0.389508 -1.618174,0.236685 z"/>
      <path
         d="m 52.367985,35.141595 c -0.09018,-0.166095 -0.0192,-1.803386 1.880938,-4.218024 -1.053759,2.047417 -0.221578,3.294579 -0.245699,4.195706 -0.02412,0.901128 -1.545058,0.188412 -1.635239,0.02232 z"/>
      <path
         d="m 55.20804,35.139401 c -0.06828,-0.514777 0.137888,-1.442342 1.861065,-3.209924 -1.015805,1.546127 -0.504818,2.956541 -0.552789,3.331039 -0.04797,0.374497 -1.239998,0.393663 -1.308276,-0.121115 z"/>
      <path
         d="m 54.900927,34.92697 c -0.09942,-0.194153 0.201526,-1.534252 2.107328,-3.355899 -1.14246,1.611941 -0.642843,2.897498 -0.715537,3.53447 -0.07269,0.636972 -1.292368,0.01558 -1.391791,-0.178571 z"/>
      <path
         d="m 53.376972,34.306836 c -0.09018,-0.166095 -0.0192,-1.803386 1.880938,-4.218024 -1.053759,2.047417 -0.221578,3.294579 -0.245699,4.195706 -0.02412,0.901128 -1.545058,0.188412 -1.635239,0.02232 z"/>
      <path
         d="m 52.0625,35.215747 c -1.44e-4,-0.519286 0.325942,-1.411781 2.266145,-2.937987 -1.20989,1.399479 -0.888378,2.864745 -0.985072,3.229711 -0.09669,0.364966 -1.28093,0.227562 -1.281073,-0.291724 z"/>
      <path
         d="m 52.574865,33.850516 c -0.12094,-0.18153 0.02501,-1.547229 1.710334,-3.574584 -0.95092,1.731856 -0.307773,2.951952 -0.307255,3.593058 5.21e-4,0.641106 -1.282136,0.163054 -1.403079,-0.01847 z"/>
      <path
         d="m 54.441562,36.033516 c -0.320073,-0.408915 -0.613153,-1.312786 -0.02537,-3.710329 -0.09065,1.847744 1.065413,2.803725 1.214129,3.150761 0.148719,0.347032 -0.86868,0.968482 -1.188754,0.559568 z"/>
      <path
         d="m 51.164795,36.13067 c -1.44e-4,-0.519286 0.325942,-1.411781 2.266145,-2.937987 -1.20989,1.399479 -0.888378,2.864745 -0.985072,3.229711 -0.09669,0.364966 -1.28093,0.227562 -1.281073,-0.291724 z"/>
      <path
         d="m 50.422236,36.45418 c -0.197934,-0.09166 -0.786607,-1.332588 -0.407961,-3.941631 0.09337,1.973539 1.278983,2.678235 1.614199,3.224722 0.335212,0.54649 -1.008304,0.808569 -1.206238,0.716909 z"/>
      <path
         d="m 50.270298,38.247199 c -0.320073,-0.408915 -0.613153,-1.312787 -0.02538,-3.710328 -0.09065,1.847743 1.065414,2.803724 1.21413,3.150759 0.148719,0.347033 -0.868681,0.968483 -1.188754,0.559569 z"/>
      <path
         d="m 50.388437,39.859536 c -0.197934,-0.09166 -0.786607,-1.332588 -0.407961,-3.941631 0.09337,1.973537 1.278983,2.678235 1.6142,3.224721 0.335219,0.546485 -1.008304,0.808569 -1.206239,0.71691 z"/>
      <path
         d="m 50.903522,37.442289 c -0.181743,-0.05186 -1.301369,-1.248601 -1.69578,-4.29581 0.724601,2.185699 2.197789,2.464359 2.824464,3.112351 0.626671,0.647992 -0.94694,1.235316 -1.128681,1.183461 z"/>
      <path
         d="m 49.309076,38.975132 c -0.173368,-0.07526 -1.126285,-1.408564 -1.117474,-4.481173 0.431555,2.261877 1.855445,2.731423 2.39168,3.456037 0.536235,0.724613 -1.100838,1.100391 -1.274205,1.025138 z"/>
      <path
         d="m 49.757158,31.801849 c -0.106845,-0.155898 -0.205274,-1.791768 1.435431,-4.389669 -0.836759,2.145264 0.119729,3.299851 0.188767,4.198653 0.06904,0.898803 -1.517352,0.346912 -1.624198,0.191018 z"/>
      <path
         d="m 52.053624,30.940486 c -0.139034,-0.168075 -0.134855,-1.541544 1.332165,-3.732054 -0.767048,1.820772 -0.0014,2.967953 0.06532,3.605579 0.0667,0.637627 -1.258452,0.294547 -1.397488,0.126479 z"/>
      <path
         d="m 52.254409,31.326877 c -0.118933,-0.182852 0.04206,-1.546859 1.749615,-3.555522 -0.969944,1.721272 -0.340279,2.948381 -0.346826,3.589454 -0.0065,0.641073 -1.283854,0.148918 -1.402789,-0.03393 z"/>
      <path
         d="m 51.070645,31.623443 c -0.106845,-0.155897 -0.205283,-1.791766 1.435431,-4.389669 -0.836759,2.145265 0.119728,3.299851 0.188766,4.198654 0.06904,0.898802 -1.517351,0.346912 -1.624196,0.191018 z"/>
      <path
         d="m 48.976505,32.265716 c -0.139034,-0.168075 -0.134855,-1.541544 1.332166,-3.732054 -0.767047,1.820772 -0.0014,2.967952 0.06532,3.605579 0.0667,0.637627 -1.258452,0.294547 -1.397488,0.126479 z"/>
      <path
         d="m 52.966982,31.699365 c -0.106845,-0.155897 -0.205274,-1.791768 1.435431,-4.389668 -0.836759,2.145264 0.119729,3.29985 0.188766,4.198652 0.06904,0.898803 -1.517351,0.346913 -1.624197,0.191018 z"/>
      <path
         d="m 70.571518,30.776783 c -0.09942,-0.194153 0.201526,-1.534252 2.107328,-3.355899 -1.142461,1.611942 -0.642843,2.897498 -0.715537,3.53447 -0.0727,0.636972 -1.292369,0.01558 -1.391791,-0.178571 z"/>
      <path
         d="m 70.157789,30.97834 c -1.44e-4,-0.519286 0.325942,-1.411781 2.266145,-2.937987 -1.20989,1.399479 -0.888378,2.864745 -0.985072,3.229711 -0.09669,0.364966 -1.28093,0.227562 -1.281073,-0.291724 z"/>
      <path
         d="m 72.621058,30.575116 c -0.09942,-0.194153 0.201526,-1.534252 2.107328,-3.355899 -1.142461,1.611942 -0.642843,2.897498 -0.715537,3.53447 -0.0727,0.636972 -1.292369,0.01558 -1.391791,-0.178571 z"/>
      <path
         d="m 63.235221,31.067971 c -0.09018,-0.166095 -0.0192,-1.803386 1.880938,-4.218024 -1.053759,2.047417 -0.221578,3.294579 -0.245699,4.195706 -0.02412,0.901128 -1.545058,0.188412 -1.635239,0.02232 z"/>
      <path
         d="m 68.108249,31.180007 c -1.44e-4,-0.519286 0.325942,-1.411781 2.266145,-2.937987 -1.20989,1.399479 -0.888378,2.864745 -0.985072,3.229711 -0.09669,0.364966 -1.28093,0.227562 -1.281073,-0.291724 z"/>
      <path
         d="m 69.054835,30.994852 c -0.09018,-0.166095 -0.0192,-1.803386 1.880938,-4.218024 -1.053759,2.047417 -0.221578,3.294579 -0.245699,4.195706 -0.02412,0.901128 -1.545058,0.188412 -1.635239,0.02232 z"/>
      <path
         d="m 65.802341,31.376947 c -1.44e-4,-0.519286 0.325942,-1.411781 2.266145,-2.937987 -1.209889,1.399479 -0.888377,2.864745 -0.985072,3.229711 -0.09669,0.364966 -1.280929,0.227562 -1.281073,-0.291724 z"/>
      <path
         d="m 66.95854,30.712048 c -0.124035,-0.17943 -0.0015,-1.54743 1.648787,-3.603386 -0.921083,1.747907 -0.257109,2.956795 -0.245598,3.597798 0.01151,0.641003 -1.279151,0.185015 -1.403189,0.0056 z"/>
      <path
         d="m 67.851881,31.17528 c -1.44e-4,-0.519286 0.325942,-1.411781 2.266145,-2.937987 -1.209889,1.399479 -0.888377,2.864745 -0.985072,3.229711 -0.09669,0.364966 -1.280929,0.227562 -1.281073,-0.291724 z"/>
      <path
         d="m 69.00808,30.510381 c -0.124035,-0.17943 -0.0015,-1.54743 1.648787,-3.603386 -0.921083,1.747907 -0.257109,2.956795 -0.245598,3.597798 0.01151,0.641003 -1.279151,0.185015 -1.403189,0.0056 z"/>
      <path
         d="m 64.440823,30.689144 c -1.43e-4,-0.519286 0.325943,-1.411781 2.266145,-2.937987 -1.209889,1.399479 -0.888377,2.864745 -0.985071,3.229711 -0.09669,0.364966 -1.28093,0.227562 -1.281074,-0.291724 z"/>
      <path
         d="m 64.90633,31.036063 c -0.124035,-0.179429 -0.0015,-1.54743 1.648787,-3.603385 -0.921083,1.747905 -0.257109,2.956795 -0.245599,3.597798 0.01152,0.641003 -1.279151,0.185015 -1.403188,0.0056 z"/>
   </g>

   <!-- Pietre -->
  <path
      fill="#593e06" fill-opacity="0.5" stroke-width="0.5" stroke="#342900"
      d="m 57.848121,86.98426 0.783182,3.83347 3.215165,1.0305 3.338826,-3.58614 -3.215166,-3.62737 z"/>
  <path
      fill="#593e06" fill-opacity="0.5" stroke-width="0.5" stroke="#342900"
      d="m 74.073471,90.530992 -2.555644,5.358609 3.503706,1.154162 7.089852,-4.039567 -4.080787,-2.596864 z"/>
  <path
      fill="#593e06" fill-opacity="0.5" stroke-width="0.5" stroke="#342900"
      d="m 60.132005,106.70825 -1.277822,5.97692 3.132725,-3.38005 z"/>
  <path
      fill="#593e06" fill-opacity="0.5" stroke-width="0.5" stroke="#342900"
      d="m 58.216503,134.71342 -4.740308,5.11129 4.163227,0.32976 z"/>
  <path
      fill="#593e06" fill-opacity="0.5" stroke-width="0.5" stroke="#342900"
      d="m 69.297594,118.81565 -1.319042,5.35861 4.369327,0.57708 1.566363,-2.061 -2.225884,-5.23495 z"/>
  <path
      fill="#593e06" fill-opacity="0.5" stroke-width="0.5" stroke="#342900"
      d="m 64.433626,105.46178 3.957127,3.17394 2.473204,-2.55564 -3.421266,-3.62737 z"/>
  <path
      fill="#593e06" fill-opacity="0.5" stroke-width="0.5" stroke="#342900"
      d="m 32.274137,97.117327 -1.030502,2.01979 6.100571,2.019783 1.030502,-3.668593 -4.451768,0.86562 z"/>
  <path
      fill="#593e06" fill-opacity="0.5" stroke-width="0.5" stroke="#342900"
      d="m 48.804563,90.395614 -3.297606,3.503706 3.792247,3.586146 3.050285,-3.503706 -4.122007,-0.329761 z"/>
  <path
      fill="#593e06" fill-opacity="0.5" stroke-width="0.5" stroke="#342900"
      d="m 67.603186,133.23871 c 0.658563,5.13232 0.658563,5.13232 0.658563,5.13232 l 3.434462,0.79149 0.399446,-3.19878 -2.854333,0.45478 2.455674,-5.26013 z"/>
</svg>