<svg xmlns="http://www.w3.org/2000/svg" width="264.4" height="35" viewBox="0 0 264.4 35"><rect class="svg__rect" x="0" y="0" width="95.99" height="35" fill="#3BC4F3"/><rect class="svg__rect" x="93.99" y="0" width="170.41" height="35" fill="#5593C7"/><path class="svg__text" d="M15.69 22L14.22 22L14.22 13.47L16.14 13.47L18.60 20.01L21.06 13.47L22.97 13.47L22.97 22L21.49 22L21.49 19.19L21.64 15.43L19.12 22L18.06 22L15.55 15.43L15.69 19.19L15.69 22ZM28.49 22L26.95 22L30.17 13.47L31.50 13.47L34.73 22L33.18 22L32.49 20.01L29.18 20.01L28.49 22ZM30.83 15.28L29.60 18.82L32.07 18.82L30.83 15.28ZM41.14 22L38.69 22L38.69 13.47L41.21 13.47Q42.34 13.47 43.21 13.97Q44.09 14.48 44.57 15.40Q45.05 16.33 45.05 17.52L45.05 17.52L45.05 17.95Q45.05 19.16 44.57 20.08Q44.08 21.00 43.19 21.50Q42.30 22 41.14 22L41.14 22ZM40.17 14.66L40.17 20.82L41.14 20.82Q42.30 20.82 42.93 20.09Q43.55 19.36 43.56 17.99L43.56 17.99L43.56 17.52Q43.56 16.13 42.96 15.40Q42.35 14.66 41.21 14.66L41.21 14.66L40.17 14.66ZM55.09 22L49.51 22L49.51 13.47L55.05 13.47L55.05 14.66L51.00 14.66L51.00 17.02L54.50 17.02L54.50 18.19L51.00 18.19L51.00 20.82L55.09 20.82L55.09 22ZM68.38 22L65.26 22L65.26 13.47L68.19 13.47Q69.64 13.47 70.39 14.05Q71.15 14.63 71.15 15.78L71.15 15.78Q71.15 16.36 70.83 16.83Q70.51 17.30 69.90 17.56L69.90 17.56Q70.60 17.75 70.97 18.26Q71.35 18.78 71.35 19.51L71.35 19.51Q71.35 20.71 70.58 21.36Q69.81 22 68.38 22L68.38 22ZM66.75 18.15L66.75 20.82L68.39 20.82Q69.09 20.82 69.48 20.47Q69.88 20.13 69.88 19.51L69.88 19.51Q69.88 18.18 68.52 18.15L68.52 18.15L66.75 18.15ZM66.75 14.66L66.75 17.06L68.20 17.06Q68.89 17.06 69.28 16.75Q69.67 16.43 69.67 15.86L69.67 15.86Q69.67 15.23 69.31 14.95Q68.95 14.66 68.19 14.66L68.19 14.66L66.75 14.66ZM77.86 18.86L75.00 13.47L76.64 13.47L78.61 17.51L80.57 13.47L82.21 13.47L79.35 18.86L79.35 22L77.86 22L77.86 18.86Z" fill="#FFFFFF"/><path class="svg__text" d="M114.56 22L108.18 22L108.18 13.60L110.56 13.60L110.56 20.11L114.56 20.11L114.56 22ZM118.55 17.80L118.55 17.80Q118.55 16.55 119.16 15.55Q119.76 14.56 120.83 14.00Q121.89 13.43 123.22 13.43L123.22 13.43Q124.55 13.43 125.61 14.00Q126.68 14.56 127.28 15.55Q127.89 16.55 127.89 17.80L127.89 17.80Q127.89 19.05 127.28 20.04Q126.68 21.04 125.62 21.60Q124.55 22.17 123.22 22.17L123.22 22.17Q121.89 22.17 120.83 21.60Q119.76 21.04 119.16 20.04Q118.55 19.05 118.55 17.80ZM120.95 17.80L120.95 17.80Q120.95 18.51 121.25 19.05Q121.55 19.60 122.07 19.90Q122.59 20.20 123.22 20.20L123.22 20.20Q123.86 20.20 124.37 19.90Q124.89 19.60 125.19 19.05Q125.49 18.51 125.49 17.80L125.49 17.80Q125.49 17.09 125.19 16.54Q124.89 16 124.37 15.70Q123.86 15.40 123.22 15.40L123.22 15.40Q122.58 15.40 122.07 15.70Q121.55 16 121.25 16.54Q120.95 17.09 120.95 17.80ZM135.00 22L132.62 22L132.62 13.60L136.46 13.60Q137.60 13.60 138.44 13.98Q139.28 14.35 139.74 15.06Q140.19 15.76 140.19 16.71L140.19 16.71Q140.19 17.62 139.77 18.30Q139.34 18.98 138.55 19.36L138.55 19.36L140.36 22L137.81 22L136.29 19.77L135.00 19.77L135.00 22ZM135.00 15.47L135.00 17.93L136.31 17.93Q137.05 17.93 137.42 17.61Q137.79 17.29 137.79 16.71L137.79 16.71Q137.79 16.12 137.42 15.79Q137.05 15.47 136.31 15.47L136.31 15.47L135.00 15.47ZM151.72 22L144.98 22L144.98 13.60L151.57 13.60L151.57 15.44L147.34 15.44L147.34 16.85L151.07 16.85L151.07 18.63L147.34 18.63L147.34 20.17L151.72 20.17L151.72 22ZM158.86 22L156.53 22L156.53 13.60L158.49 13.60L162.20 18.07L162.20 13.60L164.52 13.60L164.52 22L162.57 22L158.86 17.52L158.86 22ZM176.79 22L169.27 22L169.27 20.51L173.50 15.48L169.37 15.48L169.37 13.60L176.61 13.60L176.61 15.09L172.37 20.11L176.79 20.11L176.79 22ZM180.89 17.80L180.89 17.80Q180.89 16.55 181.49 15.55Q182.09 14.56 183.16 14.00Q184.22 13.43 185.55 13.43L185.55 13.43Q186.88 13.43 187.94 14.00Q189.01 14.56 189.61 15.55Q190.22 16.55 190.22 17.80L190.22 17.80Q190.22 19.05 189.61 20.04Q189.01 21.04 187.95 21.60Q186.89 22.17 185.55 22.17L185.55 22.17Q184.22 22.17 183.16 21.60Q182.09 21.04 181.49 20.04Q180.89 19.05 180.89 17.80ZM183.28 17.80L183.28 17.80Q183.28 18.51 183.59 19.05Q183.89 19.60 184.40 19.90Q184.92 20.20 185.55 20.20L185.55 20.20Q186.19 20.20 186.71 19.90Q187.22 19.60 187.52 19.05Q187.82 18.51 187.82 17.80L187.82 17.80Q187.82 17.09 187.52 16.54Q187.22 16 186.71 15.70Q186.19 15.40 185.55 15.40L185.55 15.40Q184.91 15.40 184.40 15.70Q183.89 16 183.59 16.54Q183.28 17.09 183.28 17.80ZM201.49 17.80L201.49 17.80Q201.49 16.54 202.09 15.54Q202.69 14.55 203.74 13.99Q204.79 13.43 206.11 13.43L206.11 13.43Q207.27 13.43 208.19 13.84Q209.11 14.25 209.73 15.02L209.73 15.02L208.22 16.39Q207.40 15.40 206.23 15.40L206.23 15.40Q205.55 15.40 205.02 15.70Q204.48 16 204.19 16.54Q203.89 17.09 203.89 17.80L203.89 17.80Q203.89 18.51 204.19 19.05Q204.48 19.60 205.02 19.90Q205.55 20.20 206.23 20.20L206.23 20.20Q207.40 20.20 208.22 19.22L208.22 19.22L209.73 20.58Q209.12 21.35 208.19 21.76Q207.27 22.17 206.11 22.17L206.11 22.17Q204.79 22.17 203.74 21.61Q202.69 21.05 202.09 20.05Q201.49 19.06 201.49 17.80ZM216.64 22L214.26 22L214.26 13.60L216.64 13.60L216.64 16.76L219.88 16.76L219.88 13.60L222.25 13.60L222.25 22L219.88 22L219.88 18.72L216.64 18.72L216.64 22ZM234.16 22L227.42 22L227.42 13.60L234.01 13.60L234.01 15.44L229.77 15.44L229.77 16.85L233.50 16.85L233.50 18.63L229.77 18.63L229.77 20.17L234.16 20.17L234.16 22ZM238.38 21.24L238.38 21.24L239.16 19.49Q239.72 19.86 240.47 20.09Q241.21 20.32 241.93 20.32L241.93 20.32Q243.30 20.32 243.30 19.64L243.30 19.64Q243.30 19.28 242.91 19.11Q242.52 18.93 241.65 18.74L241.65 18.74Q240.71 18.53 240.07 18.30Q239.43 18.06 238.98 17.55Q238.53 17.03 238.53 16.16L238.53 16.16Q238.53 15.39 238.94 14.77Q239.36 14.15 240.20 13.79Q241.03 13.43 242.24 13.43L242.24 13.43Q243.07 13.43 243.87 13.62Q244.68 13.80 245.29 14.17L245.29 14.17L244.56 15.93Q243.36 15.28 242.23 15.28L242.23 15.28Q241.52 15.28 241.20 15.49Q240.88 15.70 240.88 16.04L240.88 16.04Q240.88 16.37 241.26 16.54Q241.64 16.71 242.49 16.89L242.49 16.89Q243.45 17.10 244.08 17.33Q244.71 17.56 245.18 18.07Q245.64 18.58 245.64 19.46L245.64 19.46Q245.64 20.21 245.22 20.83Q244.80 21.44 243.96 21.80Q243.12 22.17 241.92 22.17L241.92 22.17Q240.90 22.17 239.94 21.92Q238.98 21.67 238.38 21.24ZM252.59 22L250.22 22L250.22 13.60L252.59 13.60L252.59 22Z" fill="#FFFFFF" x="106.99"/></svg>