<?xml version="1.0" encoding="UTF-8"?>
<svg xmlns="http://www.w3.org/2000/svg" id="Layer_1" data-name="Layer 1" viewBox="0 0 24 24" width="512" height="512"><path d="M18.9,0H5.1A5.055,5.055,0,0,0,0,5V8A1,1,0,0,0,2,8V5A3.054,3.054,0,0,1,5.1,2H18.9A3.054,3.054,0,0,1,22,5V19a3.054,3.054,0,0,1-3.1,3H5.1A3.054,3.054,0,0,1,2,19V16a1,1,0,0,0-2,0v3a5.055,5.055,0,0,0,5.1,5H18.9A5.055,5.055,0,0,0,24,19V5A5.055,5.055,0,0,0,18.9,0Z"/><path d="M3,12a1,1,0,0,0,1,1H4l13.188-.03-4.323,4.323a1,1,0,1,0,1.414,1.414l4.586-4.586a3,3,0,0,0,0-4.242L14.281,5.293a1,1,0,0,0-1.414,1.414l4.262,4.263L4,11A1,1,0,0,0,3,12Z"/></svg>
