<svg id="Layer_1" height="512" viewBox="0 0 24 24" width="512" xmlns="http://www.w3.org/2000/svg" data-name="Layer 1"><path d="m7.5 13a4.5 4.5 0 1 1 4.5-4.5 4.505 4.505 0 0 1 -4.5 4.5zm0-7a2.5 2.5 0 1 0 2.5 2.5 2.5 2.5 0 0 0 -2.5-2.5zm7.5 14a5.006 5.006 0 0 0 -5-5h-5a5.006 5.006 0 0 0 -5 5v4h2v-4a3 3 0 0 1 3-3h5a3 3 0 0 1 3 3v4h2zm2.5-11a4.5 4.5 0 1 1 4.5-4.5 4.505 4.505 0 0 1 -4.5 4.5zm0-7a2.5 2.5 0 1 0 2.5 2.5 2.5 2.5 0 0 0 -2.5-2.5zm6.5 14a5.006 5.006 0 0 0 -5-5h-4v2h4a3 3 0 0 1 3 3v4h2z"/></svg>